<svg width="1318" height="725" viewBox="0 0 1318 725" fill="none" xmlns="http://www.w3.org/2000/svg">
<rect width="1317" height="725" transform="translate(0.476562)" fill="#161616"/>
<path d="M438.052 357.673V315.793H448.419V411.285H438.052V366.813H384.713V411.285H374.345V315.793H384.713V357.673H438.052ZM526.181 375.68V378.818H470.796C470.796 394.915 480.209 405.556 494.533 405.556C503.945 405.556 511.039 401.054 514.449 393.687H524.817C520.861 405.556 510.357 413.468 494.533 413.468C472.706 413.468 460.565 398.462 460.565 377.317C460.565 355.9 472.979 340.894 494.533 340.894C515.541 340.894 526.181 355.218 526.181 375.68ZM494.396 348.67C481.3 348.67 472.16 357.81 471.069 370.906H515.95V370.633C515.95 357.946 507.629 348.67 494.396 348.67ZM556.531 413.059C543.026 413.059 533.067 406.101 533.067 393.278C533.067 379.5 545.618 376.362 555.167 374.316L567.581 371.724C576.175 369.951 581.359 368.587 581.359 361.357C581.359 352.489 574.402 348.26 564.58 348.26C556.394 348.26 547.391 351.262 546.3 360.674H535.796C536.887 346.896 549.983 340.894 564.716 340.894C572.492 340.894 578.358 342.531 582.587 345.396C589.68 350.307 590.908 358.082 590.908 365.449V399.826C590.908 404.328 591.044 408.284 591.317 411.285H581.495V400.235C577.812 406.238 570.582 413.059 556.531 413.059ZM559.669 405.283C571.946 405.283 581.222 397.916 581.222 386.184V374.18C579.04 376.362 572.219 377.863 566.217 379.227L562.943 379.909C551.893 382.501 543.708 384.275 543.708 393.005C543.708 401.19 550.938 405.283 559.669 405.283ZM658.05 355.9V315.793H667.872V411.285H658.05V397.78C653.275 407.602 644.135 413.468 632.54 413.468C613.578 413.468 602.255 398.189 602.255 377.044C602.255 355.763 613.578 340.894 632.676 340.894C644.135 340.894 653.412 346.351 658.05 355.9ZM635.268 405.556C649.865 405.556 658.05 393.824 658.05 377.044C658.05 360.538 649.865 348.806 635.268 348.806C620.671 348.806 612.623 360.674 612.623 377.044C612.623 393.687 620.671 405.556 635.268 405.556ZM745.173 375.68V378.818H689.788C689.788 394.915 699.201 405.556 713.525 405.556C722.937 405.556 730.031 401.054 733.441 393.687H743.809C739.853 405.556 729.349 413.468 713.525 413.468C691.698 413.468 679.557 398.462 679.557 377.317C679.557 355.9 691.971 340.894 713.525 340.894C734.533 340.894 745.173 355.218 745.173 375.68ZM713.388 348.67C700.292 348.67 691.152 357.81 690.061 370.906H734.942V370.633C734.942 357.946 726.621 348.67 713.388 348.67ZM766.11 343.077V361.766C769.111 348.943 778.933 341.985 792.166 341.985V351.944H790.938C775.114 351.944 766.519 364.085 766.519 377.999V411.285H756.697V355.763C756.697 352.626 756.561 346.214 756.425 343.077H766.11Z" fill="#444444"/>
<path d="M820.115 437.695C819.022 438.789 817.702 439.336 816.151 439.336C814.601 439.336 813.253 438.789 812.105 437.695C810.957 436.602 810.383 435.278 810.383 433.731C810.383 432.185 810.957 430.939 812.105 429.845C813.253 428.752 814.601 428.205 816.151 428.205C817.702 428.205 819.022 428.752 820.115 429.845C821.209 430.939 821.756 432.235 821.756 433.731C821.756 435.227 821.209 436.602 820.115 437.695Z" fill="white"/>
<path d="M820.115 425.431C819.022 426.525 817.702 427.072 816.151 427.072C814.601 427.072 813.253 426.525 812.105 425.431C810.957 424.338 810.383 423.014 810.383 421.467C810.383 419.921 810.957 418.675 812.105 417.581C813.253 416.488 814.601 415.941 816.151 415.941C817.702 415.941 819.022 416.488 820.115 417.581C821.209 418.675 821.756 419.971 821.756 421.467C821.756 422.963 821.209 424.338 820.115 425.431Z" fill="white"/>
<path d="M832.379 443.83C831.285 444.923 829.965 445.47 828.415 445.47C826.864 445.47 825.517 444.923 824.368 443.83C823.22 442.736 822.646 441.412 822.646 439.866C822.646 438.319 823.22 437.073 824.368 435.98C825.517 434.886 826.864 434.34 828.415 434.34C829.965 434.34 831.285 434.886 832.379 435.98C833.472 437.073 834.019 438.37 834.019 439.866C834.019 441.362 833.472 442.736 832.379 443.83Z" fill="white"/>
<path d="M832.379 431.564C831.285 432.658 829.965 433.204 828.415 433.204C826.864 433.204 825.517 432.658 824.368 431.564C823.22 430.471 822.646 429.147 822.646 427.6C822.646 426.053 823.22 424.808 824.368 423.714C825.517 422.621 826.864 422.074 828.415 422.074C829.965 422.074 831.285 422.621 832.379 423.714C833.472 424.808 834.019 426.104 834.019 427.6C834.019 429.096 833.472 430.471 832.379 431.564Z" fill="white"/>
<path d="M832.379 419.297C831.285 420.39 829.965 420.937 828.415 420.937C826.864 420.937 825.517 420.39 824.368 419.297C823.22 418.203 822.646 416.879 822.646 415.333C822.646 413.786 823.22 412.54 824.368 411.447C825.517 410.353 826.864 409.806 828.415 409.806C829.965 409.806 831.285 410.353 832.379 411.447C833.472 412.54 834.019 413.837 834.019 415.333C834.019 416.828 833.472 418.203 832.379 419.297Z" fill="white"/>
<path d="M832.379 407.033C831.285 408.126 829.965 408.673 828.415 408.673C826.864 408.673 825.517 408.126 824.368 407.033C823.22 405.939 822.646 404.615 822.646 403.069C822.646 401.522 823.22 400.276 824.368 399.183C825.517 398.089 826.864 397.542 828.415 397.542C829.965 397.542 831.285 398.089 832.379 399.183C833.472 400.276 834.019 401.573 834.019 403.069C834.019 404.564 833.472 405.939 832.379 407.033Z" fill="white"/>
<path d="M844.646 449.963C843.552 451.056 842.232 451.603 840.682 451.603C839.131 451.603 837.784 451.056 836.636 449.963C835.487 448.869 834.913 447.545 834.913 445.999C834.913 444.452 835.487 443.206 836.636 442.113C837.784 441.019 839.131 440.472 840.682 440.472C842.232 440.472 843.552 441.019 844.646 442.113C845.739 443.206 846.286 444.503 846.286 445.999C846.286 447.495 845.739 448.869 844.646 449.963Z" fill="white"/>
<path d="M844.646 437.695C843.552 438.789 842.232 439.336 840.682 439.336C839.131 439.336 837.784 438.789 836.636 437.695C835.487 436.602 834.913 435.278 834.913 433.731C834.913 432.185 835.487 430.939 836.636 429.845C837.784 428.752 839.131 428.205 840.682 428.205C842.232 428.205 843.552 428.752 844.646 429.845C845.739 430.939 846.286 432.235 846.286 433.731C846.286 435.227 845.739 436.602 844.646 437.695Z" fill="white"/>
<path d="M844.646 425.431C843.552 426.525 842.232 427.072 840.682 427.072C839.131 427.072 837.784 426.525 836.636 425.431C835.487 424.338 834.913 423.014 834.913 421.467C834.913 419.921 835.487 418.675 836.636 417.581C837.784 416.488 839.131 415.941 840.682 415.941C842.232 415.941 843.552 416.488 844.646 417.581C845.739 418.675 846.286 419.971 846.286 421.467C846.286 422.963 845.739 424.338 844.646 425.431Z" fill="white"/>
<path d="M844.646 413.165C843.552 414.259 842.232 414.806 840.682 414.806C839.131 414.806 837.784 414.259 836.636 413.165C835.487 412.072 834.913 410.748 834.913 409.201C834.913 407.655 835.487 406.409 836.636 405.315C837.784 404.222 839.131 403.675 840.682 403.675C842.232 403.675 843.552 404.222 844.646 405.315C845.739 406.409 846.286 407.706 846.286 409.201C846.286 410.697 845.739 412.072 844.646 413.165Z" fill="white"/>
<path d="M844.646 400.898C843.552 401.992 842.232 402.538 840.682 402.538C839.131 402.538 837.784 401.992 836.636 400.898C835.487 399.805 834.913 398.481 834.913 396.934C834.913 395.387 835.487 394.142 836.636 393.048C837.784 391.954 839.131 391.408 840.682 391.408C842.232 391.408 843.552 391.954 844.646 393.048C845.739 394.142 846.286 395.438 846.286 396.934C846.286 398.43 845.739 399.805 844.646 400.898Z" fill="white"/>
<path d="M844.646 388.634C843.552 389.728 842.232 390.274 840.682 390.274C839.131 390.274 837.784 389.728 836.636 388.634C835.487 387.54 834.913 386.216 834.913 384.67C834.913 383.123 835.487 381.877 836.636 380.784C837.784 379.69 839.131 379.144 840.682 379.144C842.232 379.144 843.552 379.69 844.646 380.784C845.739 381.877 846.286 383.174 846.286 384.67C846.286 386.166 845.739 387.54 844.646 388.634Z" fill="white"/>
<path d="M856.913 443.83C855.82 444.923 854.499 445.47 852.949 445.47C851.398 445.47 850.051 444.923 848.903 443.83C847.755 442.736 847.181 441.412 847.181 439.866C847.181 438.319 847.755 437.073 848.903 435.98C850.051 434.886 851.398 434.34 852.949 434.34C854.499 434.34 855.82 434.886 856.913 435.98C858.007 437.073 858.553 438.37 858.553 439.866C858.553 441.362 858.007 442.736 856.913 443.83Z" fill="white"/>
<path d="M856.913 431.564C855.82 432.658 854.499 433.204 852.949 433.204C851.398 433.204 850.051 432.658 848.903 431.564C847.755 430.471 847.181 429.147 847.181 427.6C847.181 426.053 847.755 424.808 848.903 423.714C850.051 422.621 851.398 422.074 852.949 422.074C854.499 422.074 855.82 422.621 856.913 423.714C858.007 424.808 858.553 426.104 858.553 427.6C858.553 429.096 858.007 430.471 856.913 431.564Z" fill="white"/>
<path d="M856.913 419.297C855.82 420.39 854.499 420.937 852.949 420.937C851.398 420.937 850.051 420.39 848.903 419.297C847.755 418.203 847.181 416.879 847.181 415.333C847.181 413.786 847.755 412.54 848.903 411.447C850.051 410.353 851.398 409.806 852.949 409.806C854.499 409.806 855.82 410.353 856.913 411.447C858.007 412.54 858.553 413.837 858.553 415.333C858.553 416.828 858.007 418.203 856.913 419.297Z" fill="white"/>
<path d="M856.913 407.033C855.82 408.126 854.499 408.673 852.949 408.673C851.398 408.673 850.051 408.126 848.903 407.033C847.755 405.939 847.181 404.615 847.181 403.069C847.181 401.522 847.755 400.276 848.903 399.183C850.051 398.089 851.398 397.542 852.949 397.542C854.499 397.542 855.82 398.089 856.913 399.183C858.007 400.276 858.553 401.573 858.553 403.069C858.553 404.564 858.007 405.939 856.913 407.033Z" fill="white"/>
<path d="M856.913 394.765C855.82 395.859 854.499 396.406 852.949 396.406C851.398 396.406 850.051 395.859 848.903 394.765C847.755 393.672 847.181 392.348 847.181 390.801C847.181 389.255 847.755 388.009 848.903 386.915C850.051 385.822 851.398 385.275 852.949 385.275C854.499 385.275 855.82 385.822 856.913 386.915C858.007 388.009 858.553 389.305 858.553 390.801C858.553 392.297 858.007 393.672 856.913 394.765Z" fill="white"/>
<path d="M856.913 382.503C855.82 383.596 854.499 384.143 852.949 384.143C851.398 384.143 850.051 383.596 848.903 382.503C847.755 381.409 847.181 380.085 847.181 378.539C847.181 376.992 847.755 375.746 848.903 374.653C850.051 373.559 851.398 373.012 852.949 373.012C854.499 373.012 855.82 373.559 856.913 374.653C858.007 375.746 858.553 377.043 858.553 378.539C858.553 380.034 858.007 381.409 856.913 382.503Z" fill="white"/>
<path d="M856.913 370.235C855.82 371.329 854.499 371.876 852.949 371.876C851.398 371.876 850.051 371.329 848.903 370.235C847.755 369.142 847.181 367.818 847.181 366.271C847.181 364.725 847.755 363.479 848.903 362.385C850.051 361.292 851.398 360.745 852.949 360.745C854.499 360.745 855.82 361.292 856.913 362.385C858.007 363.479 858.553 364.775 858.553 366.271C858.553 367.767 858.007 369.142 856.913 370.235Z" fill="white"/>
<path d="M869.177 425.431C868.083 426.525 866.763 427.072 865.212 427.072C863.662 427.072 862.315 426.525 861.166 425.431C860.018 424.338 859.444 423.014 859.444 421.467C859.444 419.921 860.018 418.675 861.166 417.581C862.315 416.488 863.662 415.941 865.212 415.941C866.763 415.941 868.083 416.488 869.177 417.581C870.27 418.675 870.817 419.971 870.817 421.467C870.817 422.963 870.27 424.338 869.177 425.431Z" fill="white"/>
<path d="M869.177 413.165C868.083 414.259 866.763 414.806 865.212 414.806C863.662 414.806 862.315 414.259 861.166 413.165C860.018 412.072 859.444 410.748 859.444 409.201C859.444 407.655 860.018 406.409 861.166 405.315C862.315 404.222 863.662 403.675 865.212 403.675C866.763 403.675 868.083 404.222 869.177 405.315C870.27 406.409 870.817 407.706 870.817 409.201C870.817 410.697 870.27 412.072 869.177 413.165Z" fill="white"/>
<path d="M869.177 400.898C868.083 401.992 866.763 402.538 865.212 402.538C863.662 402.538 862.315 401.992 861.166 400.898C860.018 399.805 859.444 398.481 859.444 396.934C859.444 395.387 860.018 394.142 861.166 393.048C862.315 391.954 863.662 391.408 865.212 391.408C866.763 391.408 868.083 391.954 869.177 393.048C870.27 394.142 870.817 395.438 870.817 396.934C870.817 398.43 870.27 399.805 869.177 400.898Z" fill="white"/>
<path d="M869.177 388.634C868.083 389.728 866.763 390.274 865.212 390.274C863.662 390.274 862.315 389.728 861.166 388.634C860.018 387.54 859.444 386.216 859.444 384.67C859.444 383.123 860.018 381.877 861.166 380.784C862.315 379.69 863.662 379.144 865.212 379.144C866.763 379.144 868.083 379.69 869.177 380.784C870.27 381.877 870.817 383.174 870.817 384.67C870.817 386.166 870.27 387.54 869.177 388.634Z" fill="white"/>
<path d="M869.177 376.367C868.083 377.46 866.763 378.007 865.212 378.007C863.662 378.007 862.315 377.46 861.166 376.367C860.018 375.273 859.444 373.949 859.444 372.402C859.444 370.856 860.018 369.61 861.166 368.516C862.315 367.423 863.662 366.876 865.212 366.876C866.763 366.876 868.083 367.423 869.177 368.516C870.27 369.61 870.817 370.907 870.817 372.402C870.817 373.898 870.27 375.273 869.177 376.367Z" fill="white"/>
<path d="M869.177 364.102C868.083 365.196 866.763 365.743 865.212 365.743C863.662 365.743 862.315 365.196 861.166 364.102C860.018 363.009 859.444 361.685 859.444 360.138C859.444 358.592 860.018 357.346 861.166 356.252C862.315 355.159 863.662 354.612 865.212 354.612C866.763 354.612 868.083 355.159 869.177 356.252C870.27 357.346 870.817 358.643 870.817 360.138C870.817 361.634 870.27 363.009 869.177 364.102Z" fill="white"/>
<path d="M869.177 351.835C868.083 352.929 866.763 353.475 865.212 353.475C863.662 353.475 862.315 352.929 861.166 351.835C860.018 350.741 859.444 349.418 859.444 347.871C859.444 346.324 860.018 345.078 861.166 343.985C862.315 342.891 863.662 342.345 865.212 342.345C866.763 342.345 868.083 342.891 869.177 343.985C870.27 345.078 870.817 346.375 870.817 347.871C870.817 349.367 870.27 350.741 869.177 351.835Z" fill="white"/>
<path d="M869.177 278.24C868.083 279.334 866.763 279.881 865.212 279.881C863.662 279.881 862.315 279.334 861.166 278.24C860.018 277.147 859.444 275.823 859.444 274.276C859.444 272.73 860.018 271.484 861.166 270.39C862.315 269.297 863.662 268.75 865.212 268.75C866.763 268.75 868.083 269.297 869.177 270.39C870.27 271.484 870.817 272.78 870.817 274.276C870.817 275.772 870.27 277.147 869.177 278.24Z" fill="white"/>
<path d="M881.444 431.564C880.35 432.658 879.03 433.204 877.48 433.204C875.929 433.204 874.582 432.658 873.434 431.564C872.285 430.471 871.711 429.147 871.711 427.6C871.711 426.053 872.285 424.808 873.434 423.714C874.582 422.621 875.929 422.074 877.48 422.074C879.03 422.074 880.35 422.621 881.444 423.714C882.537 424.808 883.084 426.104 883.084 427.6C883.084 429.096 882.537 430.471 881.444 431.564Z" fill="white"/>
<path d="M881.444 419.297C880.35 420.39 879.03 420.937 877.48 420.937C875.929 420.937 874.582 420.39 873.434 419.297C872.285 418.203 871.711 416.879 871.711 415.333C871.711 413.786 872.285 412.54 873.434 411.447C874.582 410.353 875.929 409.806 877.48 409.806C879.03 409.806 880.35 410.353 881.444 411.447C882.537 412.54 883.084 413.837 883.084 415.333C883.084 416.828 882.537 418.203 881.444 419.297Z" fill="white"/>
<path d="M881.444 407.033C880.35 408.126 879.03 408.673 877.48 408.673C875.929 408.673 874.582 408.126 873.434 407.033C872.285 405.939 871.711 404.615 871.711 403.069C871.711 401.522 872.285 400.276 873.434 399.183C874.582 398.089 875.929 397.542 877.48 397.542C879.03 397.542 880.35 398.089 881.444 399.183C882.537 400.276 883.084 401.573 883.084 403.069C883.084 404.564 882.537 405.939 881.444 407.033Z" fill="white"/>
<path d="M881.444 394.765C880.35 395.859 879.03 396.406 877.48 396.406C875.929 396.406 874.582 395.859 873.434 394.765C872.285 393.672 871.711 392.348 871.711 390.801C871.711 389.255 872.285 388.009 873.434 386.915C874.582 385.822 875.929 385.275 877.48 385.275C879.03 385.275 880.35 385.822 881.444 386.915C882.537 388.009 883.084 389.305 883.084 390.801C883.084 392.297 882.537 393.672 881.444 394.765Z" fill="white"/>
<path d="M881.444 382.503C880.35 383.596 879.03 384.143 877.48 384.143C875.929 384.143 874.582 383.596 873.434 382.503C872.285 381.409 871.711 380.085 871.711 378.539C871.711 376.992 872.285 375.746 873.434 374.653C874.582 373.559 875.929 373.012 877.48 373.012C879.03 373.012 880.35 373.559 881.444 374.653C882.537 375.746 883.084 377.043 883.084 378.539C883.084 380.034 882.537 381.409 881.444 382.503Z" fill="white"/>
<path d="M881.444 370.235C880.35 371.329 879.03 371.876 877.48 371.876C875.929 371.876 874.582 371.329 873.434 370.235C872.285 369.142 871.711 367.818 871.711 366.271C871.711 364.725 872.285 363.479 873.434 362.385C874.582 361.292 875.929 360.745 877.48 360.745C879.03 360.745 880.35 361.292 881.444 362.385C882.537 363.479 883.084 364.775 883.084 366.271C883.084 367.767 882.537 369.142 881.444 370.235Z" fill="white"/>
<path d="M881.444 357.968C880.35 359.061 879.03 359.608 877.48 359.608C875.929 359.608 874.582 359.061 873.434 357.968C872.285 356.874 871.711 355.55 871.711 354.004C871.711 352.457 872.285 351.211 873.434 350.118C874.582 349.024 875.929 348.477 877.48 348.477C879.03 348.477 880.35 349.024 881.444 350.118C882.537 351.211 883.084 352.508 883.084 354.004C883.084 355.5 882.537 356.874 881.444 357.968Z" fill="white"/>
<path d="M881.444 345.704C880.35 346.797 879.03 347.344 877.48 347.344C875.929 347.344 874.582 346.797 873.434 345.704C872.285 344.61 871.711 343.286 871.711 341.74C871.711 340.193 872.285 338.947 873.434 337.854C874.582 336.76 875.929 336.213 877.48 336.213C879.03 336.213 880.35 336.76 881.444 337.854C882.537 338.947 883.084 340.244 883.084 341.74C883.084 343.235 882.537 344.61 881.444 345.704Z" fill="white"/>
<path d="M881.444 333.436C880.35 334.53 879.03 335.077 877.48 335.077C875.929 335.077 874.582 334.53 873.434 333.436C872.285 332.343 871.711 331.019 871.711 329.472C871.711 327.926 872.285 326.68 873.434 325.586C874.582 324.493 875.929 323.946 877.48 323.946C879.03 323.946 880.35 324.493 881.444 325.586C882.537 326.68 883.084 327.976 883.084 329.472C883.084 330.968 882.537 332.343 881.444 333.436Z" fill="white"/>
<path d="M881.444 321.171C880.35 322.264 879.03 322.811 877.48 322.811C875.929 322.811 874.582 322.264 873.434 321.171C872.285 320.077 871.711 318.753 871.711 317.207C871.711 315.66 872.285 314.414 873.434 313.321C874.582 312.227 875.929 311.68 877.48 311.68C879.03 311.68 880.35 312.227 881.444 313.321C882.537 314.414 883.084 315.711 883.084 317.207C883.084 318.702 882.537 320.077 881.444 321.171Z" fill="white"/>
<path d="M881.444 308.906C880.35 310 879.03 310.547 877.48 310.547C875.929 310.547 874.582 310 873.434 308.906C872.285 307.813 871.711 306.489 871.711 304.942C871.711 303.396 872.285 302.15 873.434 301.056C874.582 299.963 875.929 299.416 877.48 299.416C879.03 299.416 880.35 299.963 881.444 301.056C882.537 302.15 883.084 303.447 883.084 304.942C883.084 306.438 882.537 307.813 881.444 308.906Z" fill="white"/>
<path d="M881.444 284.372C880.35 285.465 879.03 286.012 877.48 286.012C875.929 286.012 874.582 285.465 873.434 284.372C872.285 283.278 871.711 281.954 871.711 280.408C871.711 278.861 872.285 277.615 873.434 276.522C874.582 275.428 875.929 274.881 877.48 274.881C879.03 274.881 880.35 275.428 881.444 276.522C882.537 277.615 883.084 278.912 883.084 280.408C883.084 281.903 882.537 283.278 881.444 284.372Z" fill="white"/>
<path d="M893.711 449.963C892.617 451.056 891.297 451.603 889.747 451.603C888.196 451.603 886.849 451.056 885.701 449.963C884.553 448.869 883.978 447.545 883.978 445.999C883.978 444.452 884.553 443.206 885.701 442.113C886.849 441.019 888.196 440.472 889.747 440.472C891.297 440.472 892.617 441.019 893.711 442.113C894.805 443.206 895.351 444.503 895.351 445.999C895.351 447.495 894.805 448.869 893.711 449.963Z" fill="white"/>
<path d="M893.711 437.695C892.617 438.789 891.297 439.336 889.747 439.336C888.196 439.336 886.849 438.789 885.701 437.695C884.553 436.602 883.978 435.278 883.978 433.731C883.978 432.185 884.553 430.939 885.701 429.845C886.849 428.752 888.196 428.205 889.747 428.205C891.297 428.205 892.617 428.752 893.711 429.845C894.805 430.939 895.351 432.235 895.351 433.731C895.351 435.227 894.805 436.602 893.711 437.695Z" fill="white"/>
<path d="M893.711 425.431C892.617 426.525 891.297 427.072 889.747 427.072C888.196 427.072 886.849 426.525 885.701 425.431C884.553 424.338 883.978 423.014 883.978 421.467C883.978 419.921 884.553 418.675 885.701 417.581C886.849 416.488 888.196 415.941 889.747 415.941C891.297 415.941 892.617 416.488 893.711 417.581C894.805 418.675 895.351 419.971 895.351 421.467C895.351 422.963 894.805 424.338 893.711 425.431Z" fill="white"/>
<path d="M893.711 413.165C892.617 414.259 891.297 414.806 889.747 414.806C888.196 414.806 886.849 414.259 885.701 413.165C884.553 412.072 883.978 410.748 883.978 409.201C883.978 407.655 884.553 406.409 885.701 405.315C886.849 404.222 888.196 403.675 889.747 403.675C891.297 403.675 892.617 404.222 893.711 405.315C894.805 406.409 895.351 407.706 895.351 409.201C895.351 410.697 894.805 412.072 893.711 413.165Z" fill="white"/>
<path d="M893.711 400.898C892.617 401.992 891.297 402.538 889.747 402.538C888.196 402.538 886.849 401.992 885.701 400.898C884.553 399.805 883.978 398.481 883.978 396.934C883.978 395.387 884.553 394.142 885.701 393.048C886.849 391.954 888.196 391.408 889.747 391.408C891.297 391.408 892.617 391.954 893.711 393.048C894.805 394.142 895.351 395.438 895.351 396.934C895.351 398.43 894.805 399.805 893.711 400.898Z" fill="white"/>
<path d="M893.711 388.634C892.617 389.728 891.297 390.274 889.747 390.274C888.196 390.274 886.849 389.728 885.701 388.634C884.553 387.54 883.978 386.216 883.978 384.67C883.978 383.123 884.553 381.877 885.701 380.784C886.849 379.69 888.196 379.144 889.747 379.144C891.297 379.144 892.617 379.69 893.711 380.784C894.805 381.877 895.351 383.174 895.351 384.67C895.351 386.166 894.805 387.54 893.711 388.634Z" fill="white"/>
<path d="M893.711 376.367C892.617 377.46 891.297 378.007 889.747 378.007C888.196 378.007 886.849 377.46 885.701 376.367C884.553 375.273 883.978 373.949 883.978 372.402C883.978 370.856 884.553 369.61 885.701 368.516C886.849 367.423 888.196 366.876 889.747 366.876C891.297 366.876 892.617 367.423 893.711 368.516C894.805 369.61 895.351 370.907 895.351 372.402C895.351 373.898 894.805 375.273 893.711 376.367Z" fill="white"/>
<path d="M893.711 364.102C892.617 365.196 891.297 365.743 889.747 365.743C888.196 365.743 886.849 365.196 885.701 364.102C884.553 363.009 883.978 361.685 883.978 360.138C883.978 358.592 884.553 357.346 885.701 356.252C886.849 355.159 888.196 354.612 889.747 354.612C891.297 354.612 892.617 355.159 893.711 356.252C894.805 357.346 895.351 358.643 895.351 360.138C895.351 361.634 894.805 363.009 893.711 364.102Z" fill="white"/>
<path d="M893.711 351.835C892.617 352.929 891.297 353.475 889.747 353.475C888.196 353.475 886.849 352.929 885.701 351.835C884.553 350.741 883.978 349.418 883.978 347.871C883.978 346.324 884.553 345.078 885.701 343.985C886.849 342.891 888.196 342.345 889.747 342.345C891.297 342.345 892.617 342.891 893.711 343.985C894.805 345.078 895.351 346.375 895.351 347.871C895.351 349.367 894.805 350.741 893.711 351.835Z" fill="white"/>
<path d="M893.711 339.569C892.617 340.663 891.297 341.21 889.747 341.21C888.196 341.21 886.849 340.663 885.701 339.569C884.553 338.476 883.978 337.152 883.978 335.605C883.978 334.059 884.553 332.813 885.701 331.719C886.849 330.626 888.196 330.079 889.747 330.079C891.297 330.079 892.617 330.626 893.711 331.719C894.805 332.813 895.351 334.109 895.351 335.605C895.351 337.101 894.805 338.476 893.711 339.569Z" fill="white"/>
<path d="M893.711 327.305C892.617 328.399 891.297 328.945 889.747 328.945C888.196 328.945 886.849 328.399 885.701 327.305C884.553 326.212 883.978 324.888 883.978 323.341C883.978 321.794 884.553 320.549 885.701 319.455C886.849 318.361 888.196 317.815 889.747 317.815C891.297 317.815 892.617 318.361 893.711 319.455C894.805 320.549 895.351 321.845 895.351 323.341C895.351 324.837 894.805 326.212 893.711 327.305Z" fill="white"/>
<path d="M893.711 315.038C892.617 316.131 891.297 316.678 889.747 316.678C888.196 316.678 886.849 316.131 885.701 315.038C884.553 313.944 883.978 312.62 883.978 311.074C883.978 309.527 884.553 308.281 885.701 307.188C886.849 306.094 888.196 305.547 889.747 305.547C891.297 305.547 892.617 306.094 893.711 307.188C894.805 308.281 895.351 309.578 895.351 311.074C895.351 312.569 894.805 313.944 893.711 315.038Z" fill="white"/>
<path d="M893.711 302.772C892.617 303.866 891.297 304.412 889.747 304.412C888.196 304.412 886.849 303.866 885.701 302.772C884.553 301.678 883.978 300.354 883.978 298.808C883.978 297.261 884.553 296.015 885.701 294.922C886.849 293.828 888.196 293.282 889.747 293.282C891.297 293.282 892.617 293.828 893.711 294.922C894.805 296.015 895.351 297.312 895.351 298.808C895.351 300.304 894.805 301.678 893.711 302.772Z" fill="white"/>
<path d="M893.711 290.508C892.617 291.601 891.297 292.148 889.747 292.148C888.196 292.148 886.849 291.601 885.701 290.508C884.553 289.414 883.978 288.09 883.978 286.544C883.978 284.997 884.553 283.751 885.701 282.658C886.849 281.564 888.196 281.017 889.747 281.017C891.297 281.017 892.617 281.564 893.711 282.658C894.805 283.751 895.351 285.048 895.351 286.544C895.351 288.04 894.805 289.414 893.711 290.508Z" fill="white"/>
<path d="M905.974 456.094C904.881 457.188 903.561 457.734 902.01 457.734C900.46 457.734 899.112 457.188 897.964 456.094C896.816 455.001 896.242 453.677 896.242 452.13C896.242 450.583 896.816 449.337 897.964 448.244C899.112 447.15 900.46 446.604 902.01 446.604C903.561 446.604 904.881 447.15 905.974 448.244C907.068 449.337 907.615 450.634 907.615 452.13C907.615 453.626 907.068 455.001 905.974 456.094Z" fill="white"/>
<path d="M905.974 443.83C904.881 444.923 903.561 445.47 902.01 445.47C900.46 445.47 899.112 444.923 897.964 443.83C896.816 442.736 896.242 441.412 896.242 439.866C896.242 438.319 896.816 437.073 897.964 435.98C899.112 434.886 900.46 434.34 902.01 434.34C903.561 434.34 904.881 434.886 905.974 435.98C907.068 437.073 907.615 438.37 907.615 439.866C907.615 441.362 907.068 442.736 905.974 443.83Z" fill="white"/>
<path d="M905.974 431.564C904.881 432.658 903.561 433.204 902.01 433.204C900.46 433.204 899.112 432.658 897.964 431.564C896.816 430.471 896.242 429.147 896.242 427.6C896.242 426.053 896.816 424.808 897.964 423.714C899.112 422.621 900.46 422.074 902.01 422.074C903.561 422.074 904.881 422.621 905.974 423.714C907.068 424.808 907.615 426.104 907.615 427.6C907.615 429.096 907.068 430.471 905.974 431.564Z" fill="white"/>
<path d="M905.974 419.297C904.881 420.39 903.561 420.937 902.01 420.937C900.46 420.937 899.112 420.39 897.964 419.297C896.816 418.203 896.242 416.879 896.242 415.333C896.242 413.786 896.816 412.54 897.964 411.447C899.112 410.353 900.46 409.806 902.01 409.806C903.561 409.806 904.881 410.353 905.974 411.447C907.068 412.54 907.615 413.837 907.615 415.333C907.615 416.828 907.068 418.203 905.974 419.297Z" fill="white"/>
<path d="M905.974 407.033C904.881 408.126 903.561 408.673 902.01 408.673C900.46 408.673 899.112 408.126 897.964 407.033C896.816 405.939 896.242 404.615 896.242 403.069C896.242 401.522 896.816 400.276 897.964 399.183C899.112 398.089 900.46 397.542 902.01 397.542C903.561 397.542 904.881 398.089 905.974 399.183C907.068 400.276 907.615 401.573 907.615 403.069C907.615 404.564 907.068 405.939 905.974 407.033Z" fill="white"/>
<path d="M905.974 394.765C904.881 395.859 903.561 396.406 902.01 396.406C900.46 396.406 899.112 395.859 897.964 394.765C896.816 393.672 896.242 392.348 896.242 390.801C896.242 389.255 896.816 388.009 897.964 386.915C899.112 385.822 900.46 385.275 902.01 385.275C903.561 385.275 904.881 385.822 905.974 386.915C907.068 388.009 907.615 389.305 907.615 390.801C907.615 392.297 907.068 393.672 905.974 394.765Z" fill="white"/>
<path d="M905.974 382.503C904.881 383.596 903.561 384.143 902.01 384.143C900.46 384.143 899.112 383.596 897.964 382.503C896.816 381.409 896.242 380.085 896.242 378.539C896.242 376.992 896.816 375.746 897.964 374.653C899.112 373.559 900.46 373.012 902.01 373.012C903.561 373.012 904.881 373.559 905.974 374.653C907.068 375.746 907.615 377.043 907.615 378.539C907.615 380.034 907.068 381.409 905.974 382.503Z" fill="white"/>
<path d="M905.974 370.235C904.881 371.329 903.561 371.876 902.01 371.876C900.46 371.876 899.112 371.329 897.964 370.235C896.816 369.142 896.242 367.818 896.242 366.271C896.242 364.725 896.816 363.479 897.964 362.385C899.112 361.292 900.46 360.745 902.01 360.745C903.561 360.745 904.881 361.292 905.974 362.385C907.068 363.479 907.615 364.775 907.615 366.271C907.615 367.767 907.068 369.142 905.974 370.235Z" fill="white"/>
<path d="M905.974 357.968C904.881 359.061 903.561 359.608 902.01 359.608C900.46 359.608 899.112 359.061 897.964 357.968C896.816 356.874 896.242 355.55 896.242 354.004C896.242 352.457 896.816 351.211 897.964 350.118C899.112 349.024 900.46 348.477 902.01 348.477C903.561 348.477 904.881 349.024 905.974 350.118C907.068 351.211 907.615 352.508 907.615 354.004C907.615 355.5 907.068 356.874 905.974 357.968Z" fill="white"/>
<path d="M905.974 345.704C904.881 346.797 903.561 347.344 902.01 347.344C900.46 347.344 899.112 346.797 897.964 345.704C896.816 344.61 896.242 343.286 896.242 341.74C896.242 340.193 896.816 338.947 897.964 337.854C899.112 336.76 900.46 336.213 902.01 336.213C903.561 336.213 904.881 336.76 905.974 337.854C907.068 338.947 907.615 340.244 907.615 341.74C907.615 343.235 907.068 344.61 905.974 345.704Z" fill="white"/>
<path d="M905.974 333.436C904.881 334.53 903.561 335.077 902.01 335.077C900.46 335.077 899.112 334.53 897.964 333.436C896.816 332.343 896.242 331.019 896.242 329.472C896.242 327.926 896.816 326.68 897.964 325.586C899.112 324.493 900.46 323.946 902.01 323.946C903.561 323.946 904.881 324.493 905.974 325.586C907.068 326.68 907.615 327.976 907.615 329.472C907.615 330.968 907.068 332.343 905.974 333.436Z" fill="white"/>
<path d="M905.974 321.171C904.881 322.264 903.561 322.811 902.01 322.811C900.46 322.811 899.112 322.264 897.964 321.171C896.816 320.077 896.242 318.753 896.242 317.207C896.242 315.66 896.816 314.414 897.964 313.321C899.112 312.227 900.46 311.68 902.01 311.68C903.561 311.68 904.881 312.227 905.974 313.321C907.068 314.414 907.615 315.711 907.615 317.207C907.615 318.702 907.068 320.077 905.974 321.171Z" fill="white"/>
<path d="M905.974 308.906C904.881 310 903.561 310.547 902.01 310.547C900.46 310.547 899.112 310 897.964 308.906C896.816 307.813 896.242 306.489 896.242 304.942C896.242 303.396 896.816 302.15 897.964 301.056C899.112 299.963 900.46 299.416 902.01 299.416C903.561 299.416 904.881 299.963 905.974 301.056C907.068 302.15 907.615 303.447 907.615 304.942C907.615 306.438 907.068 307.813 905.974 308.906Z" fill="white"/>
<path d="M905.974 296.639C904.881 297.733 903.561 298.279 902.01 298.279C900.46 298.279 899.112 297.733 897.964 296.639C896.816 295.546 896.242 294.222 896.242 292.675C896.242 291.128 896.816 289.883 897.964 288.789C899.112 287.695 900.46 287.149 902.01 287.149C903.561 287.149 904.881 287.695 905.974 288.789C907.068 289.883 907.615 291.179 907.615 292.675C907.615 294.171 907.068 295.546 905.974 296.639Z" fill="white"/>
<path d="M918.242 449.963C917.148 451.056 915.828 451.603 914.277 451.603C912.727 451.603 911.38 451.056 910.231 449.963C909.083 448.869 908.509 447.545 908.509 445.999C908.509 444.452 909.083 443.206 910.231 442.113C911.38 441.019 912.727 440.472 914.277 440.472C915.828 440.472 917.148 441.019 918.242 442.113C919.335 443.206 919.882 444.503 919.882 445.999C919.882 447.495 919.335 448.869 918.242 449.963Z" fill="white"/>
<path d="M918.242 437.695C917.148 438.789 915.828 439.336 914.277 439.336C912.727 439.336 911.38 438.789 910.231 437.695C909.083 436.602 908.509 435.278 908.509 433.731C908.509 432.185 909.083 430.939 910.231 429.845C911.38 428.752 912.727 428.205 914.277 428.205C915.828 428.205 917.148 428.752 918.242 429.845C919.335 430.939 919.882 432.235 919.882 433.731C919.882 435.227 919.335 436.602 918.242 437.695Z" fill="white"/>
<path d="M918.242 425.431C917.148 426.525 915.828 427.072 914.277 427.072C912.727 427.072 911.38 426.525 910.231 425.431C909.083 424.338 908.509 423.014 908.509 421.467C908.509 419.921 909.083 418.675 910.231 417.581C911.38 416.488 912.727 415.941 914.277 415.941C915.828 415.941 917.148 416.488 918.242 417.581C919.335 418.675 919.882 419.971 919.882 421.467C919.882 422.963 919.335 424.338 918.242 425.431Z" fill="white"/>
<path d="M918.242 413.165C917.148 414.259 915.828 414.806 914.277 414.806C912.727 414.806 911.38 414.259 910.231 413.165C909.083 412.072 908.509 410.748 908.509 409.201C908.509 407.655 909.083 406.409 910.231 405.315C911.38 404.222 912.727 403.675 914.277 403.675C915.828 403.675 917.148 404.222 918.242 405.315C919.335 406.409 919.882 407.706 919.882 409.201C919.882 410.697 919.335 412.072 918.242 413.165Z" fill="white"/>
<path d="M918.242 400.898C917.148 401.992 915.828 402.538 914.277 402.538C912.727 402.538 911.38 401.992 910.231 400.898C909.083 399.805 908.509 398.481 908.509 396.934C908.509 395.387 909.083 394.142 910.231 393.048C911.38 391.954 912.727 391.408 914.277 391.408C915.828 391.408 917.148 391.954 918.242 393.048C919.335 394.142 919.882 395.438 919.882 396.934C919.882 398.43 919.335 399.805 918.242 400.898Z" fill="white"/>
<path d="M918.242 388.634C917.148 389.728 915.828 390.274 914.277 390.274C912.727 390.274 911.38 389.728 910.231 388.634C909.083 387.54 908.509 386.216 908.509 384.67C908.509 383.123 909.083 381.877 910.231 380.784C911.38 379.69 912.727 379.144 914.277 379.144C915.828 379.144 917.148 379.69 918.242 380.784C919.335 381.877 919.882 383.174 919.882 384.67C919.882 386.166 919.335 387.54 918.242 388.634Z" fill="white"/>
<path d="M918.242 376.367C917.148 377.46 915.828 378.007 914.277 378.007C912.727 378.007 911.38 377.46 910.231 376.367C909.083 375.273 908.509 373.949 908.509 372.402C908.509 370.856 909.083 369.61 910.231 368.516C911.38 367.423 912.727 366.876 914.277 366.876C915.828 366.876 917.148 367.423 918.242 368.516C919.335 369.61 919.882 370.907 919.882 372.402C919.882 373.898 919.335 375.273 918.242 376.367Z" fill="white"/>
<path d="M918.242 364.102C917.148 365.196 915.828 365.743 914.277 365.743C912.727 365.743 911.38 365.196 910.231 364.102C909.083 363.009 908.509 361.685 908.509 360.138C908.509 358.592 909.083 357.346 910.231 356.252C911.38 355.159 912.727 354.612 914.277 354.612C915.828 354.612 917.148 355.159 918.242 356.252C919.335 357.346 919.882 358.643 919.882 360.138C919.882 361.634 919.335 363.009 918.242 364.102Z" fill="white"/>
<path d="M918.242 351.835C917.148 352.929 915.828 353.475 914.277 353.475C912.727 353.475 911.38 352.929 910.231 351.835C909.083 350.741 908.509 349.418 908.509 347.871C908.509 346.324 909.083 345.078 910.231 343.985C911.38 342.891 912.727 342.345 914.277 342.345C915.828 342.345 917.148 342.891 918.242 343.985C919.335 345.078 919.882 346.375 919.882 347.871C919.882 349.367 919.335 350.741 918.242 351.835Z" fill="white"/>
<path d="M918.242 339.569C917.148 340.663 915.828 341.21 914.277 341.21C912.727 341.21 911.38 340.663 910.231 339.569C909.083 338.476 908.509 337.152 908.509 335.605C908.509 334.059 909.083 332.813 910.231 331.719C911.38 330.626 912.727 330.079 914.277 330.079C915.828 330.079 917.148 330.626 918.242 331.719C919.335 332.813 919.882 334.109 919.882 335.605C919.882 337.101 919.335 338.476 918.242 339.569Z" fill="white"/>
<path d="M918.242 327.305C917.148 328.399 915.828 328.945 914.277 328.945C912.727 328.945 911.38 328.399 910.231 327.305C909.083 326.212 908.509 324.888 908.509 323.341C908.509 321.794 909.083 320.549 910.231 319.455C911.38 318.361 912.727 317.815 914.277 317.815C915.828 317.815 917.148 318.361 918.242 319.455C919.335 320.549 919.882 321.845 919.882 323.341C919.882 324.837 919.335 326.212 918.242 327.305Z" fill="white"/>
<path d="M918.242 315.038C917.148 316.131 915.828 316.678 914.277 316.678C912.727 316.678 911.38 316.131 910.231 315.038C909.083 313.944 908.509 312.62 908.509 311.074C908.509 309.527 909.083 308.281 910.231 307.188C911.38 306.094 912.727 305.547 914.277 305.547C915.828 305.547 917.148 306.094 918.242 307.188C919.335 308.281 919.882 309.578 919.882 311.074C919.882 312.569 919.335 313.944 918.242 315.038Z" fill="white"/>
<path d="M918.242 302.772C917.148 303.866 915.828 304.412 914.277 304.412C912.727 304.412 911.38 303.866 910.231 302.772C909.083 301.678 908.509 300.354 908.509 298.808C908.509 297.261 909.083 296.015 910.231 294.922C911.38 293.828 912.727 293.282 914.277 293.282C915.828 293.282 917.148 293.828 918.242 294.922C919.335 296.015 919.882 297.312 919.882 298.808C919.882 300.304 919.335 301.678 918.242 302.772Z" fill="white"/>
<path d="M918.242 290.508C917.148 291.601 915.828 292.148 914.277 292.148C912.727 292.148 911.38 291.601 910.231 290.508C909.083 289.414 908.509 288.09 908.509 286.544C908.509 284.997 909.083 283.751 910.231 282.658C911.38 281.564 912.727 281.017 914.277 281.017C915.828 281.017 917.148 281.564 918.242 282.658C919.335 283.751 919.882 285.048 919.882 286.544C919.882 288.04 919.335 289.414 918.242 290.508Z" fill="white"/>
<path d="M930.505 431.564C929.411 432.658 928.091 433.204 926.541 433.204C924.99 433.204 923.643 432.658 922.495 431.564C921.346 430.471 920.772 429.147 920.772 427.6C920.772 426.053 921.346 424.808 922.495 423.714C923.643 422.621 924.99 422.074 926.541 422.074C928.091 422.074 929.411 422.621 930.505 423.714C931.598 424.808 932.145 426.104 932.145 427.6C932.145 429.096 931.598 430.471 930.505 431.564Z" fill="white"/>
<path d="M930.505 419.297C929.411 420.39 928.091 420.937 926.541 420.937C924.99 420.937 923.643 420.39 922.495 419.297C921.346 418.203 920.772 416.879 920.772 415.333C920.772 413.786 921.346 412.54 922.495 411.447C923.643 410.353 924.99 409.806 926.541 409.806C928.091 409.806 929.411 410.353 930.505 411.447C931.598 412.54 932.145 413.837 932.145 415.333C932.145 416.828 931.598 418.203 930.505 419.297Z" fill="white"/>
<path d="M930.505 407.033C929.411 408.126 928.091 408.673 926.541 408.673C924.99 408.673 923.643 408.126 922.495 407.033C921.346 405.939 920.772 404.615 920.772 403.069C920.772 401.522 921.346 400.276 922.495 399.183C923.643 398.089 924.99 397.542 926.541 397.542C928.091 397.542 929.411 398.089 930.505 399.183C931.598 400.276 932.145 401.573 932.145 403.069C932.145 404.564 931.598 405.939 930.505 407.033Z" fill="white"/>
<path d="M930.505 394.765C929.411 395.859 928.091 396.406 926.541 396.406C924.99 396.406 923.643 395.859 922.495 394.765C921.346 393.672 920.772 392.348 920.772 390.801C920.772 389.255 921.346 388.009 922.495 386.915C923.643 385.822 924.99 385.275 926.541 385.275C928.091 385.275 929.411 385.822 930.505 386.915C931.598 388.009 932.145 389.305 932.145 390.801C932.145 392.297 931.598 393.672 930.505 394.765Z" fill="white"/>
<path d="M930.505 382.503C929.411 383.596 928.091 384.143 926.541 384.143C924.99 384.143 923.643 383.596 922.495 382.503C921.346 381.409 920.772 380.085 920.772 378.539C920.772 376.992 921.346 375.746 922.495 374.653C923.643 373.559 924.99 373.012 926.541 373.012C928.091 373.012 929.411 373.559 930.505 374.653C931.598 375.746 932.145 377.043 932.145 378.539C932.145 380.034 931.598 381.409 930.505 382.503Z" fill="white"/>
<path d="M930.505 370.235C929.411 371.329 928.091 371.876 926.541 371.876C924.99 371.876 923.643 371.329 922.495 370.235C921.346 369.142 920.772 367.818 920.772 366.271C920.772 364.725 921.346 363.479 922.495 362.385C923.643 361.292 924.99 360.745 926.541 360.745C928.091 360.745 929.411 361.292 930.505 362.385C931.598 363.479 932.145 364.775 932.145 366.271C932.145 367.767 931.598 369.142 930.505 370.235Z" fill="white"/>
<path d="M930.505 357.968C929.411 359.061 928.091 359.608 926.541 359.608C924.99 359.608 923.643 359.061 922.495 357.968C921.346 356.874 920.772 355.55 920.772 354.004C920.772 352.457 921.346 351.211 922.495 350.118C923.643 349.024 924.99 348.477 926.541 348.477C928.091 348.477 929.411 349.024 930.505 350.118C931.598 351.211 932.145 352.508 932.145 354.004C932.145 355.5 931.598 356.874 930.505 357.968Z" fill="white"/>
<path d="M930.505 345.704C929.411 346.797 928.091 347.344 926.541 347.344C924.99 347.344 923.643 346.797 922.495 345.704C921.346 344.61 920.772 343.286 920.772 341.74C920.772 340.193 921.346 338.947 922.495 337.854C923.643 336.76 924.99 336.213 926.541 336.213C928.091 336.213 929.411 336.76 930.505 337.854C931.598 338.947 932.145 340.244 932.145 341.74C932.145 343.235 931.598 344.61 930.505 345.704Z" fill="white"/>
<path d="M930.505 333.436C929.411 334.53 928.091 335.077 926.541 335.077C924.99 335.077 923.643 334.53 922.495 333.436C921.346 332.343 920.772 331.019 920.772 329.472C920.772 327.926 921.346 326.68 922.495 325.586C923.643 324.493 924.99 323.946 926.541 323.946C928.091 323.946 929.411 324.493 930.505 325.586C931.598 326.68 932.145 327.976 932.145 329.472C932.145 330.968 931.598 332.343 930.505 333.436Z" fill="white"/>
<path d="M930.505 321.171C929.411 322.264 928.091 322.811 926.541 322.811C924.99 322.811 923.643 322.264 922.495 321.171C921.346 320.077 920.772 318.753 920.772 317.207C920.772 315.66 921.346 314.414 922.495 313.321C923.643 312.227 924.99 311.68 926.541 311.68C928.091 311.68 929.411 312.227 930.505 313.321C931.598 314.414 932.145 315.711 932.145 317.207C932.145 318.702 931.598 320.077 930.505 321.171Z" fill="white"/>
<path d="M930.505 308.906C929.411 310 928.091 310.547 926.541 310.547C924.99 310.547 923.643 310 922.495 308.906C921.346 307.813 920.772 306.489 920.772 304.942C920.772 303.396 921.346 302.15 922.495 301.056C923.643 299.963 924.99 299.416 926.541 299.416C928.091 299.416 929.411 299.963 930.505 301.056C931.598 302.15 932.145 303.447 932.145 304.942C932.145 306.438 931.598 307.813 930.505 308.906Z" fill="white"/>
<path d="M930.505 284.372C929.411 285.465 928.091 286.012 926.541 286.012C924.99 286.012 923.643 285.465 922.495 284.372C921.346 283.278 920.772 281.954 920.772 280.408C920.772 278.861 921.346 277.615 922.495 276.522C923.643 275.428 924.99 274.881 926.541 274.881C928.091 274.881 929.411 275.428 930.505 276.522C931.598 277.615 932.145 278.912 932.145 280.408C932.145 281.903 931.598 283.278 930.505 284.372Z" fill="white"/>
<path d="M942.772 425.431C941.679 426.525 940.359 427.072 938.808 427.072C937.258 427.072 935.91 426.525 934.762 425.431C933.614 424.338 933.04 423.014 933.04 421.467C933.04 419.921 933.614 418.675 934.762 417.581C935.91 416.488 937.258 415.941 938.808 415.941C940.359 415.941 941.679 416.488 942.772 417.581C943.866 418.675 944.413 419.971 944.413 421.467C944.413 422.963 943.866 424.338 942.772 425.431Z" fill="white"/>
<path d="M942.772 413.165C941.679 414.259 940.359 414.806 938.808 414.806C937.258 414.806 935.91 414.259 934.762 413.165C933.614 412.072 933.04 410.748 933.04 409.201C933.04 407.655 933.614 406.409 934.762 405.315C935.91 404.222 937.258 403.675 938.808 403.675C940.359 403.675 941.679 404.222 942.772 405.315C943.866 406.409 944.413 407.706 944.413 409.201C944.413 410.697 943.866 412.072 942.772 413.165Z" fill="white"/>
<path d="M942.772 400.898C941.679 401.992 940.359 402.538 938.808 402.538C937.258 402.538 935.91 401.992 934.762 400.898C933.614 399.805 933.04 398.481 933.04 396.934C933.04 395.387 933.614 394.142 934.762 393.048C935.91 391.954 937.258 391.408 938.808 391.408C940.359 391.408 941.679 391.954 942.772 393.048C943.866 394.142 944.413 395.438 944.413 396.934C944.413 398.43 943.866 399.805 942.772 400.898Z" fill="white"/>
<path d="M942.772 388.634C941.679 389.728 940.359 390.274 938.808 390.274C937.258 390.274 935.91 389.728 934.762 388.634C933.614 387.54 933.04 386.216 933.04 384.67C933.04 383.123 933.614 381.877 934.762 380.784C935.91 379.69 937.258 379.144 938.808 379.144C940.359 379.144 941.679 379.69 942.772 380.784C943.866 381.877 944.413 383.174 944.413 384.67C944.413 386.166 943.866 387.54 942.772 388.634Z" fill="white"/>
<path d="M942.772 376.367C941.679 377.46 940.359 378.007 938.808 378.007C937.258 378.007 935.91 377.46 934.762 376.367C933.614 375.273 933.04 373.949 933.04 372.402C933.04 370.856 933.614 369.61 934.762 368.516C935.91 367.423 937.258 366.876 938.808 366.876C940.359 366.876 941.679 367.423 942.772 368.516C943.866 369.61 944.413 370.907 944.413 372.402C944.413 373.898 943.866 375.273 942.772 376.367Z" fill="white"/>
<path d="M942.772 364.102C941.679 365.196 940.359 365.743 938.808 365.743C937.258 365.743 935.91 365.196 934.762 364.102C933.614 363.009 933.04 361.685 933.04 360.138C933.04 358.592 933.614 357.346 934.762 356.252C935.91 355.159 937.258 354.612 938.808 354.612C940.359 354.612 941.679 355.159 942.772 356.252C943.866 357.346 944.413 358.643 944.413 360.138C944.413 361.634 943.866 363.009 942.772 364.102Z" fill="white"/>
<path d="M942.772 351.835C941.679 352.929 940.359 353.475 938.808 353.475C937.258 353.475 935.91 352.929 934.762 351.835C933.614 350.741 933.04 349.418 933.04 347.871C933.04 346.324 933.614 345.078 934.762 343.985C935.91 342.891 937.258 342.345 938.808 342.345C940.359 342.345 941.679 342.891 942.772 343.985C943.866 345.078 944.413 346.375 944.413 347.871C944.413 349.367 943.866 350.741 942.772 351.835Z" fill="white"/>
<path d="M942.772 278.24C941.679 279.334 940.359 279.881 938.808 279.881C937.258 279.881 935.91 279.334 934.762 278.24C933.614 277.147 933.04 275.823 933.04 274.276C933.04 272.73 933.614 271.484 934.762 270.39C935.91 269.297 937.258 268.75 938.808 268.75C940.359 268.75 941.679 269.297 942.772 270.39C943.866 271.484 944.413 272.78 944.413 274.276C944.413 275.772 943.866 277.147 942.772 278.24Z" fill="white"/>
<path d="M955.039 443.83C953.946 444.923 952.626 445.47 951.075 445.47C949.525 445.47 948.177 444.923 947.029 443.83C945.881 442.736 945.307 441.412 945.307 439.866C945.307 438.319 945.881 437.073 947.029 435.98C948.177 434.886 949.525 434.34 951.075 434.34C952.626 434.34 953.946 434.886 955.039 435.98C956.133 437.073 956.68 438.37 956.68 439.866C956.68 441.362 956.133 442.736 955.039 443.83Z" fill="white"/>
<path d="M955.039 431.564C953.946 432.658 952.626 433.204 951.075 433.204C949.525 433.204 948.177 432.658 947.029 431.564C945.881 430.471 945.307 429.147 945.307 427.6C945.307 426.053 945.881 424.808 947.029 423.714C948.177 422.621 949.525 422.074 951.075 422.074C952.626 422.074 953.946 422.621 955.039 423.714C956.133 424.808 956.68 426.104 956.68 427.6C956.68 429.096 956.133 430.471 955.039 431.564Z" fill="white"/>
<path d="M955.039 419.297C953.946 420.39 952.626 420.937 951.075 420.937C949.525 420.937 948.177 420.39 947.029 419.297C945.881 418.203 945.307 416.879 945.307 415.333C945.307 413.786 945.881 412.54 947.029 411.447C948.177 410.353 949.525 409.806 951.075 409.806C952.626 409.806 953.946 410.353 955.039 411.447C956.133 412.54 956.68 413.837 956.68 415.333C956.68 416.828 956.133 418.203 955.039 419.297Z" fill="white"/>
<path d="M955.039 407.033C953.946 408.126 952.626 408.673 951.075 408.673C949.525 408.673 948.177 408.126 947.029 407.033C945.881 405.939 945.307 404.615 945.307 403.069C945.307 401.522 945.881 400.276 947.029 399.183C948.177 398.089 949.525 397.542 951.075 397.542C952.626 397.542 953.946 398.089 955.039 399.183C956.133 400.276 956.68 401.573 956.68 403.069C956.68 404.564 956.133 405.939 955.039 407.033Z" fill="white"/>
<path d="M955.039 394.765C953.946 395.859 952.626 396.406 951.075 396.406C949.525 396.406 948.177 395.859 947.029 394.765C945.881 393.672 945.307 392.348 945.307 390.801C945.307 389.255 945.881 388.009 947.029 386.915C948.177 385.822 949.525 385.275 951.075 385.275C952.626 385.275 953.946 385.822 955.039 386.915C956.133 388.009 956.68 389.305 956.68 390.801C956.68 392.297 956.133 393.672 955.039 394.765Z" fill="white"/>
<path d="M955.039 382.503C953.946 383.596 952.626 384.143 951.075 384.143C949.525 384.143 948.177 383.596 947.029 382.503C945.881 381.409 945.307 380.085 945.307 378.539C945.307 376.992 945.881 375.746 947.029 374.653C948.177 373.559 949.525 373.012 951.075 373.012C952.626 373.012 953.946 373.559 955.039 374.653C956.133 375.746 956.68 377.043 956.68 378.539C956.68 380.034 956.133 381.409 955.039 382.503Z" fill="white"/>
<path d="M955.039 370.235C953.946 371.329 952.626 371.876 951.075 371.876C949.525 371.876 948.177 371.329 947.029 370.235C945.881 369.142 945.307 367.818 945.307 366.271C945.307 364.725 945.881 363.479 947.029 362.385C948.177 361.292 949.525 360.745 951.075 360.745C952.626 360.745 953.946 361.292 955.039 362.385C956.133 363.479 956.68 364.775 956.68 366.271C956.68 367.767 956.133 369.142 955.039 370.235Z" fill="white"/>
<path d="M967.303 449.963C966.209 451.056 964.889 451.603 963.339 451.603C961.788 451.603 960.441 451.056 959.293 449.963C958.144 448.869 957.57 447.545 957.57 445.999C957.57 444.452 958.144 443.206 959.293 442.113C960.441 441.019 961.788 440.472 963.339 440.472C964.889 440.472 966.209 441.019 967.303 442.113C968.396 443.206 968.943 444.503 968.943 445.999C968.943 447.495 968.396 448.869 967.303 449.963Z" fill="white"/>
<path d="M967.303 437.695C966.209 438.789 964.889 439.336 963.339 439.336C961.788 439.336 960.441 438.789 959.293 437.695C958.144 436.602 957.57 435.278 957.57 433.731C957.57 432.185 958.144 430.939 959.293 429.845C960.441 428.752 961.788 428.205 963.339 428.205C964.889 428.205 966.209 428.752 967.303 429.845C968.396 430.939 968.943 432.235 968.943 433.731C968.943 435.227 968.396 436.602 967.303 437.695Z" fill="white"/>
<path d="M967.303 425.431C966.209 426.525 964.889 427.072 963.339 427.072C961.788 427.072 960.441 426.525 959.293 425.431C958.144 424.338 957.57 423.014 957.57 421.467C957.57 419.921 958.144 418.675 959.293 417.581C960.441 416.488 961.788 415.941 963.339 415.941C964.889 415.941 966.209 416.488 967.303 417.581C968.396 418.675 968.943 419.971 968.943 421.467C968.943 422.963 968.396 424.338 967.303 425.431Z" fill="white"/>
<path d="M967.303 413.165C966.209 414.259 964.889 414.806 963.339 414.806C961.788 414.806 960.441 414.259 959.293 413.165C958.144 412.072 957.57 410.748 957.57 409.201C957.57 407.655 958.144 406.409 959.293 405.315C960.441 404.222 961.788 403.675 963.339 403.675C964.889 403.675 966.209 404.222 967.303 405.315C968.396 406.409 968.943 407.706 968.943 409.201C968.943 410.697 968.396 412.072 967.303 413.165Z" fill="white"/>
<path d="M967.303 400.898C966.209 401.992 964.889 402.538 963.339 402.538C961.788 402.538 960.441 401.992 959.293 400.898C958.144 399.805 957.57 398.481 957.57 396.934C957.57 395.387 958.144 394.142 959.293 393.048C960.441 391.954 961.788 391.408 963.339 391.408C964.889 391.408 966.209 391.954 967.303 393.048C968.396 394.142 968.943 395.438 968.943 396.934C968.943 398.43 968.396 399.805 967.303 400.898Z" fill="white"/>
<path d="M967.303 388.634C966.209 389.728 964.889 390.274 963.339 390.274C961.788 390.274 960.441 389.728 959.293 388.634C958.144 387.54 957.57 386.216 957.57 384.67C957.57 383.123 958.144 381.877 959.293 380.784C960.441 379.69 961.788 379.144 963.339 379.144C964.889 379.144 966.209 379.69 967.303 380.784C968.396 381.877 968.943 383.174 968.943 384.67C968.943 386.166 968.396 387.54 967.303 388.634Z" fill="white"/>
<path d="M979.57 443.83C978.476 444.923 977.156 445.47 975.606 445.47C974.055 445.47 972.708 444.923 971.56 443.83C970.411 442.736 969.837 441.412 969.837 439.866C969.837 438.319 970.411 437.073 971.56 435.98C972.708 434.886 974.055 434.34 975.606 434.34C977.156 434.34 978.476 434.886 979.57 435.98C980.663 437.073 981.21 438.37 981.21 439.866C981.21 441.362 980.663 442.736 979.57 443.83Z" fill="white"/>
<path d="M979.57 431.564C978.476 432.658 977.156 433.204 975.606 433.204C974.055 433.204 972.708 432.658 971.56 431.564C970.411 430.471 969.837 429.147 969.837 427.6C969.837 426.053 970.411 424.808 971.56 423.714C972.708 422.621 974.055 422.074 975.606 422.074C977.156 422.074 978.476 422.621 979.57 423.714C980.663 424.808 981.21 426.104 981.21 427.6C981.21 429.096 980.663 430.471 979.57 431.564Z" fill="white"/>
<path d="M979.57 419.297C978.476 420.39 977.156 420.937 975.606 420.937C974.055 420.937 972.708 420.39 971.56 419.297C970.411 418.203 969.837 416.879 969.837 415.333C969.837 413.786 970.411 412.54 971.56 411.447C972.708 410.353 974.055 409.806 975.606 409.806C977.156 409.806 978.476 410.353 979.57 411.447C980.663 412.54 981.21 413.837 981.21 415.333C981.21 416.828 980.663 418.203 979.57 419.297Z" fill="white"/>
<path d="M979.57 407.033C978.476 408.126 977.156 408.673 975.606 408.673C974.055 408.673 972.708 408.126 971.56 407.033C970.411 405.939 969.837 404.615 969.837 403.069C969.837 401.522 970.411 400.276 971.56 399.183C972.708 398.089 974.055 397.542 975.606 397.542C977.156 397.542 978.476 398.089 979.57 399.183C980.663 400.276 981.21 401.573 981.21 403.069C981.21 404.564 980.663 405.939 979.57 407.033Z" fill="white"/>
<path d="M991.837 437.695C990.744 438.789 989.424 439.336 987.873 439.336C986.323 439.336 984.975 438.789 983.827 437.695C982.679 436.602 982.105 435.278 982.105 433.731C982.105 432.185 982.679 430.939 983.827 429.845C984.975 428.752 986.323 428.205 987.873 428.205C989.424 428.205 990.744 428.752 991.837 429.845C992.931 430.939 993.477 432.235 993.477 433.731C993.477 435.227 992.931 436.602 991.837 437.695Z" fill="white"/>
<path d="M991.837 425.431C990.744 426.525 989.424 427.072 987.873 427.072C986.323 427.072 984.975 426.525 983.827 425.431C982.679 424.338 982.105 423.014 982.105 421.467C982.105 419.921 982.679 418.675 983.827 417.581C984.975 416.488 986.323 415.941 987.873 415.941C989.424 415.941 990.744 416.488 991.837 417.581C992.931 418.675 993.477 419.971 993.477 421.467C993.477 422.963 992.931 424.338 991.837 425.431Z" fill="white"/>
</svg>
