<svg width="647" height="351" viewBox="0 0 647 351" fill="none" xmlns="http://www.w3.org/2000/svg">
<g clip-path="url(#clip0_1779_62681)">
<rect width="646" height="350" transform="translate(0.476562 0.5)" fill="white"/>
<g clip-path="url(#clip1_1779_62681)">
<rect width="646" height="350" transform="translate(0.476562 1)" fill="url(#paint0_linear_1779_62681)"/>
<path d="M278.782 216.67C278.184 217.268 277.463 217.566 276.616 217.566C275.769 217.566 275.033 217.268 274.406 216.67C273.778 216.073 273.465 215.35 273.465 214.505C273.465 213.66 273.778 212.979 274.406 212.382C275.033 211.784 275.769 211.486 276.616 211.486C277.463 211.486 278.184 211.784 278.782 212.382C279.379 212.979 279.678 213.688 279.678 214.505C279.678 215.322 279.379 216.073 278.782 216.67Z" fill="#FFD89E"/>
<path d="M278.782 209.97C278.184 210.568 277.463 210.867 276.616 210.867C275.769 210.867 275.033 210.568 274.406 209.97C273.778 209.373 273.465 208.65 273.465 207.805C273.465 206.96 273.778 206.279 274.406 205.682C275.033 205.085 275.769 204.786 276.616 204.786C277.463 204.786 278.184 205.085 278.782 205.682C279.379 206.279 279.678 206.988 279.678 207.805C279.678 208.622 279.379 209.373 278.782 209.97Z" fill="#FFD89E"/>
<path d="M285.481 220.021C284.884 220.619 284.162 220.918 283.315 220.918C282.468 220.918 281.732 220.619 281.105 220.021C280.478 219.424 280.164 218.701 280.164 217.856C280.164 217.011 280.478 216.33 281.105 215.733C281.732 215.136 282.468 214.837 283.315 214.837C284.162 214.837 284.884 215.136 285.481 215.733C286.078 216.33 286.377 217.039 286.377 217.856C286.377 218.673 286.078 219.424 285.481 220.021Z" fill="#FFD89E"/>
<path d="M285.481 213.321C284.884 213.918 284.162 214.217 283.315 214.217C282.468 214.217 281.732 213.918 281.105 213.321C280.478 212.723 280.164 212 280.164 211.155C280.164 210.31 280.478 209.63 281.105 209.032C281.732 208.435 282.468 208.136 283.315 208.136C284.162 208.136 284.884 208.435 285.481 209.032C286.078 209.63 286.377 210.338 286.377 211.155C286.377 211.972 286.078 212.723 285.481 213.321Z" fill="#FFD89E"/>
<path d="M285.481 206.619C284.884 207.217 284.162 207.515 283.315 207.515C282.468 207.515 281.732 207.217 281.105 206.619C280.478 206.022 280.164 205.299 280.164 204.454C280.164 203.609 280.478 202.928 281.105 202.331C281.732 201.733 282.468 201.435 283.315 201.435C284.162 201.435 284.884 201.733 285.481 202.331C286.078 202.928 286.377 203.637 286.377 204.454C286.377 205.271 286.078 206.022 285.481 206.619Z" fill="#FFD89E"/>
<path d="M285.481 199.919C284.884 200.517 284.162 200.816 283.315 200.816C282.468 200.816 281.732 200.517 281.105 199.919C280.478 199.322 280.164 198.599 280.164 197.754C280.164 196.909 280.478 196.228 281.105 195.631C281.732 195.034 282.468 194.735 283.315 194.735C284.162 194.735 284.884 195.034 285.481 195.631C286.078 196.228 286.377 196.937 286.377 197.754C286.377 198.571 286.078 199.322 285.481 199.919Z" fill="#FFD89E"/>
<path d="M292.182 223.372C291.585 223.969 290.864 224.268 290.017 224.268C289.17 224.268 288.434 223.969 287.807 223.372C287.179 222.774 286.866 222.051 286.866 221.206C286.866 220.361 287.179 219.681 287.807 219.083C288.434 218.486 289.17 218.187 290.017 218.187C290.864 218.187 291.585 218.486 292.182 219.083C292.78 219.681 293.079 220.389 293.079 221.206C293.079 222.023 292.78 222.774 292.182 223.372Z" fill="#FFD89E"/>
<path d="M292.182 216.67C291.585 217.268 290.864 217.566 290.017 217.566C289.17 217.566 288.434 217.268 287.807 216.67C287.179 216.073 286.866 215.35 286.866 214.505C286.866 213.66 287.179 212.979 287.807 212.382C288.434 211.784 289.17 211.486 290.017 211.486C290.864 211.486 291.585 211.784 292.182 212.382C292.78 212.979 293.079 213.688 293.079 214.505C293.079 215.322 292.78 216.073 292.182 216.67Z" fill="#FFD89E"/>
<path d="M292.182 209.97C291.585 210.568 290.864 210.867 290.017 210.867C289.17 210.867 288.434 210.568 287.807 209.97C287.179 209.373 286.866 208.65 286.866 207.805C286.866 206.96 287.179 206.279 287.807 205.682C288.434 205.085 289.17 204.786 290.017 204.786C290.864 204.786 291.585 205.085 292.182 205.682C292.78 206.279 293.079 206.988 293.079 207.805C293.079 208.622 292.78 209.373 292.182 209.97Z" fill="#FFD89E"/>
<path d="M292.182 203.27C291.585 203.867 290.864 204.166 290.017 204.166C289.17 204.166 288.434 203.867 287.807 203.27C287.179 202.672 286.866 201.949 286.866 201.104C286.866 200.259 287.179 199.579 287.807 198.981C288.434 198.384 289.17 198.085 290.017 198.085C290.864 198.085 291.585 198.384 292.182 198.981C292.78 199.579 293.079 200.287 293.079 201.104C293.079 201.921 292.78 202.672 292.182 203.27Z" fill="#FFD89E"/>
<path d="M292.182 196.568C291.585 197.166 290.864 197.464 290.017 197.464C289.17 197.464 288.434 197.166 287.807 196.568C287.179 195.971 286.866 195.248 286.866 194.403C286.866 193.558 287.179 192.877 287.807 192.28C288.434 191.682 289.17 191.384 290.017 191.384C290.864 191.384 291.585 191.682 292.182 192.28C292.78 192.877 293.079 193.586 293.079 194.403C293.079 195.22 292.78 195.971 292.182 196.568Z" fill="#FFD89E"/>
<path d="M292.182 189.868C291.585 190.466 290.864 190.765 290.017 190.765C289.17 190.765 288.434 190.466 287.807 189.868C287.179 189.271 286.866 188.548 286.866 187.703C286.866 186.858 287.179 186.177 287.807 185.58C288.434 184.983 289.17 184.684 290.017 184.684C290.864 184.684 291.585 184.983 292.182 185.58C292.78 186.177 293.079 186.886 293.079 187.703C293.079 188.52 292.78 189.271 292.182 189.868Z" fill="#FFD89E"/>
<path d="M298.884 220.021C298.287 220.619 297.565 220.918 296.718 220.918C295.871 220.918 295.135 220.619 294.508 220.021C293.881 219.424 293.567 218.701 293.567 217.856C293.567 217.011 293.881 216.33 294.508 215.733C295.135 215.136 295.871 214.837 296.718 214.837C297.565 214.837 298.287 215.136 298.884 215.733C299.481 216.33 299.78 217.039 299.78 217.856C299.78 218.673 299.481 219.424 298.884 220.021Z" fill="#FFD89E"/>
<path d="M298.884 213.321C298.287 213.918 297.565 214.217 296.718 214.217C295.871 214.217 295.135 213.918 294.508 213.321C293.881 212.723 293.567 212 293.567 211.155C293.567 210.31 293.881 209.63 294.508 209.032C295.135 208.435 295.871 208.136 296.718 208.136C297.565 208.136 298.287 208.435 298.884 209.032C299.481 209.63 299.78 210.338 299.78 211.155C299.78 211.972 299.481 212.723 298.884 213.321Z" fill="#FFD89E"/>
<path d="M298.884 206.619C298.287 207.217 297.565 207.515 296.718 207.515C295.871 207.515 295.135 207.217 294.508 206.619C293.881 206.022 293.567 205.299 293.567 204.454C293.567 203.609 293.881 202.928 294.508 202.331C295.135 201.733 295.871 201.435 296.718 201.435C297.565 201.435 298.287 201.733 298.884 202.331C299.481 202.928 299.78 203.637 299.78 204.454C299.78 205.271 299.481 206.022 298.884 206.619Z" fill="#FFD89E"/>
<path d="M298.884 199.919C298.287 200.517 297.565 200.816 296.718 200.816C295.871 200.816 295.135 200.517 294.508 199.919C293.881 199.322 293.567 198.599 293.567 197.754C293.567 196.909 293.881 196.228 294.508 195.631C295.135 195.034 295.871 194.735 296.718 194.735C297.565 194.735 298.287 195.034 298.884 195.631C299.481 196.228 299.78 196.937 299.78 197.754C299.78 198.571 299.481 199.322 298.884 199.919Z" fill="#FFD89E"/>
<path d="M298.884 193.218C298.287 193.815 297.565 194.114 296.718 194.114C295.871 194.114 295.135 193.815 294.508 193.218C293.881 192.621 293.567 191.897 293.567 191.052C293.567 190.207 293.881 189.527 294.508 188.929C295.135 188.332 295.871 188.033 296.718 188.033C297.565 188.033 298.287 188.332 298.884 188.929C299.481 189.527 299.78 190.235 299.78 191.052C299.78 191.869 299.481 192.621 298.884 193.218Z" fill="#FFD89E"/>
<path d="M298.884 186.519C298.287 187.116 297.565 187.415 296.718 187.415C295.871 187.415 295.135 187.116 294.508 186.519C293.881 185.922 293.567 185.198 293.567 184.353C293.567 183.509 293.881 182.828 294.508 182.231C295.135 181.633 295.871 181.334 296.718 181.334C297.565 181.334 298.287 181.633 298.884 182.231C299.481 182.828 299.78 183.536 299.78 184.353C299.78 185.171 299.481 185.922 298.884 186.519Z" fill="#FFD89E"/>
<path d="M298.884 179.817C298.287 180.415 297.565 180.714 296.718 180.714C295.871 180.714 295.135 180.415 294.508 179.817C293.881 179.22 293.567 178.497 293.567 177.652C293.567 176.807 293.881 176.126 294.508 175.529C295.135 174.932 295.871 174.633 296.718 174.633C297.565 174.633 298.287 174.932 298.884 175.529C299.481 176.126 299.78 176.835 299.78 177.652C299.78 178.469 299.481 179.22 298.884 179.817Z" fill="#FFD89E"/>
<path d="M305.583 209.97C304.986 210.568 304.265 210.867 303.418 210.867C302.571 210.867 301.835 210.568 301.207 209.97C300.58 209.373 300.267 208.65 300.267 207.805C300.267 206.96 300.58 206.279 301.207 205.682C301.835 205.085 302.571 204.786 303.418 204.786C304.265 204.786 304.986 205.085 305.583 205.682C306.181 206.279 306.479 206.988 306.479 207.805C306.479 208.622 306.181 209.373 305.583 209.97Z" fill="#FFD89E"/>
<path d="M305.583 203.27C304.986 203.867 304.265 204.166 303.418 204.166C302.571 204.166 301.835 203.867 301.207 203.27C300.58 202.672 300.267 201.949 300.267 201.104C300.267 200.259 300.58 199.579 301.207 198.981C301.835 198.384 302.571 198.085 303.418 198.085C304.265 198.085 304.986 198.384 305.583 198.981C306.181 199.579 306.479 200.287 306.479 201.104C306.479 201.921 306.181 202.672 305.583 203.27Z" fill="#FFD89E"/>
<path d="M305.583 196.568C304.986 197.166 304.265 197.464 303.418 197.464C302.571 197.464 301.835 197.166 301.207 196.568C300.58 195.971 300.267 195.248 300.267 194.403C300.267 193.558 300.58 192.877 301.207 192.28C301.835 191.682 302.571 191.384 303.418 191.384C304.265 191.384 304.986 191.682 305.583 192.28C306.181 192.877 306.479 193.586 306.479 194.403C306.479 195.22 306.181 195.971 305.583 196.568Z" fill="#FFD89E"/>
<path d="M305.583 189.868C304.986 190.466 304.265 190.765 303.418 190.765C302.571 190.765 301.835 190.466 301.207 189.868C300.58 189.271 300.267 188.548 300.267 187.703C300.267 186.858 300.58 186.177 301.207 185.58C301.835 184.983 302.571 184.684 303.418 184.684C304.265 184.684 304.986 184.983 305.583 185.58C306.181 186.177 306.479 186.886 306.479 187.703C306.479 188.52 306.181 189.271 305.583 189.868Z" fill="#FFD89E"/>
<path d="M305.583 183.167C304.986 183.764 304.265 184.063 303.418 184.063C302.571 184.063 301.835 183.764 301.207 183.167C300.58 182.569 300.267 181.846 300.267 181.001C300.267 180.156 300.58 179.476 301.207 178.878C301.835 178.281 302.571 177.982 303.418 177.982C304.265 177.982 304.986 178.281 305.583 178.878C306.181 179.476 306.479 180.184 306.479 181.001C306.479 181.818 306.181 182.569 305.583 183.167Z" fill="#FFD89E"/>
<path d="M305.583 176.467C304.986 177.064 304.265 177.363 303.418 177.363C302.571 177.363 301.835 177.064 301.207 176.467C300.58 175.87 300.267 175.146 300.267 174.302C300.267 173.457 300.58 172.776 301.207 172.179C301.835 171.581 302.571 171.283 303.418 171.283C304.265 171.283 304.986 171.581 305.583 172.179C306.181 172.776 306.479 173.484 306.479 174.302C306.479 175.119 306.181 175.87 305.583 176.467Z" fill="#FFD89E"/>
<path d="M305.583 169.766C304.986 170.363 304.265 170.662 303.418 170.662C302.571 170.662 301.835 170.363 301.207 169.766C300.58 169.168 300.267 168.445 300.267 167.6C300.267 166.755 300.58 166.074 301.207 165.477C301.835 164.88 302.571 164.581 303.418 164.581C304.265 164.581 304.986 164.88 305.583 165.477C306.181 166.074 306.479 166.783 306.479 167.6C306.479 168.417 306.181 169.168 305.583 169.766Z" fill="#FFD89E"/>
<path d="M305.583 129.561C304.986 130.159 304.265 130.458 303.418 130.458C302.571 130.458 301.835 130.159 301.207 129.561C300.58 128.964 300.267 128.241 300.267 127.396C300.267 126.551 300.58 125.87 301.207 125.273C301.835 124.676 302.571 124.377 303.418 124.377C304.265 124.377 304.986 124.676 305.583 125.273C306.181 125.87 306.479 126.579 306.479 127.396C306.479 128.213 306.181 128.964 305.583 129.561Z" fill="#FFD89E"/>
<path d="M312.285 213.321C311.687 213.918 310.966 214.217 310.119 214.217C309.272 214.217 308.536 213.918 307.909 213.321C307.282 212.723 306.968 212 306.968 211.155C306.968 210.31 307.282 209.63 307.909 209.032C308.536 208.435 309.272 208.136 310.119 208.136C310.966 208.136 311.687 208.435 312.285 209.032C312.882 209.63 313.181 210.338 313.181 211.155C313.181 211.972 312.882 212.723 312.285 213.321Z" fill="#FFD89E"/>
<path d="M312.285 206.619C311.687 207.217 310.966 207.515 310.119 207.515C309.272 207.515 308.536 207.217 307.909 206.619C307.282 206.022 306.968 205.299 306.968 204.454C306.968 203.609 307.282 202.928 307.909 202.331C308.536 201.733 309.272 201.435 310.119 201.435C310.966 201.435 311.687 201.733 312.285 202.331C312.882 202.928 313.181 203.637 313.181 204.454C313.181 205.271 312.882 206.022 312.285 206.619Z" fill="#FFD89E"/>
<path d="M312.285 199.919C311.687 200.517 310.966 200.816 310.119 200.816C309.272 200.816 308.536 200.517 307.909 199.919C307.282 199.322 306.968 198.599 306.968 197.754C306.968 196.909 307.282 196.228 307.909 195.631C308.536 195.034 309.272 194.735 310.119 194.735C310.966 194.735 311.687 195.034 312.285 195.631C312.882 196.228 313.181 196.937 313.181 197.754C313.181 198.571 312.882 199.322 312.285 199.919Z" fill="#FFD89E"/>
<path d="M312.285 193.218C311.687 193.815 310.966 194.114 310.119 194.114C309.272 194.114 308.536 193.815 307.909 193.218C307.282 192.621 306.968 191.897 306.968 191.052C306.968 190.207 307.282 189.527 307.909 188.929C308.536 188.332 309.272 188.033 310.119 188.033C310.966 188.033 311.687 188.332 312.285 188.929C312.882 189.527 313.181 190.235 313.181 191.052C313.181 191.869 312.882 192.621 312.285 193.218Z" fill="#FFD89E"/>
<path d="M312.285 186.519C311.687 187.116 310.966 187.415 310.119 187.415C309.272 187.415 308.536 187.116 307.909 186.519C307.282 185.922 306.968 185.198 306.968 184.353C306.968 183.509 307.282 182.828 307.909 182.231C308.536 181.633 309.272 181.334 310.119 181.334C310.966 181.334 311.687 181.633 312.285 182.231C312.882 182.828 313.181 183.536 313.181 184.353C313.181 185.171 312.882 185.922 312.285 186.519Z" fill="#FFD89E"/>
<path d="M312.285 179.817C311.687 180.415 310.966 180.714 310.119 180.714C309.272 180.714 308.536 180.415 307.909 179.817C307.282 179.22 306.968 178.497 306.968 177.652C306.968 176.807 307.282 176.126 307.909 175.529C308.536 174.932 309.272 174.633 310.119 174.633C310.966 174.633 311.687 174.932 312.285 175.529C312.882 176.126 313.181 176.835 313.181 177.652C313.181 178.469 312.882 179.22 312.285 179.817Z" fill="#FFD89E"/>
<path d="M312.285 173.116C311.687 173.713 310.966 174.012 310.119 174.012C309.272 174.012 308.536 173.713 307.909 173.116C307.282 172.518 306.968 171.795 306.968 170.95C306.968 170.105 307.282 169.425 307.909 168.827C308.536 168.23 309.272 167.931 310.119 167.931C310.966 167.931 311.687 168.23 312.285 168.827C312.882 169.425 313.181 170.133 313.181 170.95C313.181 171.767 312.882 172.518 312.285 173.116Z" fill="#FFD89E"/>
<path d="M312.285 166.416C311.687 167.013 310.966 167.312 310.119 167.312C309.272 167.312 308.536 167.013 307.909 166.416C307.282 165.819 306.968 165.095 306.968 164.251C306.968 163.406 307.282 162.725 307.909 162.128C308.536 161.53 309.272 161.232 310.119 161.232C310.966 161.232 311.687 161.53 312.285 162.128C312.882 162.725 313.181 163.433 313.181 164.251C313.181 165.068 312.882 165.819 312.285 166.416Z" fill="#FFD89E"/>
<path d="M312.285 159.715C311.687 160.312 310.966 160.611 310.119 160.611C309.272 160.611 308.536 160.312 307.909 159.715C307.282 159.117 306.968 158.394 306.968 157.549C306.968 156.704 307.282 156.023 307.909 155.426C308.536 154.829 309.272 154.53 310.119 154.53C310.966 154.53 311.687 154.829 312.285 155.426C312.882 156.023 313.181 156.732 313.181 157.549C313.181 158.366 312.882 159.117 312.285 159.715Z" fill="#FFD89E"/>
<path d="M312.285 153.014C311.687 153.611 310.966 153.91 310.119 153.91C309.272 153.91 308.536 153.611 307.909 153.014C307.282 152.416 306.968 151.693 306.968 150.848C306.968 150.003 307.282 149.323 307.909 148.725C308.536 148.128 309.272 147.829 310.119 147.829C310.966 147.829 311.687 148.128 312.285 148.725C312.882 149.323 313.181 150.031 313.181 150.848C313.181 151.665 312.882 152.416 312.285 153.014Z" fill="#FFD89E"/>
<path d="M312.285 146.314C311.687 146.911 310.966 147.21 310.119 147.21C309.272 147.21 308.536 146.911 307.909 146.314C307.282 145.717 306.968 144.993 306.968 144.149C306.968 143.304 307.282 142.623 307.909 142.026C308.536 141.428 309.272 141.13 310.119 141.13C310.966 141.13 311.687 141.428 312.285 142.026C312.882 142.623 313.181 143.331 313.181 144.149C313.181 144.966 312.882 145.717 312.285 146.314Z" fill="#FFD89E"/>
<path d="M312.285 132.911C311.687 133.508 310.966 133.807 310.119 133.807C309.272 133.807 308.536 133.508 307.909 132.911C307.282 132.314 306.968 131.59 306.968 130.745C306.968 129.9 307.282 129.22 307.909 128.622C308.536 128.025 309.272 127.726 310.119 127.726C310.966 127.726 311.687 128.025 312.285 128.622C312.882 129.22 313.181 129.928 313.181 130.745C313.181 131.563 312.882 132.314 312.285 132.911Z" fill="#FFD89E"/>
<path d="M318.986 223.372C318.389 223.969 317.668 224.268 316.821 224.268C315.974 224.268 315.238 223.969 314.61 223.372C313.983 222.774 313.669 222.051 313.669 221.206C313.669 220.361 313.983 219.681 314.61 219.083C315.238 218.486 315.974 218.187 316.821 218.187C317.668 218.187 318.389 218.486 318.986 219.083C319.584 219.681 319.882 220.389 319.882 221.206C319.882 222.023 319.584 222.774 318.986 223.372Z" fill="#FFD89E"/>
<path d="M318.986 216.67C318.389 217.268 317.668 217.566 316.821 217.566C315.974 217.566 315.238 217.268 314.61 216.67C313.983 216.073 313.669 215.35 313.669 214.505C313.669 213.66 313.983 212.979 314.61 212.382C315.238 211.784 315.974 211.486 316.821 211.486C317.668 211.486 318.389 211.784 318.986 212.382C319.584 212.979 319.882 213.688 319.882 214.505C319.882 215.322 319.584 216.073 318.986 216.67Z" fill="#FFD89E"/>
<path d="M318.986 209.97C318.389 210.568 317.668 210.867 316.821 210.867C315.974 210.867 315.238 210.568 314.61 209.97C313.983 209.373 313.669 208.65 313.669 207.805C313.669 206.96 313.983 206.279 314.61 205.682C315.238 205.085 315.974 204.786 316.821 204.786C317.668 204.786 318.389 205.085 318.986 205.682C319.584 206.279 319.882 206.988 319.882 207.805C319.882 208.622 319.584 209.373 318.986 209.97Z" fill="#FFD89E"/>
<path d="M318.986 203.27C318.389 203.867 317.668 204.166 316.821 204.166C315.974 204.166 315.238 203.867 314.61 203.27C313.983 202.672 313.669 201.949 313.669 201.104C313.669 200.259 313.983 199.579 314.61 198.981C315.238 198.384 315.974 198.085 316.821 198.085C317.668 198.085 318.389 198.384 318.986 198.981C319.584 199.579 319.882 200.287 319.882 201.104C319.882 201.921 319.584 202.672 318.986 203.27Z" fill="#FFD89E"/>
<path d="M318.986 196.568C318.389 197.166 317.668 197.464 316.821 197.464C315.974 197.464 315.238 197.166 314.61 196.568C313.983 195.971 313.669 195.248 313.669 194.403C313.669 193.558 313.983 192.877 314.61 192.28C315.238 191.682 315.974 191.384 316.821 191.384C317.668 191.384 318.389 191.682 318.986 192.28C319.584 192.877 319.882 193.586 319.882 194.403C319.882 195.22 319.584 195.971 318.986 196.568Z" fill="#FFD89E"/>
<path d="M318.986 189.868C318.389 190.466 317.668 190.765 316.821 190.765C315.974 190.765 315.238 190.466 314.61 189.868C313.983 189.271 313.669 188.548 313.669 187.703C313.669 186.858 313.983 186.177 314.61 185.58C315.238 184.983 315.974 184.684 316.821 184.684C317.668 184.684 318.389 184.983 318.986 185.58C319.584 186.177 319.882 186.886 319.882 187.703C319.882 188.52 319.584 189.271 318.986 189.868Z" fill="#FFD89E"/>
<path d="M318.986 183.167C318.389 183.764 317.668 184.063 316.821 184.063C315.974 184.063 315.238 183.764 314.61 183.167C313.983 182.569 313.669 181.846 313.669 181.001C313.669 180.156 313.983 179.476 314.61 178.878C315.238 178.281 315.974 177.982 316.821 177.982C317.668 177.982 318.389 178.281 318.986 178.878C319.584 179.476 319.882 180.184 319.882 181.001C319.882 181.818 319.584 182.569 318.986 183.167Z" fill="#FFD89E"/>
<path d="M318.986 176.467C318.389 177.064 317.668 177.363 316.821 177.363C315.974 177.363 315.238 177.064 314.61 176.467C313.983 175.87 313.669 175.146 313.669 174.302C313.669 173.457 313.983 172.776 314.61 172.179C315.238 171.581 315.974 171.283 316.821 171.283C317.668 171.283 318.389 171.581 318.986 172.179C319.584 172.776 319.882 173.484 319.882 174.302C319.882 175.119 319.584 175.87 318.986 176.467Z" fill="#FFD89E"/>
<path d="M318.986 169.766C318.389 170.363 317.668 170.662 316.821 170.662C315.974 170.662 315.238 170.363 314.61 169.766C313.983 169.168 313.669 168.445 313.669 167.6C313.669 166.755 313.983 166.074 314.61 165.477C315.238 164.88 315.974 164.581 316.821 164.581C317.668 164.581 318.389 164.88 318.986 165.477C319.584 166.074 319.882 166.783 319.882 167.6C319.882 168.417 319.584 169.168 318.986 169.766Z" fill="#FFD89E"/>
<path d="M318.986 163.065C318.389 163.662 317.668 163.961 316.821 163.961C315.974 163.961 315.238 163.662 314.61 163.065C313.983 162.467 313.669 161.744 313.669 160.899C313.669 160.054 313.983 159.374 314.61 158.776C315.238 158.179 315.974 157.88 316.821 157.88C317.668 157.88 318.389 158.179 318.986 158.776C319.584 159.374 319.882 160.082 319.882 160.899C319.882 161.716 319.584 162.467 318.986 163.065Z" fill="#FFD89E"/>
<path d="M318.986 156.365C318.389 156.962 317.668 157.261 316.821 157.261C315.974 157.261 315.238 156.962 314.61 156.365C313.983 155.768 313.669 155.044 313.669 154.2C313.669 153.355 313.983 152.674 314.61 152.077C315.238 151.479 315.974 151.181 316.821 151.181C317.668 151.181 318.389 151.479 318.986 152.077C319.584 152.674 319.882 153.382 319.882 154.2C319.882 155.017 319.584 155.768 318.986 156.365Z" fill="#FFD89E"/>
<path d="M318.986 149.664C318.389 150.261 317.668 150.56 316.821 150.56C315.974 150.56 315.238 150.261 314.61 149.664C313.983 149.066 313.669 148.343 313.669 147.498C313.669 146.653 313.983 145.972 314.61 145.375C315.238 144.778 315.974 144.479 316.821 144.479C317.668 144.479 318.389 144.778 318.986 145.375C319.584 145.972 319.882 146.681 319.882 147.498C319.882 148.315 319.584 149.066 318.986 149.664Z" fill="#FFD89E"/>
<path d="M318.986 142.963C318.389 143.56 317.668 143.859 316.821 143.859C315.974 143.859 315.238 143.56 314.61 142.963C313.983 142.365 313.669 141.642 313.669 140.797C313.669 139.952 313.983 139.272 314.61 138.674C315.238 138.077 315.974 137.778 316.821 137.778C317.668 137.778 318.389 138.077 318.986 138.674C319.584 139.272 319.882 139.98 319.882 140.797C319.882 141.614 319.584 142.365 318.986 142.963Z" fill="#FFD89E"/>
<path d="M318.986 136.263C318.389 136.86 317.668 137.159 316.821 137.159C315.974 137.159 315.238 136.86 314.61 136.263C313.983 135.666 313.669 134.942 313.669 134.098C313.669 133.253 313.983 132.572 314.61 131.975C315.238 131.377 315.974 131.079 316.821 131.079C317.668 131.079 318.389 131.377 318.986 131.975C319.584 132.572 319.882 133.28 319.882 134.098C319.882 134.915 319.584 135.666 318.986 136.263Z" fill="#FFD89E"/>
<path d="M325.686 226.721C325.088 227.319 324.367 227.617 323.52 227.617C322.673 227.617 321.937 227.319 321.31 226.721C320.682 226.124 320.369 225.401 320.369 224.556C320.369 223.711 320.682 223.03 321.31 222.433C321.937 221.835 322.673 221.537 323.52 221.537C324.367 221.537 325.088 221.835 325.686 222.433C326.283 223.03 326.582 223.739 326.582 224.556C326.582 225.373 326.283 226.124 325.686 226.721Z" fill="#FFD89E"/>
<path d="M325.686 220.021C325.088 220.619 324.367 220.918 323.52 220.918C322.673 220.918 321.937 220.619 321.31 220.021C320.682 219.424 320.369 218.701 320.369 217.856C320.369 217.011 320.682 216.33 321.31 215.733C321.937 215.136 322.673 214.837 323.52 214.837C324.367 214.837 325.088 215.136 325.686 215.733C326.283 216.33 326.582 217.039 326.582 217.856C326.582 218.673 326.283 219.424 325.686 220.021Z" fill="#FFD89E"/>
<path d="M325.686 213.321C325.088 213.918 324.367 214.217 323.52 214.217C322.673 214.217 321.937 213.918 321.31 213.321C320.682 212.723 320.369 212 320.369 211.155C320.369 210.31 320.682 209.63 321.31 209.032C321.937 208.435 322.673 208.136 323.52 208.136C324.367 208.136 325.088 208.435 325.686 209.032C326.283 209.63 326.582 210.338 326.582 211.155C326.582 211.972 326.283 212.723 325.686 213.321Z" fill="#FFD89E"/>
<path d="M325.686 206.619C325.088 207.217 324.367 207.515 323.52 207.515C322.673 207.515 321.937 207.217 321.31 206.619C320.682 206.022 320.369 205.299 320.369 204.454C320.369 203.609 320.682 202.928 321.31 202.331C321.937 201.733 322.673 201.435 323.52 201.435C324.367 201.435 325.088 201.733 325.686 202.331C326.283 202.928 326.582 203.637 326.582 204.454C326.582 205.271 326.283 206.022 325.686 206.619Z" fill="#FFD89E"/>
<path d="M325.686 199.919C325.088 200.517 324.367 200.816 323.52 200.816C322.673 200.816 321.937 200.517 321.31 199.919C320.682 199.322 320.369 198.599 320.369 197.754C320.369 196.909 320.682 196.228 321.31 195.631C321.937 195.034 322.673 194.735 323.52 194.735C324.367 194.735 325.088 195.034 325.686 195.631C326.283 196.228 326.582 196.937 326.582 197.754C326.582 198.571 326.283 199.322 325.686 199.919Z" fill="#FFD89E"/>
<path d="M325.686 193.218C325.088 193.815 324.367 194.114 323.52 194.114C322.673 194.114 321.937 193.815 321.31 193.218C320.682 192.621 320.369 191.897 320.369 191.052C320.369 190.207 320.682 189.527 321.31 188.929C321.937 188.332 322.673 188.033 323.52 188.033C324.367 188.033 325.088 188.332 325.686 188.929C326.283 189.527 326.582 190.235 326.582 191.052C326.582 191.869 326.283 192.621 325.686 193.218Z" fill="#FFD89E"/>
<path d="M325.686 186.519C325.088 187.116 324.367 187.415 323.52 187.415C322.673 187.415 321.937 187.116 321.31 186.519C320.682 185.922 320.369 185.198 320.369 184.353C320.369 183.509 320.682 182.828 321.31 182.231C321.937 181.633 322.673 181.334 323.52 181.334C324.367 181.334 325.088 181.633 325.686 182.231C326.283 182.828 326.582 183.536 326.582 184.353C326.582 185.171 326.283 185.922 325.686 186.519Z" fill="#FFD89E"/>
<path d="M325.686 179.817C325.088 180.415 324.367 180.714 323.52 180.714C322.673 180.714 321.937 180.415 321.31 179.817C320.682 179.22 320.369 178.497 320.369 177.652C320.369 176.807 320.682 176.126 321.31 175.529C321.937 174.932 322.673 174.633 323.52 174.633C324.367 174.633 325.088 174.932 325.686 175.529C326.283 176.126 326.582 176.835 326.582 177.652C326.582 178.469 326.283 179.22 325.686 179.817Z" fill="#FFD89E"/>
<path d="M325.686 173.116C325.088 173.713 324.367 174.012 323.52 174.012C322.673 174.012 321.937 173.713 321.31 173.116C320.682 172.518 320.369 171.795 320.369 170.95C320.369 170.105 320.682 169.425 321.31 168.827C321.937 168.23 322.673 167.931 323.52 167.931C324.367 167.931 325.088 168.23 325.686 168.827C326.283 169.425 326.582 170.133 326.582 170.95C326.582 171.767 326.283 172.518 325.686 173.116Z" fill="#FFD89E"/>
<path d="M325.686 166.416C325.088 167.013 324.367 167.312 323.52 167.312C322.673 167.312 321.937 167.013 321.31 166.416C320.682 165.819 320.369 165.095 320.369 164.251C320.369 163.406 320.682 162.725 321.31 162.128C321.937 161.53 322.673 161.232 323.52 161.232C324.367 161.232 325.088 161.53 325.686 162.128C326.283 162.725 326.582 163.433 326.582 164.251C326.582 165.068 326.283 165.819 325.686 166.416Z" fill="#FFD89E"/>
<path d="M325.686 159.715C325.088 160.312 324.367 160.611 323.52 160.611C322.673 160.611 321.937 160.312 321.31 159.715C320.682 159.117 320.369 158.394 320.369 157.549C320.369 156.704 320.682 156.023 321.31 155.426C321.937 154.829 322.673 154.53 323.52 154.53C324.367 154.53 325.088 154.829 325.686 155.426C326.283 156.023 326.582 156.732 326.582 157.549C326.582 158.366 326.283 159.117 325.686 159.715Z" fill="#FFD89E"/>
<path d="M325.686 153.014C325.088 153.611 324.367 153.91 323.52 153.91C322.673 153.91 321.937 153.611 321.31 153.014C320.682 152.416 320.369 151.693 320.369 150.848C320.369 150.003 320.682 149.323 321.31 148.725C321.937 148.128 322.673 147.829 323.52 147.829C324.367 147.829 325.088 148.128 325.686 148.725C326.283 149.323 326.582 150.031 326.582 150.848C326.582 151.665 326.283 152.416 325.686 153.014Z" fill="#FFD89E"/>
<path d="M325.686 146.314C325.088 146.911 324.367 147.21 323.52 147.21C322.673 147.21 321.937 146.911 321.31 146.314C320.682 145.717 320.369 144.993 320.369 144.149C320.369 143.304 320.682 142.623 321.31 142.026C321.937 141.428 322.673 141.13 323.52 141.13C324.367 141.13 325.088 141.428 325.686 142.026C326.283 142.623 326.582 143.331 326.582 144.149C326.582 144.966 326.283 145.717 325.686 146.314Z" fill="#FFD89E"/>
<path d="M325.686 139.612C325.088 140.21 324.367 140.509 323.52 140.509C322.673 140.509 321.937 140.21 321.31 139.612C320.682 139.015 320.369 138.292 320.369 137.447C320.369 136.602 320.682 135.921 321.31 135.324C321.937 134.727 322.673 134.428 323.52 134.428C324.367 134.428 325.088 134.727 325.686 135.324C326.283 135.921 326.582 136.63 326.582 137.447C326.582 138.264 326.283 139.015 325.686 139.612Z" fill="#FFD89E"/>
<path d="M332.387 223.372C331.79 223.969 331.069 224.268 330.222 224.268C329.374 224.268 328.638 223.969 328.011 223.372C327.384 222.774 327.07 222.051 327.07 221.206C327.07 220.361 327.384 219.681 328.011 219.083C328.638 218.486 329.374 218.187 330.222 218.187C331.069 218.187 331.79 218.486 332.387 219.083C332.984 219.681 333.283 220.389 333.283 221.206C333.283 222.023 332.984 222.774 332.387 223.372Z" fill="#FFD89E"/>
<path d="M332.387 216.67C331.79 217.268 331.069 217.566 330.222 217.566C329.374 217.566 328.638 217.268 328.011 216.67C327.384 216.073 327.07 215.35 327.07 214.505C327.07 213.66 327.384 212.979 328.011 212.382C328.638 211.784 329.374 211.486 330.222 211.486C331.069 211.486 331.79 211.784 332.387 212.382C332.984 212.979 333.283 213.688 333.283 214.505C333.283 215.322 332.984 216.073 332.387 216.67Z" fill="#FFD89E"/>
<path d="M332.387 209.97C331.79 210.568 331.069 210.867 330.222 210.867C329.374 210.867 328.638 210.568 328.011 209.97C327.384 209.373 327.07 208.65 327.07 207.805C327.07 206.96 327.384 206.279 328.011 205.682C328.638 205.085 329.374 204.786 330.222 204.786C331.069 204.786 331.79 205.085 332.387 205.682C332.984 206.279 333.283 206.988 333.283 207.805C333.283 208.622 332.984 209.373 332.387 209.97Z" fill="#FFD89E"/>
<path d="M332.387 203.27C331.79 203.867 331.069 204.166 330.222 204.166C329.374 204.166 328.638 203.867 328.011 203.27C327.384 202.672 327.07 201.949 327.07 201.104C327.07 200.259 327.384 199.579 328.011 198.981C328.638 198.384 329.374 198.085 330.222 198.085C331.069 198.085 331.79 198.384 332.387 198.981C332.984 199.579 333.283 200.287 333.283 201.104C333.283 201.921 332.984 202.672 332.387 203.27Z" fill="#FFD89E"/>
<path d="M332.387 196.568C331.79 197.166 331.069 197.464 330.222 197.464C329.374 197.464 328.638 197.166 328.011 196.568C327.384 195.971 327.07 195.248 327.07 194.403C327.07 193.558 327.384 192.877 328.011 192.28C328.638 191.682 329.374 191.384 330.222 191.384C331.069 191.384 331.79 191.682 332.387 192.28C332.984 192.877 333.283 193.586 333.283 194.403C333.283 195.22 332.984 195.971 332.387 196.568Z" fill="#FFD89E"/>
<path d="M332.387 189.868C331.79 190.466 331.069 190.765 330.222 190.765C329.374 190.765 328.638 190.466 328.011 189.868C327.384 189.271 327.07 188.548 327.07 187.703C327.07 186.858 327.384 186.177 328.011 185.58C328.638 184.983 329.374 184.684 330.222 184.684C331.069 184.684 331.79 184.983 332.387 185.58C332.984 186.177 333.283 186.886 333.283 187.703C333.283 188.52 332.984 189.271 332.387 189.868Z" fill="#FFD89E"/>
<path d="M332.387 183.167C331.79 183.764 331.069 184.063 330.222 184.063C329.374 184.063 328.638 183.764 328.011 183.167C327.384 182.569 327.07 181.846 327.07 181.001C327.07 180.156 327.384 179.476 328.011 178.878C328.638 178.281 329.374 177.982 330.222 177.982C331.069 177.982 331.79 178.281 332.387 178.878C332.984 179.476 333.283 180.184 333.283 181.001C333.283 181.818 332.984 182.569 332.387 183.167Z" fill="#FFD89E"/>
<path d="M332.387 176.467C331.79 177.064 331.069 177.363 330.222 177.363C329.374 177.363 328.638 177.064 328.011 176.467C327.384 175.87 327.07 175.146 327.07 174.302C327.07 173.457 327.384 172.776 328.011 172.179C328.638 171.581 329.374 171.283 330.222 171.283C331.069 171.283 331.79 171.581 332.387 172.179C332.984 172.776 333.283 173.484 333.283 174.302C333.283 175.119 332.984 175.87 332.387 176.467Z" fill="#FFD89E"/>
<path d="M332.387 169.766C331.79 170.363 331.069 170.662 330.222 170.662C329.374 170.662 328.638 170.363 328.011 169.766C327.384 169.168 327.07 168.445 327.07 167.6C327.07 166.755 327.384 166.074 328.011 165.477C328.638 164.88 329.374 164.581 330.222 164.581C331.069 164.581 331.79 164.88 332.387 165.477C332.984 166.074 333.283 166.783 333.283 167.6C333.283 168.417 332.984 169.168 332.387 169.766Z" fill="#FFD89E"/>
<path d="M332.387 163.065C331.79 163.662 331.069 163.961 330.222 163.961C329.374 163.961 328.638 163.662 328.011 163.065C327.384 162.467 327.07 161.744 327.07 160.899C327.07 160.054 327.384 159.374 328.011 158.776C328.638 158.179 329.374 157.88 330.222 157.88C331.069 157.88 331.79 158.179 332.387 158.776C332.984 159.374 333.283 160.082 333.283 160.899C333.283 161.716 332.984 162.467 332.387 163.065Z" fill="#FFD89E"/>
<path d="M332.387 156.365C331.79 156.962 331.069 157.261 330.222 157.261C329.374 157.261 328.638 156.962 328.011 156.365C327.384 155.768 327.07 155.044 327.07 154.2C327.07 153.355 327.384 152.674 328.011 152.077C328.638 151.479 329.374 151.181 330.222 151.181C331.069 151.181 331.79 151.479 332.387 152.077C332.984 152.674 333.283 153.382 333.283 154.2C333.283 155.017 332.984 155.768 332.387 156.365Z" fill="#FFD89E"/>
<path d="M332.387 149.664C331.79 150.261 331.069 150.56 330.222 150.56C329.374 150.56 328.638 150.261 328.011 149.664C327.384 149.066 327.07 148.343 327.07 147.498C327.07 146.653 327.384 145.972 328.011 145.375C328.638 144.778 329.374 144.479 330.222 144.479C331.069 144.479 331.79 144.778 332.387 145.375C332.984 145.972 333.283 146.681 333.283 147.498C333.283 148.315 332.984 149.066 332.387 149.664Z" fill="#FFD89E"/>
<path d="M332.387 142.963C331.79 143.56 331.069 143.859 330.222 143.859C329.374 143.859 328.638 143.56 328.011 142.963C327.384 142.365 327.07 141.642 327.07 140.797C327.07 139.952 327.384 139.272 328.011 138.674C328.638 138.077 329.374 137.778 330.222 137.778C331.069 137.778 331.79 138.077 332.387 138.674C332.984 139.272 333.283 139.98 333.283 140.797C333.283 141.614 332.984 142.365 332.387 142.963Z" fill="#FFD89E"/>
<path d="M332.387 136.263C331.79 136.86 331.069 137.159 330.222 137.159C329.374 137.159 328.638 136.86 328.011 136.263C327.384 135.666 327.07 134.942 327.07 134.098C327.07 133.253 327.384 132.572 328.011 131.975C328.638 131.377 329.374 131.079 330.222 131.079C331.069 131.079 331.79 131.377 332.387 131.975C332.984 132.572 333.283 133.28 333.283 134.098C333.283 134.915 332.984 135.666 332.387 136.263Z" fill="#FFD89E"/>
<path d="M339.086 213.321C338.489 213.918 337.768 214.217 336.921 214.217C336.074 214.217 335.338 213.918 334.71 213.321C334.083 212.723 333.77 212 333.77 211.155C333.77 210.31 334.083 209.63 334.71 209.032C335.338 208.435 336.074 208.136 336.921 208.136C337.768 208.136 338.489 208.435 339.086 209.032C339.684 209.63 339.982 210.338 339.982 211.155C339.982 211.972 339.684 212.723 339.086 213.321Z" fill="#FFD89E"/>
<path d="M339.086 206.619C338.489 207.217 337.768 207.515 336.921 207.515C336.074 207.515 335.338 207.217 334.71 206.619C334.083 206.022 333.77 205.299 333.77 204.454C333.77 203.609 334.083 202.928 334.71 202.331C335.338 201.733 336.074 201.435 336.921 201.435C337.768 201.435 338.489 201.733 339.086 202.331C339.684 202.928 339.982 203.637 339.982 204.454C339.982 205.271 339.684 206.022 339.086 206.619Z" fill="#FFD89E"/>
<path d="M339.086 199.919C338.489 200.517 337.768 200.816 336.921 200.816C336.074 200.816 335.338 200.517 334.71 199.919C334.083 199.322 333.77 198.599 333.77 197.754C333.77 196.909 334.083 196.228 334.71 195.631C335.338 195.034 336.074 194.735 336.921 194.735C337.768 194.735 338.489 195.034 339.086 195.631C339.684 196.228 339.982 196.937 339.982 197.754C339.982 198.571 339.684 199.322 339.086 199.919Z" fill="#FFD89E"/>
<path d="M339.086 193.218C338.489 193.815 337.768 194.114 336.921 194.114C336.074 194.114 335.338 193.815 334.71 193.218C334.083 192.621 333.77 191.897 333.77 191.052C333.77 190.207 334.083 189.527 334.71 188.929C335.338 188.332 336.074 188.033 336.921 188.033C337.768 188.033 338.489 188.332 339.086 188.929C339.684 189.527 339.982 190.235 339.982 191.052C339.982 191.869 339.684 192.621 339.086 193.218Z" fill="#FFD89E"/>
<path d="M339.086 186.519C338.489 187.116 337.768 187.415 336.921 187.415C336.074 187.415 335.338 187.116 334.71 186.519C334.083 185.922 333.77 185.198 333.77 184.353C333.77 183.509 334.083 182.828 334.71 182.231C335.338 181.633 336.074 181.334 336.921 181.334C337.768 181.334 338.489 181.633 339.086 182.231C339.684 182.828 339.982 183.536 339.982 184.353C339.982 185.171 339.684 185.922 339.086 186.519Z" fill="#FFD89E"/>
<path d="M339.086 179.817C338.489 180.415 337.768 180.714 336.921 180.714C336.074 180.714 335.338 180.415 334.71 179.817C334.083 179.22 333.77 178.497 333.77 177.652C333.77 176.807 334.083 176.126 334.71 175.529C335.338 174.932 336.074 174.633 336.921 174.633C337.768 174.633 338.489 174.932 339.086 175.529C339.684 176.126 339.982 176.835 339.982 177.652C339.982 178.469 339.684 179.22 339.086 179.817Z" fill="#FFD89E"/>
<path d="M339.086 173.116C338.489 173.713 337.768 174.012 336.921 174.012C336.074 174.012 335.338 173.713 334.71 173.116C334.083 172.518 333.77 171.795 333.77 170.95C333.77 170.105 334.083 169.425 334.71 168.827C335.338 168.23 336.074 167.931 336.921 167.931C337.768 167.931 338.489 168.23 339.086 168.827C339.684 169.425 339.982 170.133 339.982 170.95C339.982 171.767 339.684 172.518 339.086 173.116Z" fill="#FFD89E"/>
<path d="M339.086 166.416C338.489 167.013 337.768 167.312 336.921 167.312C336.074 167.312 335.338 167.013 334.71 166.416C334.083 165.819 333.77 165.095 333.77 164.251C333.77 163.406 334.083 162.725 334.71 162.128C335.338 161.53 336.074 161.232 336.921 161.232C337.768 161.232 338.489 161.53 339.086 162.128C339.684 162.725 339.982 163.433 339.982 164.251C339.982 165.068 339.684 165.819 339.086 166.416Z" fill="#FFD89E"/>
<path d="M339.086 159.715C338.489 160.312 337.768 160.611 336.921 160.611C336.074 160.611 335.338 160.312 334.71 159.715C334.083 159.117 333.77 158.394 333.77 157.549C333.77 156.704 334.083 156.023 334.71 155.426C335.338 154.829 336.074 154.53 336.921 154.53C337.768 154.53 338.489 154.829 339.086 155.426C339.684 156.023 339.982 156.732 339.982 157.549C339.982 158.366 339.684 159.117 339.086 159.715Z" fill="#FFD89E"/>
<path d="M339.086 153.014C338.489 153.611 337.768 153.91 336.921 153.91C336.074 153.91 335.338 153.611 334.71 153.014C334.083 152.416 333.77 151.693 333.77 150.848C333.77 150.003 334.083 149.323 334.71 148.725C335.338 148.128 336.074 147.829 336.921 147.829C337.768 147.829 338.489 148.128 339.086 148.725C339.684 149.323 339.982 150.031 339.982 150.848C339.982 151.665 339.684 152.416 339.086 153.014Z" fill="#FFD89E"/>
<path d="M339.086 146.314C338.489 146.911 337.768 147.21 336.921 147.21C336.074 147.21 335.338 146.911 334.71 146.314C334.083 145.717 333.77 144.993 333.77 144.149C333.77 143.304 334.083 142.623 334.71 142.026C335.338 141.428 336.074 141.13 336.921 141.13C337.768 141.13 338.489 141.428 339.086 142.026C339.684 142.623 339.982 143.331 339.982 144.149C339.982 144.966 339.684 145.717 339.086 146.314Z" fill="#FFD89E"/>
<path d="M339.086 132.911C338.489 133.508 337.768 133.807 336.921 133.807C336.074 133.807 335.338 133.508 334.71 132.911C334.083 132.314 333.77 131.59 333.77 130.745C333.77 129.9 334.083 129.22 334.71 128.622C335.338 128.025 336.074 127.726 336.921 127.726C337.768 127.726 338.489 128.025 339.086 128.622C339.684 129.22 339.982 129.928 339.982 130.745C339.982 131.563 339.684 132.314 339.086 132.911Z" fill="#FFD89E"/>
<path d="M345.788 209.97C345.191 210.568 344.469 210.867 343.622 210.867C342.775 210.867 342.039 210.568 341.412 209.97C340.785 209.373 340.471 208.65 340.471 207.805C340.471 206.96 340.785 206.279 341.412 205.682C342.039 205.085 342.775 204.786 343.622 204.786C344.469 204.786 345.191 205.085 345.788 205.682C346.385 206.279 346.684 206.988 346.684 207.805C346.684 208.622 346.385 209.373 345.788 209.97Z" fill="#FFD89E"/>
<path d="M345.788 203.27C345.191 203.867 344.469 204.166 343.622 204.166C342.775 204.166 342.039 203.867 341.412 203.27C340.785 202.672 340.471 201.949 340.471 201.104C340.471 200.259 340.785 199.579 341.412 198.981C342.039 198.384 342.775 198.085 343.622 198.085C344.469 198.085 345.191 198.384 345.788 198.981C346.385 199.579 346.684 200.287 346.684 201.104C346.684 201.921 346.385 202.672 345.788 203.27Z" fill="#FFD89E"/>
<path d="M345.788 196.568C345.191 197.166 344.469 197.464 343.622 197.464C342.775 197.464 342.039 197.166 341.412 196.568C340.785 195.971 340.471 195.248 340.471 194.403C340.471 193.558 340.785 192.877 341.412 192.28C342.039 191.682 342.775 191.384 343.622 191.384C344.469 191.384 345.191 191.682 345.788 192.28C346.385 192.877 346.684 193.586 346.684 194.403C346.684 195.22 346.385 195.971 345.788 196.568Z" fill="#FFD89E"/>
<path d="M345.788 189.868C345.191 190.466 344.469 190.765 343.622 190.765C342.775 190.765 342.039 190.466 341.412 189.868C340.785 189.271 340.471 188.548 340.471 187.703C340.471 186.858 340.785 186.177 341.412 185.58C342.039 184.983 342.775 184.684 343.622 184.684C344.469 184.684 345.191 184.983 345.788 185.58C346.385 186.177 346.684 186.886 346.684 187.703C346.684 188.52 346.385 189.271 345.788 189.868Z" fill="#FFD89E"/>
<path d="M345.788 183.167C345.191 183.764 344.469 184.063 343.622 184.063C342.775 184.063 342.039 183.764 341.412 183.167C340.785 182.569 340.471 181.846 340.471 181.001C340.471 180.156 340.785 179.476 341.412 178.878C342.039 178.281 342.775 177.982 343.622 177.982C344.469 177.982 345.191 178.281 345.788 178.878C346.385 179.476 346.684 180.184 346.684 181.001C346.684 181.818 346.385 182.569 345.788 183.167Z" fill="#FFD89E"/>
<path d="M345.788 176.467C345.191 177.064 344.469 177.363 343.622 177.363C342.775 177.363 342.039 177.064 341.412 176.467C340.785 175.87 340.471 175.146 340.471 174.302C340.471 173.457 340.785 172.776 341.412 172.179C342.039 171.581 342.775 171.283 343.622 171.283C344.469 171.283 345.191 171.581 345.788 172.179C346.385 172.776 346.684 173.484 346.684 174.302C346.684 175.119 346.385 175.87 345.788 176.467Z" fill="#FFD89E"/>
<path d="M345.788 169.766C345.191 170.363 344.469 170.662 343.622 170.662C342.775 170.662 342.039 170.363 341.412 169.766C340.785 169.168 340.471 168.445 340.471 167.6C340.471 166.755 340.785 166.074 341.412 165.477C342.039 164.88 342.775 164.581 343.622 164.581C344.469 164.581 345.191 164.88 345.788 165.477C346.385 166.074 346.684 166.783 346.684 167.6C346.684 168.417 346.385 169.168 345.788 169.766Z" fill="#FFD89E"/>
<path d="M345.788 129.561C345.191 130.159 344.469 130.458 343.622 130.458C342.775 130.458 342.039 130.159 341.412 129.561C340.785 128.964 340.471 128.241 340.471 127.396C340.471 126.551 340.785 125.87 341.412 125.273C342.039 124.676 342.775 124.377 343.622 124.377C344.469 124.377 345.191 124.676 345.788 125.273C346.385 125.87 346.684 126.579 346.684 127.396C346.684 128.213 346.385 128.964 345.788 129.561Z" fill="#FFD89E"/>
<path d="M352.489 220.021C351.892 220.619 351.171 220.918 350.324 220.918C349.477 220.918 348.741 220.619 348.114 220.021C347.486 219.424 347.173 218.701 347.173 217.856C347.173 217.011 347.486 216.33 348.114 215.733C348.741 215.136 349.477 214.837 350.324 214.837C351.171 214.837 351.892 215.136 352.489 215.733C353.087 216.33 353.386 217.039 353.386 217.856C353.386 218.673 353.087 219.424 352.489 220.021Z" fill="#FFD89E"/>
<path d="M352.489 213.321C351.892 213.918 351.171 214.217 350.324 214.217C349.477 214.217 348.741 213.918 348.114 213.321C347.486 212.723 347.173 212 347.173 211.155C347.173 210.31 347.486 209.63 348.114 209.032C348.741 208.435 349.477 208.136 350.324 208.136C351.171 208.136 351.892 208.435 352.489 209.032C353.087 209.63 353.386 210.338 353.386 211.155C353.386 211.972 353.087 212.723 352.489 213.321Z" fill="#FFD89E"/>
<path d="M352.489 206.619C351.892 207.217 351.171 207.515 350.324 207.515C349.477 207.515 348.741 207.217 348.114 206.619C347.486 206.022 347.173 205.299 347.173 204.454C347.173 203.609 347.486 202.928 348.114 202.331C348.741 201.733 349.477 201.435 350.324 201.435C351.171 201.435 351.892 201.733 352.489 202.331C353.087 202.928 353.386 203.637 353.386 204.454C353.386 205.271 353.087 206.022 352.489 206.619Z" fill="#FFD89E"/>
<path d="M352.489 199.919C351.892 200.517 351.171 200.816 350.324 200.816C349.477 200.816 348.741 200.517 348.114 199.919C347.486 199.322 347.173 198.599 347.173 197.754C347.173 196.909 347.486 196.228 348.114 195.631C348.741 195.034 349.477 194.735 350.324 194.735C351.171 194.735 351.892 195.034 352.489 195.631C353.087 196.228 353.386 196.937 353.386 197.754C353.386 198.571 353.087 199.322 352.489 199.919Z" fill="#FFD89E"/>
<path d="M352.489 193.218C351.892 193.815 351.171 194.114 350.324 194.114C349.477 194.114 348.741 193.815 348.114 193.218C347.486 192.621 347.173 191.897 347.173 191.052C347.173 190.207 347.486 189.527 348.114 188.929C348.741 188.332 349.477 188.033 350.324 188.033C351.171 188.033 351.892 188.332 352.489 188.929C353.087 189.527 353.386 190.235 353.386 191.052C353.386 191.869 353.087 192.621 352.489 193.218Z" fill="#FFD89E"/>
<path d="M352.489 186.519C351.892 187.116 351.171 187.415 350.324 187.415C349.477 187.415 348.741 187.116 348.114 186.519C347.486 185.922 347.173 185.198 347.173 184.353C347.173 183.509 347.486 182.828 348.114 182.231C348.741 181.633 349.477 181.334 350.324 181.334C351.171 181.334 351.892 181.633 352.489 182.231C353.087 182.828 353.386 183.536 353.386 184.353C353.386 185.171 353.087 185.922 352.489 186.519Z" fill="#FFD89E"/>
<path d="M352.489 179.817C351.892 180.415 351.171 180.714 350.324 180.714C349.477 180.714 348.741 180.415 348.114 179.817C347.486 179.22 347.173 178.497 347.173 177.652C347.173 176.807 347.486 176.126 348.114 175.529C348.741 174.932 349.477 174.633 350.324 174.633C351.171 174.633 351.892 174.932 352.489 175.529C353.087 176.126 353.386 176.835 353.386 177.652C353.386 178.469 353.087 179.22 352.489 179.817Z" fill="#FFD89E"/>
<path d="M359.189 223.372C358.591 223.969 357.87 224.268 357.023 224.268C356.176 224.268 355.44 223.969 354.813 223.372C354.186 222.774 353.872 222.051 353.872 221.206C353.872 220.361 354.186 219.681 354.813 219.083C355.44 218.486 356.176 218.187 357.023 218.187C357.87 218.187 358.591 218.486 359.189 219.083C359.786 219.681 360.085 220.389 360.085 221.206C360.085 222.023 359.786 222.774 359.189 223.372Z" fill="#FFD89E"/>
<path d="M359.189 216.67C358.591 217.268 357.87 217.566 357.023 217.566C356.176 217.566 355.44 217.268 354.813 216.67C354.186 216.073 353.872 215.35 353.872 214.505C353.872 213.66 354.186 212.979 354.813 212.382C355.44 211.784 356.176 211.486 357.023 211.486C357.87 211.486 358.591 211.784 359.189 212.382C359.786 212.979 360.085 213.688 360.085 214.505C360.085 215.322 359.786 216.073 359.189 216.67Z" fill="#FFD89E"/>
<path d="M359.189 209.97C358.591 210.568 357.87 210.867 357.023 210.867C356.176 210.867 355.44 210.568 354.813 209.97C354.186 209.373 353.872 208.65 353.872 207.805C353.872 206.96 354.186 206.279 354.813 205.682C355.44 205.085 356.176 204.786 357.023 204.786C357.87 204.786 358.591 205.085 359.189 205.682C359.786 206.279 360.085 206.988 360.085 207.805C360.085 208.622 359.786 209.373 359.189 209.97Z" fill="#FFD89E"/>
<path d="M359.189 203.27C358.591 203.867 357.87 204.166 357.023 204.166C356.176 204.166 355.44 203.867 354.813 203.27C354.186 202.672 353.872 201.949 353.872 201.104C353.872 200.259 354.186 199.579 354.813 198.981C355.44 198.384 356.176 198.085 357.023 198.085C357.87 198.085 358.591 198.384 359.189 198.981C359.786 199.579 360.085 200.287 360.085 201.104C360.085 201.921 359.786 202.672 359.189 203.27Z" fill="#FFD89E"/>
<path d="M359.189 196.568C358.591 197.166 357.87 197.464 357.023 197.464C356.176 197.464 355.44 197.166 354.813 196.568C354.186 195.971 353.872 195.248 353.872 194.403C353.872 193.558 354.186 192.877 354.813 192.28C355.44 191.682 356.176 191.384 357.023 191.384C357.87 191.384 358.591 191.682 359.189 192.28C359.786 192.877 360.085 193.586 360.085 194.403C360.085 195.22 359.786 195.971 359.189 196.568Z" fill="#FFD89E"/>
<path d="M359.189 189.868C358.591 190.466 357.87 190.765 357.023 190.765C356.176 190.765 355.44 190.466 354.813 189.868C354.186 189.271 353.872 188.548 353.872 187.703C353.872 186.858 354.186 186.177 354.813 185.58C355.44 184.983 356.176 184.684 357.023 184.684C357.87 184.684 358.591 184.983 359.189 185.58C359.786 186.177 360.085 186.886 360.085 187.703C360.085 188.52 359.786 189.271 359.189 189.868Z" fill="#FFD89E"/>
<path d="M365.89 220.021C365.293 220.619 364.572 220.918 363.725 220.918C362.878 220.918 362.142 220.619 361.514 220.021C360.887 219.424 360.573 218.701 360.573 217.856C360.573 217.011 360.887 216.33 361.514 215.733C362.142 215.136 362.878 214.837 363.725 214.837C364.572 214.837 365.293 215.136 365.89 215.733C366.488 216.33 366.786 217.039 366.786 217.856C366.786 218.673 366.488 219.424 365.89 220.021Z" fill="#FFD89E"/>
<path d="M365.89 213.321C365.293 213.918 364.572 214.217 363.725 214.217C362.878 214.217 362.142 213.918 361.514 213.321C360.887 212.723 360.573 212 360.573 211.155C360.573 210.31 360.887 209.63 361.514 209.032C362.142 208.435 362.878 208.136 363.725 208.136C364.572 208.136 365.293 208.435 365.89 209.032C366.488 209.63 366.786 210.338 366.786 211.155C366.786 211.972 366.488 212.723 365.89 213.321Z" fill="#FFD89E"/>
<path d="M365.89 206.619C365.293 207.217 364.572 207.515 363.725 207.515C362.878 207.515 362.142 207.217 361.514 206.619C360.887 206.022 360.573 205.299 360.573 204.454C360.573 203.609 360.887 202.928 361.514 202.331C362.142 201.733 362.878 201.435 363.725 201.435C364.572 201.435 365.293 201.733 365.89 202.331C366.488 202.928 366.786 203.637 366.786 204.454C366.786 205.271 366.488 206.022 365.89 206.619Z" fill="#FFD89E"/>
<path d="M365.89 199.919C365.293 200.517 364.572 200.816 363.725 200.816C362.878 200.816 362.142 200.517 361.514 199.919C360.887 199.322 360.573 198.599 360.573 197.754C360.573 196.909 360.887 196.228 361.514 195.631C362.142 195.034 362.878 194.735 363.725 194.735C364.572 194.735 365.293 195.034 365.89 195.631C366.488 196.228 366.786 196.937 366.786 197.754C366.786 198.571 366.488 199.322 365.89 199.919Z" fill="#FFD89E"/>
<path d="M372.592 216.67C371.994 217.268 371.273 217.566 370.426 217.566C369.579 217.566 368.843 217.268 368.216 216.67C367.588 216.073 367.275 215.35 367.275 214.505C367.275 213.66 367.588 212.979 368.216 212.382C368.843 211.784 369.579 211.486 370.426 211.486C371.273 211.486 371.994 211.784 372.592 212.382C373.189 212.979 373.488 213.688 373.488 214.505C373.488 215.322 373.189 216.073 372.592 216.67Z" fill="#FFD89E"/>
<path d="M372.592 209.97C371.994 210.568 371.273 210.867 370.426 210.867C369.579 210.867 368.843 210.568 368.216 209.97C367.588 209.373 367.275 208.65 367.275 207.805C367.275 206.96 367.588 206.279 368.216 205.682C368.843 205.085 369.579 204.786 370.426 204.786C371.273 204.786 371.994 205.085 372.592 205.682C373.189 206.279 373.488 206.988 373.488 207.805C373.488 208.622 373.189 209.373 372.592 209.97Z" fill="#FFD89E"/>
<line x1="646.715" y1="1.43962" x2="0.714737" y2="351.44" stroke="#FF0000"/>
</g>
</g>
<defs>
<linearGradient id="paint0_linear_1779_62681" x1="646" y1="174.997" x2="0" y2="174.997" gradientUnits="userSpaceOnUse">
<stop stop-color="#FFF1E0"/>
<stop offset="1" stop-color="#BDC8E8"/>
</linearGradient>
<clipPath id="clip0_1779_62681">
<rect width="646" height="350" fill="white" transform="translate(0.476562 0.5)"/>
</clipPath>
<clipPath id="clip1_1779_62681">
<rect width="646" height="350" fill="white" transform="translate(0.476562 1)"/>
</clipPath>
</defs>
</svg>
