<svg width="647" height="350" viewBox="0 0 647 350" fill="none" xmlns="http://www.w3.org/2000/svg">
<g clip-path="url(#clip0_1779_62302)">
<rect width="646" height="350" transform="translate(0.476562)" fill="white"/>
<rect width="646" height="350" transform="translate(0.476562)" fill="url(#paint0_linear_1779_62302)"/>
<path d="M278.782 215.67C278.184 216.268 277.463 216.566 276.616 216.566C275.769 216.566 275.033 216.268 274.406 215.67C273.778 215.073 273.465 214.35 273.465 213.505C273.465 212.66 273.778 211.979 274.406 211.382C275.033 210.784 275.769 210.486 276.616 210.486C277.463 210.486 278.184 210.784 278.782 211.382C279.379 211.979 279.678 212.688 279.678 213.505C279.678 214.322 279.379 215.073 278.782 215.67Z" fill="white" fill-opacity="0.4"/>
<path d="M278.782 208.97C278.184 209.568 277.463 209.867 276.616 209.867C275.769 209.867 275.033 209.568 274.406 208.97C273.778 208.373 273.465 207.65 273.465 206.805C273.465 205.96 273.778 205.279 274.406 204.682C275.033 204.085 275.769 203.786 276.616 203.786C277.463 203.786 278.184 204.085 278.782 204.682C279.379 205.279 279.678 205.988 279.678 206.805C279.678 207.622 279.379 208.373 278.782 208.97Z" fill="white" fill-opacity="0.4"/>
<path d="M285.481 219.021C284.884 219.619 284.162 219.918 283.315 219.918C282.468 219.918 281.732 219.619 281.105 219.021C280.478 218.424 280.164 217.701 280.164 216.856C280.164 216.011 280.478 215.33 281.105 214.733C281.732 214.136 282.468 213.837 283.315 213.837C284.162 213.837 284.884 214.136 285.481 214.733C286.078 215.33 286.377 216.039 286.377 216.856C286.377 217.673 286.078 218.424 285.481 219.021Z" fill="white" fill-opacity="0.4"/>
<path d="M285.481 212.321C284.884 212.918 284.162 213.217 283.315 213.217C282.468 213.217 281.732 212.918 281.105 212.321C280.478 211.723 280.164 211 280.164 210.155C280.164 209.31 280.478 208.63 281.105 208.032C281.732 207.435 282.468 207.136 283.315 207.136C284.162 207.136 284.884 207.435 285.481 208.032C286.078 208.63 286.377 209.338 286.377 210.155C286.377 210.972 286.078 211.723 285.481 212.321Z" fill="white" fill-opacity="0.4"/>
<path d="M285.481 205.619C284.884 206.217 284.162 206.515 283.315 206.515C282.468 206.515 281.732 206.217 281.105 205.619C280.478 205.022 280.164 204.299 280.164 203.454C280.164 202.609 280.478 201.928 281.105 201.331C281.732 200.733 282.468 200.435 283.315 200.435C284.162 200.435 284.884 200.733 285.481 201.331C286.078 201.928 286.377 202.637 286.377 203.454C286.377 204.271 286.078 205.022 285.481 205.619Z" fill="white" fill-opacity="0.4"/>
<path d="M285.481 198.919C284.884 199.517 284.162 199.816 283.315 199.816C282.468 199.816 281.732 199.517 281.105 198.919C280.478 198.322 280.164 197.599 280.164 196.754C280.164 195.909 280.478 195.228 281.105 194.631C281.732 194.034 282.468 193.735 283.315 193.735C284.162 193.735 284.884 194.034 285.481 194.631C286.078 195.228 286.377 195.937 286.377 196.754C286.377 197.571 286.078 198.322 285.481 198.919Z" fill="white" fill-opacity="0.4"/>
<path d="M292.182 222.372C291.585 222.969 290.864 223.268 290.017 223.268C289.17 223.268 288.434 222.969 287.807 222.372C287.179 221.774 286.866 221.051 286.866 220.206C286.866 219.361 287.179 218.681 287.807 218.083C288.434 217.486 289.17 217.187 290.017 217.187C290.864 217.187 291.585 217.486 292.182 218.083C292.78 218.681 293.079 219.389 293.079 220.206C293.079 221.023 292.78 221.774 292.182 222.372Z" fill="white" fill-opacity="0.4"/>
<path d="M292.182 215.67C291.585 216.268 290.864 216.566 290.017 216.566C289.17 216.566 288.434 216.268 287.807 215.67C287.179 215.073 286.866 214.35 286.866 213.505C286.866 212.66 287.179 211.979 287.807 211.382C288.434 210.784 289.17 210.486 290.017 210.486C290.864 210.486 291.585 210.784 292.182 211.382C292.78 211.979 293.079 212.688 293.079 213.505C293.079 214.322 292.78 215.073 292.182 215.67Z" fill="white" fill-opacity="0.4"/>
<path d="M292.182 208.97C291.585 209.568 290.864 209.867 290.017 209.867C289.17 209.867 288.434 209.568 287.807 208.97C287.179 208.373 286.866 207.65 286.866 206.805C286.866 205.96 287.179 205.279 287.807 204.682C288.434 204.085 289.17 203.786 290.017 203.786C290.864 203.786 291.585 204.085 292.182 204.682C292.78 205.279 293.079 205.988 293.079 206.805C293.079 207.622 292.78 208.373 292.182 208.97Z" fill="white" fill-opacity="0.4"/>
<path d="M292.182 202.27C291.585 202.867 290.864 203.166 290.017 203.166C289.17 203.166 288.434 202.867 287.807 202.27C287.179 201.672 286.866 200.949 286.866 200.104C286.866 199.259 287.179 198.579 287.807 197.981C288.434 197.384 289.17 197.085 290.017 197.085C290.864 197.085 291.585 197.384 292.182 197.981C292.78 198.579 293.079 199.287 293.079 200.104C293.079 200.921 292.78 201.672 292.182 202.27Z" fill="white" fill-opacity="0.4"/>
<path d="M292.182 195.568C291.585 196.166 290.864 196.464 290.017 196.464C289.17 196.464 288.434 196.166 287.807 195.568C287.179 194.971 286.866 194.248 286.866 193.403C286.866 192.558 287.179 191.877 287.807 191.28C288.434 190.682 289.17 190.384 290.017 190.384C290.864 190.384 291.585 190.682 292.182 191.28C292.78 191.877 293.079 192.586 293.079 193.403C293.079 194.22 292.78 194.971 292.182 195.568Z" fill="white" fill-opacity="0.4"/>
<path d="M292.182 188.868C291.585 189.466 290.864 189.765 290.017 189.765C289.17 189.765 288.434 189.466 287.807 188.868C287.179 188.271 286.866 187.548 286.866 186.703C286.866 185.858 287.179 185.177 287.807 184.58C288.434 183.983 289.17 183.684 290.017 183.684C290.864 183.684 291.585 183.983 292.182 184.58C292.78 185.177 293.079 185.886 293.079 186.703C293.079 187.52 292.78 188.271 292.182 188.868Z" fill="white" fill-opacity="0.4"/>
<path d="M298.884 219.021C298.287 219.619 297.565 219.918 296.718 219.918C295.871 219.918 295.135 219.619 294.508 219.021C293.881 218.424 293.567 217.701 293.567 216.856C293.567 216.011 293.881 215.33 294.508 214.733C295.135 214.136 295.871 213.837 296.718 213.837C297.565 213.837 298.287 214.136 298.884 214.733C299.481 215.33 299.78 216.039 299.78 216.856C299.78 217.673 299.481 218.424 298.884 219.021Z" fill="white" fill-opacity="0.4"/>
<path d="M298.884 212.321C298.287 212.918 297.565 213.217 296.718 213.217C295.871 213.217 295.135 212.918 294.508 212.321C293.881 211.723 293.567 211 293.567 210.155C293.567 209.31 293.881 208.63 294.508 208.032C295.135 207.435 295.871 207.136 296.718 207.136C297.565 207.136 298.287 207.435 298.884 208.032C299.481 208.63 299.78 209.338 299.78 210.155C299.78 210.972 299.481 211.723 298.884 212.321Z" fill="white" fill-opacity="0.4"/>
<path d="M298.884 205.619C298.287 206.217 297.565 206.515 296.718 206.515C295.871 206.515 295.135 206.217 294.508 205.619C293.881 205.022 293.567 204.299 293.567 203.454C293.567 202.609 293.881 201.928 294.508 201.331C295.135 200.733 295.871 200.435 296.718 200.435C297.565 200.435 298.287 200.733 298.884 201.331C299.481 201.928 299.78 202.637 299.78 203.454C299.78 204.271 299.481 205.022 298.884 205.619Z" fill="white" fill-opacity="0.4"/>
<path d="M298.884 198.919C298.287 199.517 297.565 199.816 296.718 199.816C295.871 199.816 295.135 199.517 294.508 198.919C293.881 198.322 293.567 197.599 293.567 196.754C293.567 195.909 293.881 195.228 294.508 194.631C295.135 194.034 295.871 193.735 296.718 193.735C297.565 193.735 298.287 194.034 298.884 194.631C299.481 195.228 299.78 195.937 299.78 196.754C299.78 197.571 299.481 198.322 298.884 198.919Z" fill="white" fill-opacity="0.4"/>
<path d="M298.884 192.218C298.287 192.815 297.565 193.114 296.718 193.114C295.871 193.114 295.135 192.815 294.508 192.218C293.881 191.621 293.567 190.897 293.567 190.052C293.567 189.207 293.881 188.527 294.508 187.929C295.135 187.332 295.871 187.033 296.718 187.033C297.565 187.033 298.287 187.332 298.884 187.929C299.481 188.527 299.78 189.235 299.78 190.052C299.78 190.869 299.481 191.621 298.884 192.218Z" fill="white" fill-opacity="0.4"/>
<path d="M298.884 185.519C298.287 186.116 297.565 186.415 296.718 186.415C295.871 186.415 295.135 186.116 294.508 185.519C293.881 184.922 293.567 184.198 293.567 183.353C293.567 182.509 293.881 181.828 294.508 181.231C295.135 180.633 295.871 180.334 296.718 180.334C297.565 180.334 298.287 180.633 298.884 181.231C299.481 181.828 299.78 182.536 299.78 183.353C299.78 184.171 299.481 184.922 298.884 185.519Z" fill="white" fill-opacity="0.4"/>
<path d="M298.884 178.817C298.287 179.415 297.565 179.714 296.718 179.714C295.871 179.714 295.135 179.415 294.508 178.817C293.881 178.22 293.567 177.497 293.567 176.652C293.567 175.807 293.881 175.126 294.508 174.529C295.135 173.932 295.871 173.633 296.718 173.633C297.565 173.633 298.287 173.932 298.884 174.529C299.481 175.126 299.78 175.835 299.78 176.652C299.78 177.469 299.481 178.22 298.884 178.817Z" fill="white" fill-opacity="0.4"/>
<path d="M305.583 208.97C304.986 209.568 304.265 209.867 303.418 209.867C302.571 209.867 301.835 209.568 301.207 208.97C300.58 208.373 300.267 207.65 300.267 206.805C300.267 205.96 300.58 205.279 301.207 204.682C301.835 204.085 302.571 203.786 303.418 203.786C304.265 203.786 304.986 204.085 305.583 204.682C306.181 205.279 306.479 205.988 306.479 206.805C306.479 207.622 306.181 208.373 305.583 208.97Z" fill="white" fill-opacity="0.4"/>
<path d="M305.583 202.27C304.986 202.867 304.265 203.166 303.418 203.166C302.571 203.166 301.835 202.867 301.207 202.27C300.58 201.672 300.267 200.949 300.267 200.104C300.267 199.259 300.58 198.579 301.207 197.981C301.835 197.384 302.571 197.085 303.418 197.085C304.265 197.085 304.986 197.384 305.583 197.981C306.181 198.579 306.479 199.287 306.479 200.104C306.479 200.921 306.181 201.672 305.583 202.27Z" fill="white" fill-opacity="0.4"/>
<path d="M305.583 195.568C304.986 196.166 304.265 196.464 303.418 196.464C302.571 196.464 301.835 196.166 301.207 195.568C300.58 194.971 300.267 194.248 300.267 193.403C300.267 192.558 300.58 191.877 301.207 191.28C301.835 190.682 302.571 190.384 303.418 190.384C304.265 190.384 304.986 190.682 305.583 191.28C306.181 191.877 306.479 192.586 306.479 193.403C306.479 194.22 306.181 194.971 305.583 195.568Z" fill="white" fill-opacity="0.4"/>
<path d="M305.583 188.868C304.986 189.466 304.265 189.765 303.418 189.765C302.571 189.765 301.835 189.466 301.207 188.868C300.58 188.271 300.267 187.548 300.267 186.703C300.267 185.858 300.58 185.177 301.207 184.58C301.835 183.983 302.571 183.684 303.418 183.684C304.265 183.684 304.986 183.983 305.583 184.58C306.181 185.177 306.479 185.886 306.479 186.703C306.479 187.52 306.181 188.271 305.583 188.868Z" fill="white" fill-opacity="0.4"/>
<path d="M305.583 182.167C304.986 182.764 304.265 183.063 303.418 183.063C302.571 183.063 301.835 182.764 301.207 182.167C300.58 181.569 300.267 180.846 300.267 180.001C300.267 179.156 300.58 178.476 301.207 177.878C301.835 177.281 302.571 176.982 303.418 176.982C304.265 176.982 304.986 177.281 305.583 177.878C306.181 178.476 306.479 179.184 306.479 180.001C306.479 180.818 306.181 181.569 305.583 182.167Z" fill="white" fill-opacity="0.4"/>
<path d="M305.583 175.467C304.986 176.064 304.265 176.363 303.418 176.363C302.571 176.363 301.835 176.064 301.207 175.467C300.58 174.87 300.267 174.146 300.267 173.302C300.267 172.457 300.58 171.776 301.207 171.179C301.835 170.581 302.571 170.283 303.418 170.283C304.265 170.283 304.986 170.581 305.583 171.179C306.181 171.776 306.479 172.484 306.479 173.302C306.479 174.119 306.181 174.87 305.583 175.467Z" fill="white" fill-opacity="0.4"/>
<path d="M305.583 168.766C304.986 169.363 304.265 169.662 303.418 169.662C302.571 169.662 301.835 169.363 301.207 168.766C300.58 168.168 300.267 167.445 300.267 166.6C300.267 165.755 300.58 165.074 301.207 164.477C301.835 163.88 302.571 163.581 303.418 163.581C304.265 163.581 304.986 163.88 305.583 164.477C306.181 165.074 306.479 165.783 306.479 166.6C306.479 167.417 306.181 168.168 305.583 168.766Z" fill="white" fill-opacity="0.4"/>
<path d="M305.583 128.561C304.986 129.159 304.265 129.458 303.418 129.458C302.571 129.458 301.835 129.159 301.207 128.561C300.58 127.964 300.267 127.241 300.267 126.396C300.267 125.551 300.58 124.87 301.207 124.273C301.835 123.676 302.571 123.377 303.418 123.377C304.265 123.377 304.986 123.676 305.583 124.273C306.181 124.87 306.479 125.579 306.479 126.396C306.479 127.213 306.181 127.964 305.583 128.561Z" fill="white" fill-opacity="0.4"/>
<path d="M312.285 212.321C311.687 212.918 310.966 213.217 310.119 213.217C309.272 213.217 308.536 212.918 307.909 212.321C307.282 211.723 306.968 211 306.968 210.155C306.968 209.31 307.282 208.63 307.909 208.032C308.536 207.435 309.272 207.136 310.119 207.136C310.966 207.136 311.687 207.435 312.285 208.032C312.882 208.63 313.181 209.338 313.181 210.155C313.181 210.972 312.882 211.723 312.285 212.321Z" fill="white" fill-opacity="0.4"/>
<path d="M312.285 205.619C311.687 206.217 310.966 206.515 310.119 206.515C309.272 206.515 308.536 206.217 307.909 205.619C307.282 205.022 306.968 204.299 306.968 203.454C306.968 202.609 307.282 201.928 307.909 201.331C308.536 200.733 309.272 200.435 310.119 200.435C310.966 200.435 311.687 200.733 312.285 201.331C312.882 201.928 313.181 202.637 313.181 203.454C313.181 204.271 312.882 205.022 312.285 205.619Z" fill="white" fill-opacity="0.4"/>
<path d="M312.285 198.919C311.687 199.517 310.966 199.816 310.119 199.816C309.272 199.816 308.536 199.517 307.909 198.919C307.282 198.322 306.968 197.599 306.968 196.754C306.968 195.909 307.282 195.228 307.909 194.631C308.536 194.034 309.272 193.735 310.119 193.735C310.966 193.735 311.687 194.034 312.285 194.631C312.882 195.228 313.181 195.937 313.181 196.754C313.181 197.571 312.882 198.322 312.285 198.919Z" fill="white" fill-opacity="0.4"/>
<path d="M312.285 192.218C311.687 192.815 310.966 193.114 310.119 193.114C309.272 193.114 308.536 192.815 307.909 192.218C307.282 191.621 306.968 190.897 306.968 190.052C306.968 189.207 307.282 188.527 307.909 187.929C308.536 187.332 309.272 187.033 310.119 187.033C310.966 187.033 311.687 187.332 312.285 187.929C312.882 188.527 313.181 189.235 313.181 190.052C313.181 190.869 312.882 191.621 312.285 192.218Z" fill="white" fill-opacity="0.4"/>
<path d="M312.285 185.519C311.687 186.116 310.966 186.415 310.119 186.415C309.272 186.415 308.536 186.116 307.909 185.519C307.282 184.922 306.968 184.198 306.968 183.353C306.968 182.509 307.282 181.828 307.909 181.231C308.536 180.633 309.272 180.334 310.119 180.334C310.966 180.334 311.687 180.633 312.285 181.231C312.882 181.828 313.181 182.536 313.181 183.353C313.181 184.171 312.882 184.922 312.285 185.519Z" fill="white" fill-opacity="0.4"/>
<path d="M312.285 178.817C311.687 179.415 310.966 179.714 310.119 179.714C309.272 179.714 308.536 179.415 307.909 178.817C307.282 178.22 306.968 177.497 306.968 176.652C306.968 175.807 307.282 175.126 307.909 174.529C308.536 173.932 309.272 173.633 310.119 173.633C310.966 173.633 311.687 173.932 312.285 174.529C312.882 175.126 313.181 175.835 313.181 176.652C313.181 177.469 312.882 178.22 312.285 178.817Z" fill="white" fill-opacity="0.4"/>
<path d="M312.285 172.116C311.687 172.713 310.966 173.012 310.119 173.012C309.272 173.012 308.536 172.713 307.909 172.116C307.282 171.518 306.968 170.795 306.968 169.95C306.968 169.105 307.282 168.425 307.909 167.827C308.536 167.23 309.272 166.931 310.119 166.931C310.966 166.931 311.687 167.23 312.285 167.827C312.882 168.425 313.181 169.133 313.181 169.95C313.181 170.767 312.882 171.518 312.285 172.116Z" fill="white" fill-opacity="0.4"/>
<path d="M312.285 165.416C311.687 166.013 310.966 166.312 310.119 166.312C309.272 166.312 308.536 166.013 307.909 165.416C307.282 164.819 306.968 164.095 306.968 163.251C306.968 162.406 307.282 161.725 307.909 161.128C308.536 160.53 309.272 160.232 310.119 160.232C310.966 160.232 311.687 160.53 312.285 161.128C312.882 161.725 313.181 162.433 313.181 163.251C313.181 164.068 312.882 164.819 312.285 165.416Z" fill="white" fill-opacity="0.4"/>
<path d="M312.285 158.715C311.687 159.312 310.966 159.611 310.119 159.611C309.272 159.611 308.536 159.312 307.909 158.715C307.282 158.117 306.968 157.394 306.968 156.549C306.968 155.704 307.282 155.023 307.909 154.426C308.536 153.829 309.272 153.53 310.119 153.53C310.966 153.53 311.687 153.829 312.285 154.426C312.882 155.023 313.181 155.732 313.181 156.549C313.181 157.366 312.882 158.117 312.285 158.715Z" fill="white" fill-opacity="0.4"/>
<path d="M312.285 152.014C311.687 152.611 310.966 152.91 310.119 152.91C309.272 152.91 308.536 152.611 307.909 152.014C307.282 151.416 306.968 150.693 306.968 149.848C306.968 149.003 307.282 148.323 307.909 147.725C308.536 147.128 309.272 146.829 310.119 146.829C310.966 146.829 311.687 147.128 312.285 147.725C312.882 148.323 313.181 149.031 313.181 149.848C313.181 150.665 312.882 151.416 312.285 152.014Z" fill="white" fill-opacity="0.4"/>
<path d="M312.285 145.314C311.687 145.911 310.966 146.21 310.119 146.21C309.272 146.21 308.536 145.911 307.909 145.314C307.282 144.717 306.968 143.993 306.968 143.149C306.968 142.304 307.282 141.623 307.909 141.026C308.536 140.428 309.272 140.13 310.119 140.13C310.966 140.13 311.687 140.428 312.285 141.026C312.882 141.623 313.181 142.331 313.181 143.149C313.181 143.966 312.882 144.717 312.285 145.314Z" fill="white" fill-opacity="0.4"/>
<path d="M312.285 131.911C311.687 132.508 310.966 132.807 310.119 132.807C309.272 132.807 308.536 132.508 307.909 131.911C307.282 131.314 306.968 130.59 306.968 129.745C306.968 128.9 307.282 128.22 307.909 127.622C308.536 127.025 309.272 126.726 310.119 126.726C310.966 126.726 311.687 127.025 312.285 127.622C312.882 128.22 313.181 128.928 313.181 129.745C313.181 130.563 312.882 131.314 312.285 131.911Z" fill="white" fill-opacity="0.4"/>
<path d="M318.986 222.372C318.389 222.969 317.668 223.268 316.821 223.268C315.974 223.268 315.238 222.969 314.61 222.372C313.983 221.774 313.669 221.051 313.669 220.206C313.669 219.361 313.983 218.681 314.61 218.083C315.238 217.486 315.974 217.187 316.821 217.187C317.668 217.187 318.389 217.486 318.986 218.083C319.584 218.681 319.882 219.389 319.882 220.206C319.882 221.023 319.584 221.774 318.986 222.372Z" fill="white" fill-opacity="0.4"/>
<path d="M318.986 215.67C318.389 216.268 317.668 216.566 316.821 216.566C315.974 216.566 315.238 216.268 314.61 215.67C313.983 215.073 313.669 214.35 313.669 213.505C313.669 212.66 313.983 211.979 314.61 211.382C315.238 210.784 315.974 210.486 316.821 210.486C317.668 210.486 318.389 210.784 318.986 211.382C319.584 211.979 319.882 212.688 319.882 213.505C319.882 214.322 319.584 215.073 318.986 215.67Z" fill="white" fill-opacity="0.4"/>
<path d="M318.986 208.97C318.389 209.568 317.668 209.867 316.821 209.867C315.974 209.867 315.238 209.568 314.61 208.97C313.983 208.373 313.669 207.65 313.669 206.805C313.669 205.96 313.983 205.279 314.61 204.682C315.238 204.085 315.974 203.786 316.821 203.786C317.668 203.786 318.389 204.085 318.986 204.682C319.584 205.279 319.882 205.988 319.882 206.805C319.882 207.622 319.584 208.373 318.986 208.97Z" fill="white" fill-opacity="0.4"/>
<path d="M318.986 202.27C318.389 202.867 317.668 203.166 316.821 203.166C315.974 203.166 315.238 202.867 314.61 202.27C313.983 201.672 313.669 200.949 313.669 200.104C313.669 199.259 313.983 198.579 314.61 197.981C315.238 197.384 315.974 197.085 316.821 197.085C317.668 197.085 318.389 197.384 318.986 197.981C319.584 198.579 319.882 199.287 319.882 200.104C319.882 200.921 319.584 201.672 318.986 202.27Z" fill="white" fill-opacity="0.4"/>
<path d="M318.986 195.568C318.389 196.166 317.668 196.464 316.821 196.464C315.974 196.464 315.238 196.166 314.61 195.568C313.983 194.971 313.669 194.248 313.669 193.403C313.669 192.558 313.983 191.877 314.61 191.28C315.238 190.682 315.974 190.384 316.821 190.384C317.668 190.384 318.389 190.682 318.986 191.28C319.584 191.877 319.882 192.586 319.882 193.403C319.882 194.22 319.584 194.971 318.986 195.568Z" fill="white" fill-opacity="0.4"/>
<path d="M318.986 188.868C318.389 189.466 317.668 189.765 316.821 189.765C315.974 189.765 315.238 189.466 314.61 188.868C313.983 188.271 313.669 187.548 313.669 186.703C313.669 185.858 313.983 185.177 314.61 184.58C315.238 183.983 315.974 183.684 316.821 183.684C317.668 183.684 318.389 183.983 318.986 184.58C319.584 185.177 319.882 185.886 319.882 186.703C319.882 187.52 319.584 188.271 318.986 188.868Z" fill="white" fill-opacity="0.4"/>
<path d="M318.986 182.167C318.389 182.764 317.668 183.063 316.821 183.063C315.974 183.063 315.238 182.764 314.61 182.167C313.983 181.569 313.669 180.846 313.669 180.001C313.669 179.156 313.983 178.476 314.61 177.878C315.238 177.281 315.974 176.982 316.821 176.982C317.668 176.982 318.389 177.281 318.986 177.878C319.584 178.476 319.882 179.184 319.882 180.001C319.882 180.818 319.584 181.569 318.986 182.167Z" fill="white" fill-opacity="0.4"/>
<path d="M318.986 175.467C318.389 176.064 317.668 176.363 316.821 176.363C315.974 176.363 315.238 176.064 314.61 175.467C313.983 174.87 313.669 174.146 313.669 173.302C313.669 172.457 313.983 171.776 314.61 171.179C315.238 170.581 315.974 170.283 316.821 170.283C317.668 170.283 318.389 170.581 318.986 171.179C319.584 171.776 319.882 172.484 319.882 173.302C319.882 174.119 319.584 174.87 318.986 175.467Z" fill="white" fill-opacity="0.4"/>
<path d="M318.986 168.766C318.389 169.363 317.668 169.662 316.821 169.662C315.974 169.662 315.238 169.363 314.61 168.766C313.983 168.168 313.669 167.445 313.669 166.6C313.669 165.755 313.983 165.074 314.61 164.477C315.238 163.88 315.974 163.581 316.821 163.581C317.668 163.581 318.389 163.88 318.986 164.477C319.584 165.074 319.882 165.783 319.882 166.6C319.882 167.417 319.584 168.168 318.986 168.766Z" fill="white" fill-opacity="0.4"/>
<path d="M318.986 162.065C318.389 162.662 317.668 162.961 316.821 162.961C315.974 162.961 315.238 162.662 314.61 162.065C313.983 161.467 313.669 160.744 313.669 159.899C313.669 159.054 313.983 158.374 314.61 157.776C315.238 157.179 315.974 156.88 316.821 156.88C317.668 156.88 318.389 157.179 318.986 157.776C319.584 158.374 319.882 159.082 319.882 159.899C319.882 160.716 319.584 161.467 318.986 162.065Z" fill="white" fill-opacity="0.4"/>
<path d="M318.986 155.365C318.389 155.962 317.668 156.261 316.821 156.261C315.974 156.261 315.238 155.962 314.61 155.365C313.983 154.768 313.669 154.044 313.669 153.2C313.669 152.355 313.983 151.674 314.61 151.077C315.238 150.479 315.974 150.181 316.821 150.181C317.668 150.181 318.389 150.479 318.986 151.077C319.584 151.674 319.882 152.382 319.882 153.2C319.882 154.017 319.584 154.768 318.986 155.365Z" fill="white" fill-opacity="0.4"/>
<path d="M318.986 148.664C318.389 149.261 317.668 149.56 316.821 149.56C315.974 149.56 315.238 149.261 314.61 148.664C313.983 148.066 313.669 147.343 313.669 146.498C313.669 145.653 313.983 144.972 314.61 144.375C315.238 143.778 315.974 143.479 316.821 143.479C317.668 143.479 318.389 143.778 318.986 144.375C319.584 144.972 319.882 145.681 319.882 146.498C319.882 147.315 319.584 148.066 318.986 148.664Z" fill="white" fill-opacity="0.4"/>
<path d="M318.986 141.963C318.389 142.56 317.668 142.859 316.821 142.859C315.974 142.859 315.238 142.56 314.61 141.963C313.983 141.365 313.669 140.642 313.669 139.797C313.669 138.952 313.983 138.272 314.61 137.674C315.238 137.077 315.974 136.778 316.821 136.778C317.668 136.778 318.389 137.077 318.986 137.674C319.584 138.272 319.882 138.98 319.882 139.797C319.882 140.614 319.584 141.365 318.986 141.963Z" fill="white" fill-opacity="0.4"/>
<path d="M318.986 135.263C318.389 135.86 317.668 136.159 316.821 136.159C315.974 136.159 315.238 135.86 314.61 135.263C313.983 134.666 313.669 133.942 313.669 133.098C313.669 132.253 313.983 131.572 314.61 130.975C315.238 130.377 315.974 130.079 316.821 130.079C317.668 130.079 318.389 130.377 318.986 130.975C319.584 131.572 319.882 132.28 319.882 133.098C319.882 133.915 319.584 134.666 318.986 135.263Z" fill="white" fill-opacity="0.4"/>
<path d="M325.686 225.721C325.088 226.319 324.367 226.617 323.52 226.617C322.673 226.617 321.937 226.319 321.31 225.721C320.682 225.124 320.369 224.401 320.369 223.556C320.369 222.711 320.682 222.03 321.31 221.433C321.937 220.835 322.673 220.537 323.52 220.537C324.367 220.537 325.088 220.835 325.686 221.433C326.283 222.03 326.582 222.739 326.582 223.556C326.582 224.373 326.283 225.124 325.686 225.721Z" fill="white" fill-opacity="0.4"/>
<path d="M325.686 219.021C325.088 219.619 324.367 219.918 323.52 219.918C322.673 219.918 321.937 219.619 321.31 219.021C320.682 218.424 320.369 217.701 320.369 216.856C320.369 216.011 320.682 215.33 321.31 214.733C321.937 214.136 322.673 213.837 323.52 213.837C324.367 213.837 325.088 214.136 325.686 214.733C326.283 215.33 326.582 216.039 326.582 216.856C326.582 217.673 326.283 218.424 325.686 219.021Z" fill="white" fill-opacity="0.4"/>
<path d="M325.686 212.321C325.088 212.918 324.367 213.217 323.52 213.217C322.673 213.217 321.937 212.918 321.31 212.321C320.682 211.723 320.369 211 320.369 210.155C320.369 209.31 320.682 208.63 321.31 208.032C321.937 207.435 322.673 207.136 323.52 207.136C324.367 207.136 325.088 207.435 325.686 208.032C326.283 208.63 326.582 209.338 326.582 210.155C326.582 210.972 326.283 211.723 325.686 212.321Z" fill="white" fill-opacity="0.4"/>
<path d="M325.686 205.619C325.088 206.217 324.367 206.515 323.52 206.515C322.673 206.515 321.937 206.217 321.31 205.619C320.682 205.022 320.369 204.299 320.369 203.454C320.369 202.609 320.682 201.928 321.31 201.331C321.937 200.733 322.673 200.435 323.52 200.435C324.367 200.435 325.088 200.733 325.686 201.331C326.283 201.928 326.582 202.637 326.582 203.454C326.582 204.271 326.283 205.022 325.686 205.619Z" fill="white" fill-opacity="0.4"/>
<path d="M325.686 198.919C325.088 199.517 324.367 199.816 323.52 199.816C322.673 199.816 321.937 199.517 321.31 198.919C320.682 198.322 320.369 197.599 320.369 196.754C320.369 195.909 320.682 195.228 321.31 194.631C321.937 194.034 322.673 193.735 323.52 193.735C324.367 193.735 325.088 194.034 325.686 194.631C326.283 195.228 326.582 195.937 326.582 196.754C326.582 197.571 326.283 198.322 325.686 198.919Z" fill="white" fill-opacity="0.4"/>
<path d="M325.686 192.218C325.088 192.815 324.367 193.114 323.52 193.114C322.673 193.114 321.937 192.815 321.31 192.218C320.682 191.621 320.369 190.897 320.369 190.052C320.369 189.207 320.682 188.527 321.31 187.929C321.937 187.332 322.673 187.033 323.52 187.033C324.367 187.033 325.088 187.332 325.686 187.929C326.283 188.527 326.582 189.235 326.582 190.052C326.582 190.869 326.283 191.621 325.686 192.218Z" fill="white" fill-opacity="0.4"/>
<path d="M325.686 185.519C325.088 186.116 324.367 186.415 323.52 186.415C322.673 186.415 321.937 186.116 321.31 185.519C320.682 184.922 320.369 184.198 320.369 183.353C320.369 182.509 320.682 181.828 321.31 181.231C321.937 180.633 322.673 180.334 323.52 180.334C324.367 180.334 325.088 180.633 325.686 181.231C326.283 181.828 326.582 182.536 326.582 183.353C326.582 184.171 326.283 184.922 325.686 185.519Z" fill="white" fill-opacity="0.4"/>
<path d="M325.686 178.817C325.088 179.415 324.367 179.714 323.52 179.714C322.673 179.714 321.937 179.415 321.31 178.817C320.682 178.22 320.369 177.497 320.369 176.652C320.369 175.807 320.682 175.126 321.31 174.529C321.937 173.932 322.673 173.633 323.52 173.633C324.367 173.633 325.088 173.932 325.686 174.529C326.283 175.126 326.582 175.835 326.582 176.652C326.582 177.469 326.283 178.22 325.686 178.817Z" fill="white" fill-opacity="0.4"/>
<path d="M325.686 172.116C325.088 172.713 324.367 173.012 323.52 173.012C322.673 173.012 321.937 172.713 321.31 172.116C320.682 171.518 320.369 170.795 320.369 169.95C320.369 169.105 320.682 168.425 321.31 167.827C321.937 167.23 322.673 166.931 323.52 166.931C324.367 166.931 325.088 167.23 325.686 167.827C326.283 168.425 326.582 169.133 326.582 169.95C326.582 170.767 326.283 171.518 325.686 172.116Z" fill="white" fill-opacity="0.4"/>
<path d="M325.686 165.416C325.088 166.013 324.367 166.312 323.52 166.312C322.673 166.312 321.937 166.013 321.31 165.416C320.682 164.819 320.369 164.095 320.369 163.251C320.369 162.406 320.682 161.725 321.31 161.128C321.937 160.53 322.673 160.232 323.52 160.232C324.367 160.232 325.088 160.53 325.686 161.128C326.283 161.725 326.582 162.433 326.582 163.251C326.582 164.068 326.283 164.819 325.686 165.416Z" fill="white" fill-opacity="0.4"/>
<path d="M325.686 158.715C325.088 159.312 324.367 159.611 323.52 159.611C322.673 159.611 321.937 159.312 321.31 158.715C320.682 158.117 320.369 157.394 320.369 156.549C320.369 155.704 320.682 155.023 321.31 154.426C321.937 153.829 322.673 153.53 323.52 153.53C324.367 153.53 325.088 153.829 325.686 154.426C326.283 155.023 326.582 155.732 326.582 156.549C326.582 157.366 326.283 158.117 325.686 158.715Z" fill="white" fill-opacity="0.4"/>
<path d="M325.686 152.014C325.088 152.611 324.367 152.91 323.52 152.91C322.673 152.91 321.937 152.611 321.31 152.014C320.682 151.416 320.369 150.693 320.369 149.848C320.369 149.003 320.682 148.323 321.31 147.725C321.937 147.128 322.673 146.829 323.52 146.829C324.367 146.829 325.088 147.128 325.686 147.725C326.283 148.323 326.582 149.031 326.582 149.848C326.582 150.665 326.283 151.416 325.686 152.014Z" fill="white" fill-opacity="0.4"/>
<path d="M325.686 145.314C325.088 145.911 324.367 146.21 323.52 146.21C322.673 146.21 321.937 145.911 321.31 145.314C320.682 144.717 320.369 143.993 320.369 143.149C320.369 142.304 320.682 141.623 321.31 141.026C321.937 140.428 322.673 140.13 323.52 140.13C324.367 140.13 325.088 140.428 325.686 141.026C326.283 141.623 326.582 142.331 326.582 143.149C326.582 143.966 326.283 144.717 325.686 145.314Z" fill="white" fill-opacity="0.4"/>
<path d="M325.686 138.612C325.088 139.21 324.367 139.509 323.52 139.509C322.673 139.509 321.937 139.21 321.31 138.612C320.682 138.015 320.369 137.292 320.369 136.447C320.369 135.602 320.682 134.921 321.31 134.324C321.937 133.727 322.673 133.428 323.52 133.428C324.367 133.428 325.088 133.727 325.686 134.324C326.283 134.921 326.582 135.63 326.582 136.447C326.582 137.264 326.283 138.015 325.686 138.612Z" fill="white" fill-opacity="0.4"/>
<path d="M332.387 222.372C331.79 222.969 331.069 223.268 330.222 223.268C329.374 223.268 328.638 222.969 328.011 222.372C327.384 221.774 327.07 221.051 327.07 220.206C327.07 219.361 327.384 218.681 328.011 218.083C328.638 217.486 329.374 217.187 330.222 217.187C331.069 217.187 331.79 217.486 332.387 218.083C332.984 218.681 333.283 219.389 333.283 220.206C333.283 221.023 332.984 221.774 332.387 222.372Z" fill="white" fill-opacity="0.4"/>
<path d="M332.387 215.67C331.79 216.268 331.069 216.566 330.222 216.566C329.374 216.566 328.638 216.268 328.011 215.67C327.384 215.073 327.07 214.35 327.07 213.505C327.07 212.66 327.384 211.979 328.011 211.382C328.638 210.784 329.374 210.486 330.222 210.486C331.069 210.486 331.79 210.784 332.387 211.382C332.984 211.979 333.283 212.688 333.283 213.505C333.283 214.322 332.984 215.073 332.387 215.67Z" fill="white" fill-opacity="0.4"/>
<path d="M332.387 208.97C331.79 209.568 331.069 209.867 330.222 209.867C329.374 209.867 328.638 209.568 328.011 208.97C327.384 208.373 327.07 207.65 327.07 206.805C327.07 205.96 327.384 205.279 328.011 204.682C328.638 204.085 329.374 203.786 330.222 203.786C331.069 203.786 331.79 204.085 332.387 204.682C332.984 205.279 333.283 205.988 333.283 206.805C333.283 207.622 332.984 208.373 332.387 208.97Z" fill="white" fill-opacity="0.4"/>
<path d="M332.387 202.27C331.79 202.867 331.069 203.166 330.222 203.166C329.374 203.166 328.638 202.867 328.011 202.27C327.384 201.672 327.07 200.949 327.07 200.104C327.07 199.259 327.384 198.579 328.011 197.981C328.638 197.384 329.374 197.085 330.222 197.085C331.069 197.085 331.79 197.384 332.387 197.981C332.984 198.579 333.283 199.287 333.283 200.104C333.283 200.921 332.984 201.672 332.387 202.27Z" fill="white" fill-opacity="0.4"/>
<path d="M332.387 195.568C331.79 196.166 331.069 196.464 330.222 196.464C329.374 196.464 328.638 196.166 328.011 195.568C327.384 194.971 327.07 194.248 327.07 193.403C327.07 192.558 327.384 191.877 328.011 191.28C328.638 190.682 329.374 190.384 330.222 190.384C331.069 190.384 331.79 190.682 332.387 191.28C332.984 191.877 333.283 192.586 333.283 193.403C333.283 194.22 332.984 194.971 332.387 195.568Z" fill="white" fill-opacity="0.4"/>
<path d="M332.387 188.868C331.79 189.466 331.069 189.765 330.222 189.765C329.374 189.765 328.638 189.466 328.011 188.868C327.384 188.271 327.07 187.548 327.07 186.703C327.07 185.858 327.384 185.177 328.011 184.58C328.638 183.983 329.374 183.684 330.222 183.684C331.069 183.684 331.79 183.983 332.387 184.58C332.984 185.177 333.283 185.886 333.283 186.703C333.283 187.52 332.984 188.271 332.387 188.868Z" fill="white" fill-opacity="0.4"/>
<path d="M332.387 182.167C331.79 182.764 331.069 183.063 330.222 183.063C329.374 183.063 328.638 182.764 328.011 182.167C327.384 181.569 327.07 180.846 327.07 180.001C327.07 179.156 327.384 178.476 328.011 177.878C328.638 177.281 329.374 176.982 330.222 176.982C331.069 176.982 331.79 177.281 332.387 177.878C332.984 178.476 333.283 179.184 333.283 180.001C333.283 180.818 332.984 181.569 332.387 182.167Z" fill="white" fill-opacity="0.4"/>
<path d="M332.387 175.467C331.79 176.064 331.069 176.363 330.222 176.363C329.374 176.363 328.638 176.064 328.011 175.467C327.384 174.87 327.07 174.146 327.07 173.302C327.07 172.457 327.384 171.776 328.011 171.179C328.638 170.581 329.374 170.283 330.222 170.283C331.069 170.283 331.79 170.581 332.387 171.179C332.984 171.776 333.283 172.484 333.283 173.302C333.283 174.119 332.984 174.87 332.387 175.467Z" fill="white" fill-opacity="0.4"/>
<path d="M332.387 168.766C331.79 169.363 331.069 169.662 330.222 169.662C329.374 169.662 328.638 169.363 328.011 168.766C327.384 168.168 327.07 167.445 327.07 166.6C327.07 165.755 327.384 165.074 328.011 164.477C328.638 163.88 329.374 163.581 330.222 163.581C331.069 163.581 331.79 163.88 332.387 164.477C332.984 165.074 333.283 165.783 333.283 166.6C333.283 167.417 332.984 168.168 332.387 168.766Z" fill="white" fill-opacity="0.4"/>
<path d="M332.387 162.065C331.79 162.662 331.069 162.961 330.222 162.961C329.374 162.961 328.638 162.662 328.011 162.065C327.384 161.467 327.07 160.744 327.07 159.899C327.07 159.054 327.384 158.374 328.011 157.776C328.638 157.179 329.374 156.88 330.222 156.88C331.069 156.88 331.79 157.179 332.387 157.776C332.984 158.374 333.283 159.082 333.283 159.899C333.283 160.716 332.984 161.467 332.387 162.065Z" fill="white" fill-opacity="0.4"/>
<path d="M332.387 155.365C331.79 155.962 331.069 156.261 330.222 156.261C329.374 156.261 328.638 155.962 328.011 155.365C327.384 154.768 327.07 154.044 327.07 153.2C327.07 152.355 327.384 151.674 328.011 151.077C328.638 150.479 329.374 150.181 330.222 150.181C331.069 150.181 331.79 150.479 332.387 151.077C332.984 151.674 333.283 152.382 333.283 153.2C333.283 154.017 332.984 154.768 332.387 155.365Z" fill="white" fill-opacity="0.4"/>
<path d="M332.387 148.664C331.79 149.261 331.069 149.56 330.222 149.56C329.374 149.56 328.638 149.261 328.011 148.664C327.384 148.066 327.07 147.343 327.07 146.498C327.07 145.653 327.384 144.972 328.011 144.375C328.638 143.778 329.374 143.479 330.222 143.479C331.069 143.479 331.79 143.778 332.387 144.375C332.984 144.972 333.283 145.681 333.283 146.498C333.283 147.315 332.984 148.066 332.387 148.664Z" fill="white" fill-opacity="0.4"/>
<path d="M332.387 141.963C331.79 142.56 331.069 142.859 330.222 142.859C329.374 142.859 328.638 142.56 328.011 141.963C327.384 141.365 327.07 140.642 327.07 139.797C327.07 138.952 327.384 138.272 328.011 137.674C328.638 137.077 329.374 136.778 330.222 136.778C331.069 136.778 331.79 137.077 332.387 137.674C332.984 138.272 333.283 138.98 333.283 139.797C333.283 140.614 332.984 141.365 332.387 141.963Z" fill="white" fill-opacity="0.4"/>
<path d="M332.387 135.263C331.79 135.86 331.069 136.159 330.222 136.159C329.374 136.159 328.638 135.86 328.011 135.263C327.384 134.666 327.07 133.942 327.07 133.098C327.07 132.253 327.384 131.572 328.011 130.975C328.638 130.377 329.374 130.079 330.222 130.079C331.069 130.079 331.79 130.377 332.387 130.975C332.984 131.572 333.283 132.28 333.283 133.098C333.283 133.915 332.984 134.666 332.387 135.263Z" fill="white" fill-opacity="0.4"/>
<path d="M339.086 212.321C338.489 212.918 337.768 213.217 336.921 213.217C336.074 213.217 335.338 212.918 334.71 212.321C334.083 211.723 333.77 211 333.77 210.155C333.77 209.31 334.083 208.63 334.71 208.032C335.338 207.435 336.074 207.136 336.921 207.136C337.768 207.136 338.489 207.435 339.086 208.032C339.684 208.63 339.982 209.338 339.982 210.155C339.982 210.972 339.684 211.723 339.086 212.321Z" fill="white" fill-opacity="0.4"/>
<path d="M339.086 205.619C338.489 206.217 337.768 206.515 336.921 206.515C336.074 206.515 335.338 206.217 334.71 205.619C334.083 205.022 333.77 204.299 333.77 203.454C333.77 202.609 334.083 201.928 334.71 201.331C335.338 200.733 336.074 200.435 336.921 200.435C337.768 200.435 338.489 200.733 339.086 201.331C339.684 201.928 339.982 202.637 339.982 203.454C339.982 204.271 339.684 205.022 339.086 205.619Z" fill="white" fill-opacity="0.4"/>
<path d="M339.086 198.919C338.489 199.517 337.768 199.816 336.921 199.816C336.074 199.816 335.338 199.517 334.71 198.919C334.083 198.322 333.77 197.599 333.77 196.754C333.77 195.909 334.083 195.228 334.71 194.631C335.338 194.034 336.074 193.735 336.921 193.735C337.768 193.735 338.489 194.034 339.086 194.631C339.684 195.228 339.982 195.937 339.982 196.754C339.982 197.571 339.684 198.322 339.086 198.919Z" fill="white" fill-opacity="0.4"/>
<path d="M339.086 192.218C338.489 192.815 337.768 193.114 336.921 193.114C336.074 193.114 335.338 192.815 334.71 192.218C334.083 191.621 333.77 190.897 333.77 190.052C333.77 189.207 334.083 188.527 334.71 187.929C335.338 187.332 336.074 187.033 336.921 187.033C337.768 187.033 338.489 187.332 339.086 187.929C339.684 188.527 339.982 189.235 339.982 190.052C339.982 190.869 339.684 191.621 339.086 192.218Z" fill="white" fill-opacity="0.4"/>
<path d="M339.086 185.519C338.489 186.116 337.768 186.415 336.921 186.415C336.074 186.415 335.338 186.116 334.71 185.519C334.083 184.922 333.77 184.198 333.77 183.353C333.77 182.509 334.083 181.828 334.71 181.231C335.338 180.633 336.074 180.334 336.921 180.334C337.768 180.334 338.489 180.633 339.086 181.231C339.684 181.828 339.982 182.536 339.982 183.353C339.982 184.171 339.684 184.922 339.086 185.519Z" fill="white" fill-opacity="0.4"/>
<path d="M339.086 178.817C338.489 179.415 337.768 179.714 336.921 179.714C336.074 179.714 335.338 179.415 334.71 178.817C334.083 178.22 333.77 177.497 333.77 176.652C333.77 175.807 334.083 175.126 334.71 174.529C335.338 173.932 336.074 173.633 336.921 173.633C337.768 173.633 338.489 173.932 339.086 174.529C339.684 175.126 339.982 175.835 339.982 176.652C339.982 177.469 339.684 178.22 339.086 178.817Z" fill="white" fill-opacity="0.4"/>
<path d="M339.086 172.116C338.489 172.713 337.768 173.012 336.921 173.012C336.074 173.012 335.338 172.713 334.71 172.116C334.083 171.518 333.77 170.795 333.77 169.95C333.77 169.105 334.083 168.425 334.71 167.827C335.338 167.23 336.074 166.931 336.921 166.931C337.768 166.931 338.489 167.23 339.086 167.827C339.684 168.425 339.982 169.133 339.982 169.95C339.982 170.767 339.684 171.518 339.086 172.116Z" fill="white" fill-opacity="0.4"/>
<path d="M339.086 165.416C338.489 166.013 337.768 166.312 336.921 166.312C336.074 166.312 335.338 166.013 334.71 165.416C334.083 164.819 333.77 164.095 333.77 163.251C333.77 162.406 334.083 161.725 334.71 161.128C335.338 160.53 336.074 160.232 336.921 160.232C337.768 160.232 338.489 160.53 339.086 161.128C339.684 161.725 339.982 162.433 339.982 163.251C339.982 164.068 339.684 164.819 339.086 165.416Z" fill="white" fill-opacity="0.4"/>
<path d="M339.086 158.715C338.489 159.312 337.768 159.611 336.921 159.611C336.074 159.611 335.338 159.312 334.71 158.715C334.083 158.117 333.77 157.394 333.77 156.549C333.77 155.704 334.083 155.023 334.71 154.426C335.338 153.829 336.074 153.53 336.921 153.53C337.768 153.53 338.489 153.829 339.086 154.426C339.684 155.023 339.982 155.732 339.982 156.549C339.982 157.366 339.684 158.117 339.086 158.715Z" fill="white" fill-opacity="0.4"/>
<path d="M339.086 152.014C338.489 152.611 337.768 152.91 336.921 152.91C336.074 152.91 335.338 152.611 334.71 152.014C334.083 151.416 333.77 150.693 333.77 149.848C333.77 149.003 334.083 148.323 334.71 147.725C335.338 147.128 336.074 146.829 336.921 146.829C337.768 146.829 338.489 147.128 339.086 147.725C339.684 148.323 339.982 149.031 339.982 149.848C339.982 150.665 339.684 151.416 339.086 152.014Z" fill="white" fill-opacity="0.4"/>
<path d="M339.086 145.314C338.489 145.911 337.768 146.21 336.921 146.21C336.074 146.21 335.338 145.911 334.71 145.314C334.083 144.717 333.77 143.993 333.77 143.149C333.77 142.304 334.083 141.623 334.71 141.026C335.338 140.428 336.074 140.13 336.921 140.13C337.768 140.13 338.489 140.428 339.086 141.026C339.684 141.623 339.982 142.331 339.982 143.149C339.982 143.966 339.684 144.717 339.086 145.314Z" fill="white" fill-opacity="0.4"/>
<path d="M339.086 131.911C338.489 132.508 337.768 132.807 336.921 132.807C336.074 132.807 335.338 132.508 334.71 131.911C334.083 131.314 333.77 130.59 333.77 129.745C333.77 128.9 334.083 128.22 334.71 127.622C335.338 127.025 336.074 126.726 336.921 126.726C337.768 126.726 338.489 127.025 339.086 127.622C339.684 128.22 339.982 128.928 339.982 129.745C339.982 130.563 339.684 131.314 339.086 131.911Z" fill="white" fill-opacity="0.4"/>
<path d="M345.788 208.97C345.191 209.568 344.469 209.867 343.622 209.867C342.775 209.867 342.039 209.568 341.412 208.97C340.785 208.373 340.471 207.65 340.471 206.805C340.471 205.96 340.785 205.279 341.412 204.682C342.039 204.085 342.775 203.786 343.622 203.786C344.469 203.786 345.191 204.085 345.788 204.682C346.385 205.279 346.684 205.988 346.684 206.805C346.684 207.622 346.385 208.373 345.788 208.97Z" fill="white" fill-opacity="0.4"/>
<path d="M345.788 202.27C345.191 202.867 344.469 203.166 343.622 203.166C342.775 203.166 342.039 202.867 341.412 202.27C340.785 201.672 340.471 200.949 340.471 200.104C340.471 199.259 340.785 198.579 341.412 197.981C342.039 197.384 342.775 197.085 343.622 197.085C344.469 197.085 345.191 197.384 345.788 197.981C346.385 198.579 346.684 199.287 346.684 200.104C346.684 200.921 346.385 201.672 345.788 202.27Z" fill="white" fill-opacity="0.4"/>
<path d="M345.788 195.568C345.191 196.166 344.469 196.464 343.622 196.464C342.775 196.464 342.039 196.166 341.412 195.568C340.785 194.971 340.471 194.248 340.471 193.403C340.471 192.558 340.785 191.877 341.412 191.28C342.039 190.682 342.775 190.384 343.622 190.384C344.469 190.384 345.191 190.682 345.788 191.28C346.385 191.877 346.684 192.586 346.684 193.403C346.684 194.22 346.385 194.971 345.788 195.568Z" fill="white" fill-opacity="0.4"/>
<path d="M345.788 188.868C345.191 189.466 344.469 189.765 343.622 189.765C342.775 189.765 342.039 189.466 341.412 188.868C340.785 188.271 340.471 187.548 340.471 186.703C340.471 185.858 340.785 185.177 341.412 184.58C342.039 183.983 342.775 183.684 343.622 183.684C344.469 183.684 345.191 183.983 345.788 184.58C346.385 185.177 346.684 185.886 346.684 186.703C346.684 187.52 346.385 188.271 345.788 188.868Z" fill="white" fill-opacity="0.4"/>
<path d="M345.788 182.167C345.191 182.764 344.469 183.063 343.622 183.063C342.775 183.063 342.039 182.764 341.412 182.167C340.785 181.569 340.471 180.846 340.471 180.001C340.471 179.156 340.785 178.476 341.412 177.878C342.039 177.281 342.775 176.982 343.622 176.982C344.469 176.982 345.191 177.281 345.788 177.878C346.385 178.476 346.684 179.184 346.684 180.001C346.684 180.818 346.385 181.569 345.788 182.167Z" fill="white" fill-opacity="0.4"/>
<path d="M345.788 175.467C345.191 176.064 344.469 176.363 343.622 176.363C342.775 176.363 342.039 176.064 341.412 175.467C340.785 174.87 340.471 174.146 340.471 173.302C340.471 172.457 340.785 171.776 341.412 171.179C342.039 170.581 342.775 170.283 343.622 170.283C344.469 170.283 345.191 170.581 345.788 171.179C346.385 171.776 346.684 172.484 346.684 173.302C346.684 174.119 346.385 174.87 345.788 175.467Z" fill="white" fill-opacity="0.4"/>
<path d="M345.788 168.766C345.191 169.363 344.469 169.662 343.622 169.662C342.775 169.662 342.039 169.363 341.412 168.766C340.785 168.168 340.471 167.445 340.471 166.6C340.471 165.755 340.785 165.074 341.412 164.477C342.039 163.88 342.775 163.581 343.622 163.581C344.469 163.581 345.191 163.88 345.788 164.477C346.385 165.074 346.684 165.783 346.684 166.6C346.684 167.417 346.385 168.168 345.788 168.766Z" fill="white" fill-opacity="0.4"/>
<path d="M345.788 128.561C345.191 129.159 344.469 129.458 343.622 129.458C342.775 129.458 342.039 129.159 341.412 128.561C340.785 127.964 340.471 127.241 340.471 126.396C340.471 125.551 340.785 124.87 341.412 124.273C342.039 123.676 342.775 123.377 343.622 123.377C344.469 123.377 345.191 123.676 345.788 124.273C346.385 124.87 346.684 125.579 346.684 126.396C346.684 127.213 346.385 127.964 345.788 128.561Z" fill="white" fill-opacity="0.4"/>
<path d="M352.489 219.021C351.892 219.619 351.171 219.918 350.324 219.918C349.477 219.918 348.741 219.619 348.114 219.021C347.486 218.424 347.173 217.701 347.173 216.856C347.173 216.011 347.486 215.33 348.114 214.733C348.741 214.136 349.477 213.837 350.324 213.837C351.171 213.837 351.892 214.136 352.489 214.733C353.087 215.33 353.386 216.039 353.386 216.856C353.386 217.673 353.087 218.424 352.489 219.021Z" fill="white" fill-opacity="0.4"/>
<path d="M352.489 212.321C351.892 212.918 351.171 213.217 350.324 213.217C349.477 213.217 348.741 212.918 348.114 212.321C347.486 211.723 347.173 211 347.173 210.155C347.173 209.31 347.486 208.63 348.114 208.032C348.741 207.435 349.477 207.136 350.324 207.136C351.171 207.136 351.892 207.435 352.489 208.032C353.087 208.63 353.386 209.338 353.386 210.155C353.386 210.972 353.087 211.723 352.489 212.321Z" fill="white" fill-opacity="0.4"/>
<path d="M352.489 205.619C351.892 206.217 351.171 206.515 350.324 206.515C349.477 206.515 348.741 206.217 348.114 205.619C347.486 205.022 347.173 204.299 347.173 203.454C347.173 202.609 347.486 201.928 348.114 201.331C348.741 200.733 349.477 200.435 350.324 200.435C351.171 200.435 351.892 200.733 352.489 201.331C353.087 201.928 353.386 202.637 353.386 203.454C353.386 204.271 353.087 205.022 352.489 205.619Z" fill="white" fill-opacity="0.4"/>
<path d="M352.489 198.919C351.892 199.517 351.171 199.816 350.324 199.816C349.477 199.816 348.741 199.517 348.114 198.919C347.486 198.322 347.173 197.599 347.173 196.754C347.173 195.909 347.486 195.228 348.114 194.631C348.741 194.034 349.477 193.735 350.324 193.735C351.171 193.735 351.892 194.034 352.489 194.631C353.087 195.228 353.386 195.937 353.386 196.754C353.386 197.571 353.087 198.322 352.489 198.919Z" fill="white" fill-opacity="0.4"/>
<path d="M352.489 192.218C351.892 192.815 351.171 193.114 350.324 193.114C349.477 193.114 348.741 192.815 348.114 192.218C347.486 191.621 347.173 190.897 347.173 190.052C347.173 189.207 347.486 188.527 348.114 187.929C348.741 187.332 349.477 187.033 350.324 187.033C351.171 187.033 351.892 187.332 352.489 187.929C353.087 188.527 353.386 189.235 353.386 190.052C353.386 190.869 353.087 191.621 352.489 192.218Z" fill="white" fill-opacity="0.4"/>
<path d="M352.489 185.519C351.892 186.116 351.171 186.415 350.324 186.415C349.477 186.415 348.741 186.116 348.114 185.519C347.486 184.922 347.173 184.198 347.173 183.353C347.173 182.509 347.486 181.828 348.114 181.231C348.741 180.633 349.477 180.334 350.324 180.334C351.171 180.334 351.892 180.633 352.489 181.231C353.087 181.828 353.386 182.536 353.386 183.353C353.386 184.171 353.087 184.922 352.489 185.519Z" fill="white" fill-opacity="0.4"/>
<path d="M352.489 178.817C351.892 179.415 351.171 179.714 350.324 179.714C349.477 179.714 348.741 179.415 348.114 178.817C347.486 178.22 347.173 177.497 347.173 176.652C347.173 175.807 347.486 175.126 348.114 174.529C348.741 173.932 349.477 173.633 350.324 173.633C351.171 173.633 351.892 173.932 352.489 174.529C353.087 175.126 353.386 175.835 353.386 176.652C353.386 177.469 353.087 178.22 352.489 178.817Z" fill="white" fill-opacity="0.4"/>
<path d="M359.189 222.372C358.591 222.969 357.87 223.268 357.023 223.268C356.176 223.268 355.44 222.969 354.813 222.372C354.186 221.774 353.872 221.051 353.872 220.206C353.872 219.361 354.186 218.681 354.813 218.083C355.44 217.486 356.176 217.187 357.023 217.187C357.87 217.187 358.591 217.486 359.189 218.083C359.786 218.681 360.085 219.389 360.085 220.206C360.085 221.023 359.786 221.774 359.189 222.372Z" fill="white" fill-opacity="0.4"/>
<path d="M359.189 215.67C358.591 216.268 357.87 216.566 357.023 216.566C356.176 216.566 355.44 216.268 354.813 215.67C354.186 215.073 353.872 214.35 353.872 213.505C353.872 212.66 354.186 211.979 354.813 211.382C355.44 210.784 356.176 210.486 357.023 210.486C357.87 210.486 358.591 210.784 359.189 211.382C359.786 211.979 360.085 212.688 360.085 213.505C360.085 214.322 359.786 215.073 359.189 215.67Z" fill="white" fill-opacity="0.4"/>
<path d="M359.189 208.97C358.591 209.568 357.87 209.867 357.023 209.867C356.176 209.867 355.44 209.568 354.813 208.97C354.186 208.373 353.872 207.65 353.872 206.805C353.872 205.96 354.186 205.279 354.813 204.682C355.44 204.085 356.176 203.786 357.023 203.786C357.87 203.786 358.591 204.085 359.189 204.682C359.786 205.279 360.085 205.988 360.085 206.805C360.085 207.622 359.786 208.373 359.189 208.97Z" fill="white" fill-opacity="0.4"/>
<path d="M359.189 202.27C358.591 202.867 357.87 203.166 357.023 203.166C356.176 203.166 355.44 202.867 354.813 202.27C354.186 201.672 353.872 200.949 353.872 200.104C353.872 199.259 354.186 198.579 354.813 197.981C355.44 197.384 356.176 197.085 357.023 197.085C357.87 197.085 358.591 197.384 359.189 197.981C359.786 198.579 360.085 199.287 360.085 200.104C360.085 200.921 359.786 201.672 359.189 202.27Z" fill="white" fill-opacity="0.4"/>
<path d="M359.189 195.568C358.591 196.166 357.87 196.464 357.023 196.464C356.176 196.464 355.44 196.166 354.813 195.568C354.186 194.971 353.872 194.248 353.872 193.403C353.872 192.558 354.186 191.877 354.813 191.28C355.44 190.682 356.176 190.384 357.023 190.384C357.87 190.384 358.591 190.682 359.189 191.28C359.786 191.877 360.085 192.586 360.085 193.403C360.085 194.22 359.786 194.971 359.189 195.568Z" fill="white" fill-opacity="0.4"/>
<path d="M359.189 188.868C358.591 189.466 357.87 189.765 357.023 189.765C356.176 189.765 355.44 189.466 354.813 188.868C354.186 188.271 353.872 187.548 353.872 186.703C353.872 185.858 354.186 185.177 354.813 184.58C355.44 183.983 356.176 183.684 357.023 183.684C357.87 183.684 358.591 183.983 359.189 184.58C359.786 185.177 360.085 185.886 360.085 186.703C360.085 187.52 359.786 188.271 359.189 188.868Z" fill="white" fill-opacity="0.4"/>
<path d="M365.89 219.021C365.293 219.619 364.572 219.918 363.725 219.918C362.878 219.918 362.142 219.619 361.514 219.021C360.887 218.424 360.573 217.701 360.573 216.856C360.573 216.011 360.887 215.33 361.514 214.733C362.142 214.136 362.878 213.837 363.725 213.837C364.572 213.837 365.293 214.136 365.89 214.733C366.488 215.33 366.786 216.039 366.786 216.856C366.786 217.673 366.488 218.424 365.89 219.021Z" fill="white" fill-opacity="0.4"/>
<path d="M365.89 212.321C365.293 212.918 364.572 213.217 363.725 213.217C362.878 213.217 362.142 212.918 361.514 212.321C360.887 211.723 360.573 211 360.573 210.155C360.573 209.31 360.887 208.63 361.514 208.032C362.142 207.435 362.878 207.136 363.725 207.136C364.572 207.136 365.293 207.435 365.89 208.032C366.488 208.63 366.786 209.338 366.786 210.155C366.786 210.972 366.488 211.723 365.89 212.321Z" fill="white" fill-opacity="0.4"/>
<path d="M365.89 205.619C365.293 206.217 364.572 206.515 363.725 206.515C362.878 206.515 362.142 206.217 361.514 205.619C360.887 205.022 360.573 204.299 360.573 203.454C360.573 202.609 360.887 201.928 361.514 201.331C362.142 200.733 362.878 200.435 363.725 200.435C364.572 200.435 365.293 200.733 365.89 201.331C366.488 201.928 366.786 202.637 366.786 203.454C366.786 204.271 366.488 205.022 365.89 205.619Z" fill="white" fill-opacity="0.4"/>
<path d="M365.89 198.919C365.293 199.517 364.572 199.816 363.725 199.816C362.878 199.816 362.142 199.517 361.514 198.919C360.887 198.322 360.573 197.599 360.573 196.754C360.573 195.909 360.887 195.228 361.514 194.631C362.142 194.034 362.878 193.735 363.725 193.735C364.572 193.735 365.293 194.034 365.89 194.631C366.488 195.228 366.786 195.937 366.786 196.754C366.786 197.571 366.488 198.322 365.89 198.919Z" fill="white" fill-opacity="0.4"/>
<path d="M372.592 215.67C371.994 216.268 371.273 216.566 370.426 216.566C369.579 216.566 368.843 216.268 368.216 215.67C367.588 215.073 367.275 214.35 367.275 213.505C367.275 212.66 367.588 211.979 368.216 211.382C368.843 210.784 369.579 210.486 370.426 210.486C371.273 210.486 371.994 210.784 372.592 211.382C373.189 211.979 373.488 212.688 373.488 213.505C373.488 214.322 373.189 215.073 372.592 215.67Z" fill="white" fill-opacity="0.4"/>
<path d="M372.592 208.97C371.994 209.568 371.273 209.867 370.426 209.867C369.579 209.867 368.843 209.568 368.216 208.97C367.588 208.373 367.275 207.65 367.275 206.805C367.275 205.96 367.588 205.279 368.216 204.682C368.843 204.085 369.579 203.786 370.426 203.786C371.273 203.786 371.994 204.085 372.592 204.682C373.189 205.279 373.488 205.988 373.488 206.805C373.488 207.622 373.189 208.373 372.592 208.97Z" fill="white" fill-opacity="0.4"/>
</g>
<defs>
<linearGradient id="paint0_linear_1779_62302" x1="646" y1="174.997" x2="0" y2="174.997" gradientUnits="userSpaceOnUse">
<stop stop-color="#CCCED4"/>
<stop offset="1" stop-color="#FFD9AA"/>
</linearGradient>
<clipPath id="clip0_1779_62302">
<rect width="646" height="350" fill="white" transform="translate(0.476562)"/>
</clipPath>
</defs>
</svg>
