<svg width="647" height="350" viewBox="0 0 647 350" fill="none" xmlns="http://www.w3.org/2000/svg">
<g clip-path="url(#clip0_1779_63329)">
<rect width="646" height="350" transform="translate(0.476562)" fill="white"/>
<g clip-path="url(#clip1_1779_63329)">
<rect width="646" height="350" transform="translate(0.476562)" fill="white"/>
<path d="M65.9458 164.364L72.1634 133.821H80.7809L71.6726 172H60.6008L53.5105 142.603L46.4748 172H35.2394L26.6219 133.821H35.6757L41.5115 164.31L48.9291 133.821H58.7464L65.9458 164.364ZM100.107 143.857C106.107 143.857 109.543 147.02 109.543 153.838V172H101.034V155.365C101.034 151.547 99.5071 149.747 96.5619 149.747C93.3985 149.747 91.6532 151.984 91.6532 156.565V172H83.1449V133.821H91.5987V148.329C92.9622 145.657 95.9074 143.857 100.107 143.857ZM141.209 158.583V159.892H121.684C121.738 165.128 123.756 167.909 127.302 167.909C129.701 167.909 131.392 166.437 132.047 163.764H140.991C140.01 169.164 135.537 172.873 127.302 172.873C117.157 172.873 112.794 166.655 112.794 158.583C112.794 150.129 117.321 143.857 127.411 143.857C136.192 143.857 141.209 149.366 141.209 158.583ZM127.356 148.766C124.084 148.766 122.229 151.329 121.848 154.874H132.374C132.374 150.784 130.138 148.766 127.356 148.766ZM153.091 144.73V151.165C154.345 146.202 157.672 144.402 162.472 144.402V151.656H161.926C155.382 151.656 153.254 155.856 153.254 160.492V172H144.746V149.802C144.746 148.547 144.692 145.875 144.637 144.73H153.091ZM190.986 158.583V159.892H171.461C171.515 165.128 173.533 167.909 177.079 167.909C179.478 167.909 181.169 166.437 181.824 163.764H190.768C189.787 169.164 185.314 172.873 177.079 172.873C166.934 172.873 162.571 166.655 162.571 158.583C162.571 150.129 167.098 143.857 177.188 143.857C185.969 143.857 190.986 149.366 190.986 158.583ZM177.133 148.766C173.861 148.766 172.006 151.329 171.624 154.874H182.151C182.151 150.784 179.915 148.766 177.133 148.766ZM223.071 172.873C211.672 172.873 204.418 164.964 204.418 152.911C204.418 140.857 211.672 132.949 223.125 132.949C232.179 132.949 238.179 137.367 239.706 144.511H230.325C229.289 141.13 226.78 138.948 223.071 138.948C217.344 138.948 213.908 144.075 213.908 152.911C213.908 161.746 217.399 166.873 223.071 166.873C226.943 166.873 229.561 164.746 230.543 160.765H239.924C238.015 168.837 232.125 172.873 223.071 172.873ZM259.771 143.857C265.77 143.857 269.206 147.02 269.206 153.838V172H260.698V155.365C260.698 151.547 259.171 149.747 256.226 149.747C253.062 149.747 251.317 151.984 251.317 156.565V172H242.809V133.821H251.262V148.329C252.626 145.657 255.571 143.857 259.771 143.857ZM281.729 172.6C275.73 172.6 272.13 169.437 272.13 164.364C272.13 158.856 276.712 157.329 281.729 156.347L284.456 155.801C288.274 155.038 290.456 154.547 290.456 151.874C290.456 149.693 288.765 148.711 286.474 148.711C284.184 148.711 282.22 149.693 282.166 152.311H273.276C273.548 146.475 278.348 143.857 286.584 143.857C290.238 143.857 292.91 144.402 294.874 145.493C297.983 147.238 298.801 150.184 298.801 153.62V167.528C298.801 169.328 298.855 170.8 298.964 172H290.62V168.237C289.092 170.636 286.474 172.6 281.729 172.6ZM285.166 167.2C288.383 167.2 290.292 165.128 290.292 161.855V158.474C289.692 158.91 288.056 159.401 286.474 159.837L285.711 160.056C282.929 160.874 281.129 161.474 281.129 163.764C281.129 165.782 282.548 167.2 285.166 167.2ZM336.611 143.857C342.392 143.857 345.828 146.911 345.828 153.511V172H337.32V154.711C337.32 151.547 336.065 149.747 333.447 149.747C330.775 149.747 328.92 151.711 328.92 156.02V172H320.412V154.711C320.412 151.547 319.158 149.747 316.54 149.747C313.867 149.747 312.013 151.711 312.013 156.02V172H303.504V149.802C303.504 148.547 303.45 145.93 303.395 144.73H311.958V148.329C313.104 145.602 316.267 143.857 319.812 143.857C323.848 143.857 326.684 145.384 327.993 148.493C329.466 145.711 332.411 143.857 336.611 143.857ZM367.023 143.857C374.931 143.857 378.64 150.02 378.64 158.038C378.64 166.546 374.767 172.545 366.859 172.545C363.532 172.545 360.914 171.346 359.005 169.164V181.817H350.497V144.73H359.005V147.566C360.75 145.111 363.368 143.857 367.023 143.857ZM364.077 167.255C367.841 167.255 369.422 163.764 369.422 158.365C369.422 152.474 367.514 149.147 364.077 149.147C360.423 149.147 358.842 152.474 358.842 158.365C358.842 163.437 360.423 167.255 364.077 167.255ZM386.457 141.239C383.675 141.239 381.439 139.057 381.439 136.33C381.439 133.603 383.675 131.422 386.457 131.422C389.293 131.422 391.475 133.603 391.475 136.33C391.475 139.057 389.293 141.239 386.457 141.239ZM390.711 172H382.203V144.73H390.711V172ZM409.112 172.873C398.64 172.873 394.167 166.491 394.167 158.419C394.167 150.238 398.64 143.857 409.112 143.857C419.583 143.857 424.056 150.238 424.056 158.419C424.056 166.491 419.583 172.873 409.112 172.873ZM409.112 167.746C412.929 167.746 414.729 164.31 414.729 158.419C414.729 152.42 412.929 148.984 409.112 148.984C405.239 148.984 403.494 152.42 403.494 158.419C403.494 164.31 405.239 167.746 409.112 167.746ZM444.468 143.857C450.467 143.857 453.904 147.02 453.904 153.838V172H445.395V155.365C445.395 151.547 443.868 149.747 440.923 149.747C437.814 149.747 436.014 151.984 436.014 156.565V172H427.506V149.802C427.506 148.547 427.451 146.039 427.397 144.73H435.905V148.438C437.214 145.711 440.214 143.857 444.468 143.857ZM470.572 172.873C462.445 172.873 457.536 169.546 456.718 163.546H465.663C465.99 166.437 467.79 168.291 471.063 168.291C473.68 168.291 475.099 167.037 475.099 165.51C475.099 163.437 473.408 162.728 469.535 161.637L465.118 160.328C460.045 158.91 457.373 156.129 457.373 152.202C457.373 147.075 461.954 143.857 470.026 143.857C477.717 143.857 482.516 146.802 483.225 152.311H474.88C474.444 149.638 472.535 148.438 470.026 148.438C467.626 148.438 466.263 149.638 466.263 151.111C466.263 152.856 468.172 153.674 471.608 154.656L476.08 155.91C479.462 156.892 483.989 158.965 483.989 164.037C483.989 169.382 479.244 172.873 470.572 172.873ZM43.4205 199.638V197.456H62.1279V216H59.8918V205.801C59.5645 206.946 59.0737 208.146 58.3646 209.401C57.6556 210.71 56.6739 211.909 55.5285 213.055C54.3832 214.2 52.9106 215.073 51.2198 215.782C49.529 216.491 47.4565 216.873 45.1112 216.873C41.5661 216.873 38.5118 216 35.8938 214.309C33.2759 212.618 31.2579 210.273 29.8398 207.273C28.3672 204.274 27.6582 200.838 27.6582 196.911C27.6582 192.929 28.4218 189.439 29.8944 186.439C31.367 183.439 33.4941 181.148 36.1665 179.458C38.839 177.767 42.0024 176.949 45.5476 176.949C49.3109 176.949 52.6379 177.876 55.4194 179.676C58.201 181.53 60.0554 184.148 61.0917 187.53H58.4192C57.492 184.857 55.9103 182.73 53.6741 181.258C51.3834 179.785 48.6564 179.021 45.5476 179.021C42.4387 179.021 39.7662 179.73 37.5301 181.203C35.2394 182.676 33.4941 184.748 32.2396 187.421C30.9852 190.093 30.3307 193.257 30.3307 196.856C30.3307 200.456 30.9852 203.565 32.2396 206.237C33.4941 208.91 35.2394 211.037 37.4755 212.509C39.7117 213.982 42.3297 214.746 45.3294 214.746C48.1655 214.746 50.6198 214.091 52.6924 212.782C54.7649 211.528 56.4012 209.728 57.6011 207.437C58.801 205.201 59.4555 202.583 59.6191 199.638H43.4205ZM69.7462 188.73V196.42C70.3461 193.966 71.6551 192.002 73.564 190.475C75.473 189.002 77.8182 188.239 80.7089 188.239V190.584H80.2725C78.0364 190.584 76.182 191.075 74.6003 192.111C73.0186 193.147 71.8733 194.456 71.0552 196.147C70.237 197.838 69.8007 199.692 69.8007 201.71V216H67.4009V193.802C67.4009 193.202 67.4009 192.329 67.4009 191.293C67.3464 190.257 67.3464 189.384 67.2918 188.73H69.7462ZM95.855 216.873C93.128 216.873 90.7827 216.273 88.8193 215.018C86.8012 213.764 85.2741 212.073 84.2378 209.891C83.147 207.71 82.6016 205.201 82.6016 202.365C82.6016 199.474 83.147 196.965 84.2378 194.784C85.2741 192.657 86.8012 190.966 88.8193 189.711C90.7827 188.457 93.128 187.857 95.855 187.857C98.582 187.857 100.927 188.457 102.945 189.711C104.909 190.966 106.436 192.657 107.472 194.784C108.508 196.965 109.054 199.474 109.054 202.365C109.054 205.201 108.508 207.71 107.472 209.891C106.436 212.073 104.909 213.764 102.945 215.018C100.927 216.273 98.582 216.873 95.855 216.873ZM95.855 214.964C97.9821 214.964 99.891 214.418 101.473 213.382C103.054 212.346 104.309 210.873 105.181 208.964C106.054 207.055 106.49 204.874 106.49 202.365C106.49 199.856 106.054 197.674 105.181 195.765C104.309 193.856 103.054 192.384 101.473 191.348C99.891 190.311 97.9821 189.766 95.855 189.766C93.7279 189.766 91.819 190.311 90.2373 191.348C88.6011 192.384 87.3467 193.856 86.474 195.765C85.6013 197.674 85.165 199.856 85.165 202.365C85.165 204.874 85.6013 207.055 86.474 208.964C87.3467 210.873 88.6011 212.346 90.2373 213.382C91.819 214.418 93.7279 214.964 95.855 214.964ZM140.493 213L149.601 188.73H152.055L141.638 216H139.184L131.275 192.002L123.367 216H120.858L110.604 188.73H113.222L122.222 213.055L130.075 188.73H132.584L140.493 213Z" fill="black"/>
<path d="M0.476562 350L646.477 0" stroke="#FF0000"/>
<path d="M158.207 325.399C155.998 327.608 153.332 328.713 150.199 328.713C147.067 328.713 144.346 327.608 142.026 325.399C139.707 323.19 138.547 320.516 138.547 317.391C138.547 314.267 139.707 311.751 142.026 309.542C144.346 307.333 147.067 306.228 150.199 306.228C153.332 306.228 155.998 307.333 158.207 309.542C160.416 311.751 161.521 314.37 161.521 317.391C161.521 320.413 160.416 323.19 158.207 325.399Z" fill="black" fill-opacity="0.4"/>
<path d="M158.207 300.625C155.998 302.834 153.332 303.939 150.199 303.939C147.067 303.939 144.346 302.834 142.026 300.625C139.707 298.416 138.547 295.742 138.547 292.617C138.547 289.493 139.707 286.976 142.026 284.767C144.346 282.558 147.067 281.454 150.199 281.454C153.332 281.454 155.998 282.558 158.207 284.767C160.416 286.976 161.521 289.596 161.521 292.617C161.521 295.639 160.416 298.416 158.207 300.625Z" fill="black" fill-opacity="0.4"/>
<path d="M182.98 337.791C180.771 340 178.104 341.105 174.972 341.105C171.84 341.105 169.118 340 166.799 337.791C164.479 335.582 163.319 332.908 163.319 329.784C163.319 326.659 164.479 324.143 166.799 321.934C169.118 319.725 171.84 318.62 174.972 318.62C178.104 318.62 180.771 319.725 182.98 321.934C185.189 324.143 186.293 326.762 186.293 329.784C186.293 332.805 185.189 335.582 182.98 337.791Z" fill="black" fill-opacity="0.4"/>
<path d="M182.98 313.014C180.771 315.223 178.104 316.327 174.972 316.327C171.84 316.327 169.118 315.223 166.799 313.014C164.479 310.805 163.319 308.13 163.319 305.006C163.319 301.882 164.479 299.365 166.799 297.156C169.118 294.947 171.84 293.843 174.972 293.843C178.104 293.843 180.771 294.947 182.98 297.156C185.189 299.365 186.293 301.984 186.293 305.006C186.293 308.028 185.189 310.805 182.98 313.014Z" fill="black" fill-opacity="0.4"/>
<path d="M182.98 288.233C180.771 290.442 178.104 291.547 174.972 291.547C171.84 291.547 169.118 290.442 166.799 288.233C164.479 286.024 163.319 283.349 163.319 280.225C163.319 277.101 164.479 274.584 166.799 272.375C169.118 270.166 171.84 269.062 174.972 269.062C178.104 269.062 180.771 270.166 182.98 272.375C185.189 274.584 186.293 277.204 186.293 280.225C186.293 283.247 185.189 286.024 182.98 288.233Z" fill="black" fill-opacity="0.4"/>
<path d="M182.98 263.459C180.771 265.668 178.104 266.772 174.972 266.772C171.84 266.772 169.118 265.668 166.799 263.459C164.479 261.25 163.319 258.575 163.319 255.451C163.319 252.327 164.479 249.81 166.799 247.601C169.118 245.392 171.84 244.288 174.972 244.288C178.104 244.288 180.771 245.392 182.98 247.601C185.189 249.81 186.293 252.43 186.293 255.451C186.293 258.473 185.189 261.25 182.98 263.459Z" fill="black" fill-opacity="0.4"/>
<path d="M207.76 350.18C205.551 352.389 202.884 353.493 199.752 353.493C196.62 353.493 193.898 352.389 191.579 350.18C189.259 347.971 188.1 345.296 188.1 342.172C188.1 339.048 189.259 336.531 191.579 334.322C193.898 332.113 196.62 331.009 199.752 331.009C202.884 331.009 205.551 332.113 207.76 334.322C209.969 336.531 211.073 339.151 211.073 342.172C211.073 345.194 209.969 347.971 207.76 350.18Z" fill="black" fill-opacity="0.4"/>
<path d="M207.76 325.399C205.551 327.608 202.884 328.713 199.752 328.713C196.62 328.713 193.898 327.608 191.579 325.399C189.259 323.19 188.1 320.516 188.1 317.391C188.1 314.267 189.259 311.751 191.579 309.542C193.898 307.333 196.62 306.228 199.752 306.228C202.884 306.228 205.551 307.333 207.76 309.542C209.969 311.751 211.073 314.37 211.073 317.391C211.073 320.413 209.969 323.19 207.76 325.399Z" fill="black" fill-opacity="0.4"/>
<path d="M207.76 300.625C205.551 302.834 202.884 303.939 199.752 303.939C196.62 303.939 193.898 302.834 191.579 300.625C189.259 298.416 188.1 295.742 188.1 292.617C188.1 289.493 189.259 286.976 191.579 284.767C193.898 282.558 196.62 281.454 199.752 281.454C202.884 281.454 205.551 282.558 207.76 284.767C209.969 286.976 211.073 289.596 211.073 292.617C211.073 295.639 209.969 298.416 207.76 300.625Z" fill="black" fill-opacity="0.4"/>
<path d="M207.76 275.848C205.551 278.057 202.884 279.161 199.752 279.161C196.62 279.161 193.898 278.057 191.579 275.848C189.259 273.639 188.1 270.964 188.1 267.84C188.1 264.716 189.259 262.199 191.579 259.99C193.898 257.781 196.62 256.676 199.752 256.676C202.884 256.676 205.551 257.781 207.76 259.99C209.969 262.199 211.073 264.818 211.073 267.84C211.073 270.861 209.969 273.639 207.76 275.848Z" fill="black" fill-opacity="0.4"/>
<path d="M207.76 251.067C205.551 253.276 202.884 254.38 199.752 254.38C196.62 254.38 193.898 253.276 191.579 251.067C189.259 248.858 188.1 246.183 188.1 243.059C188.1 239.935 189.259 237.418 191.579 235.209C193.898 233 196.62 231.896 199.752 231.896C202.884 231.896 205.551 233 207.76 235.209C209.969 237.418 211.073 240.037 211.073 243.059C211.073 246.081 209.969 248.858 207.76 251.067Z" fill="black" fill-opacity="0.4"/>
<path d="M207.76 226.293C205.551 228.502 202.884 229.606 199.752 229.606C196.62 229.606 193.898 228.502 191.579 226.293C189.259 224.084 188.1 221.409 188.1 218.285C188.1 215.161 189.259 212.644 191.579 210.435C193.898 208.226 196.62 207.122 199.752 207.122C202.884 207.122 205.551 208.226 207.76 210.435C209.969 212.644 211.073 215.263 211.073 218.285C211.073 221.307 209.969 224.084 207.76 226.293Z" fill="black" fill-opacity="0.4"/>
<path d="M232.54 337.791C230.331 340 227.665 341.105 224.533 341.105C221.401 341.105 218.679 340 216.359 337.791C214.04 335.582 212.88 332.908 212.88 329.784C212.88 326.659 214.04 324.143 216.359 321.934C218.679 319.725 221.401 318.62 224.533 318.62C227.665 318.62 230.331 319.725 232.54 321.934C234.749 324.143 235.854 326.762 235.854 329.784C235.854 332.805 234.749 335.582 232.54 337.791Z" fill="black" fill-opacity="0.4"/>
<path d="M232.54 313.014C230.331 315.223 227.665 316.327 224.533 316.327C221.401 316.327 218.679 315.223 216.359 313.014C214.04 310.805 212.88 308.13 212.88 305.006C212.88 301.882 214.04 299.365 216.359 297.156C218.679 294.947 221.401 293.843 224.533 293.843C227.665 293.843 230.331 294.947 232.54 297.156C234.749 299.365 235.854 301.984 235.854 305.006C235.854 308.028 234.749 310.805 232.54 313.014Z" fill="black" fill-opacity="0.4"/>
<path d="M232.54 288.233C230.331 290.442 227.665 291.547 224.533 291.547C221.401 291.547 218.679 290.442 216.359 288.233C214.04 286.024 212.88 283.349 212.88 280.225C212.88 277.101 214.04 274.584 216.359 272.375C218.679 270.166 221.401 269.062 224.533 269.062C227.665 269.062 230.331 270.166 232.54 272.375C234.749 274.584 235.854 277.204 235.854 280.225C235.854 283.247 234.749 286.024 232.54 288.233Z" fill="black" fill-opacity="0.4"/>
<path d="M232.54 263.459C230.331 265.668 227.665 266.772 224.533 266.772C221.401 266.772 218.679 265.668 216.359 263.459C214.04 261.25 212.88 258.575 212.88 255.451C212.88 252.327 214.04 249.81 216.359 247.601C218.679 245.392 221.401 244.288 224.533 244.288C227.665 244.288 230.331 245.392 232.54 247.601C234.749 249.81 235.854 252.43 235.854 255.451C235.854 258.473 234.749 261.25 232.54 263.459Z" fill="black" fill-opacity="0.4"/>
<path d="M232.54 238.678C230.331 240.887 227.665 241.992 224.533 241.992C221.401 241.992 218.679 240.887 216.359 238.678C214.04 236.469 212.88 233.795 212.88 230.67C212.88 227.546 214.04 225.029 216.359 222.82C218.679 220.611 221.401 219.507 224.533 219.507C227.665 219.507 230.331 220.611 232.54 222.82C234.749 225.029 235.854 227.649 235.854 230.67C235.854 233.692 234.749 236.469 232.54 238.678Z" fill="black" fill-opacity="0.4"/>
<path d="M232.54 213.907C230.331 216.116 227.665 217.221 224.533 217.221C221.401 217.221 218.679 216.116 216.359 213.907C214.04 211.698 212.88 209.024 212.88 205.9C212.88 202.775 214.04 200.259 216.359 198.05C218.679 195.841 221.401 194.736 224.533 194.736C227.665 194.736 230.331 195.841 232.54 198.05C234.749 200.259 235.854 202.878 235.854 205.9C235.854 208.921 234.749 211.698 232.54 213.907Z" fill="black" fill-opacity="0.4"/>
<path d="M232.54 189.126C230.331 191.335 227.665 192.44 224.533 192.44C221.401 192.44 218.679 191.335 216.359 189.126C214.04 186.917 212.88 184.243 212.88 181.119C212.88 177.995 214.04 175.478 216.359 173.269C218.679 171.06 221.401 169.955 224.533 169.955C227.665 169.955 230.331 171.06 232.54 173.269C234.749 175.478 235.854 178.097 235.854 181.119C235.854 184.14 234.749 186.917 232.54 189.126Z" fill="black" fill-opacity="0.4"/>
<path d="M257.313 300.625C255.104 302.834 252.438 303.939 249.306 303.939C246.173 303.939 243.452 302.834 241.132 300.625C238.813 298.416 237.653 295.742 237.653 292.617C237.653 289.493 238.813 286.976 241.132 284.767C243.452 282.558 246.173 281.454 249.306 281.454C252.438 281.454 255.104 282.558 257.313 284.767C259.522 286.976 260.627 289.596 260.627 292.617C260.627 295.639 259.522 298.416 257.313 300.625Z" fill="black" fill-opacity="0.4"/>
<path d="M257.313 275.848C255.104 278.057 252.438 279.161 249.306 279.161C246.173 279.161 243.452 278.057 241.132 275.848C238.813 273.639 237.653 270.964 237.653 267.84C237.653 264.716 238.813 262.199 241.132 259.99C243.452 257.781 246.173 256.676 249.306 256.676C252.438 256.676 255.104 257.781 257.313 259.99C259.522 262.199 260.627 264.818 260.627 267.84C260.627 270.861 259.522 273.639 257.313 275.848Z" fill="black" fill-opacity="0.4"/>
<path d="M257.313 251.067C255.104 253.276 252.438 254.38 249.306 254.38C246.173 254.38 243.452 253.276 241.132 251.067C238.813 248.858 237.653 246.183 237.653 243.059C237.653 239.935 238.813 237.418 241.132 235.209C243.452 233 246.173 231.896 249.306 231.896C252.438 231.896 255.104 233 257.313 235.209C259.522 237.418 260.627 240.037 260.627 243.059C260.627 246.081 259.522 248.858 257.313 251.067Z" fill="black" fill-opacity="0.4"/>
<path d="M257.313 226.293C255.104 228.502 252.438 229.606 249.306 229.606C246.173 229.606 243.452 228.502 241.132 226.293C238.813 224.084 237.653 221.409 237.653 218.285C237.653 215.161 238.813 212.644 241.132 210.435C243.452 208.226 246.173 207.122 249.306 207.122C252.438 207.122 255.104 208.226 257.313 210.435C259.522 212.644 260.627 215.263 260.627 218.285C260.627 221.307 259.522 224.084 257.313 226.293Z" fill="black" fill-opacity="0.4"/>
<path d="M257.313 201.512C255.104 203.721 252.438 204.825 249.306 204.825C246.173 204.825 243.452 203.721 241.132 201.512C238.813 199.303 237.653 196.628 237.653 193.504C237.653 190.38 238.813 187.863 241.132 185.654C243.452 183.445 246.173 182.341 249.306 182.341C252.438 182.341 255.104 183.445 257.313 185.654C259.522 187.863 260.627 190.483 260.627 193.504C260.627 196.526 259.522 199.303 257.313 201.512Z" fill="black" fill-opacity="0.4"/>
<path d="M257.313 176.738C255.104 178.947 252.438 180.051 249.306 180.051C246.173 180.051 243.452 178.947 241.132 176.738C238.813 174.529 237.653 171.854 237.653 168.73C237.653 165.606 238.813 163.089 241.132 160.88C243.452 158.671 246.173 157.567 249.306 157.567C252.438 157.567 255.104 158.671 257.313 160.88C259.522 163.089 260.627 165.708 260.627 168.73C260.627 171.752 259.522 174.529 257.313 176.738Z" fill="black" fill-opacity="0.4"/>
<path d="M257.313 151.957C255.104 154.166 252.438 155.27 249.306 155.27C246.173 155.27 243.452 154.166 241.132 151.957C238.813 149.748 237.653 147.073 237.653 143.949C237.653 140.825 238.813 138.308 241.132 136.099C243.452 133.89 246.173 132.786 249.306 132.786C252.438 132.786 255.104 133.89 257.313 136.099C259.522 138.308 260.627 140.928 260.627 143.949C260.627 146.971 259.522 149.748 257.313 151.957Z" fill="black" fill-opacity="0.4"/>
<path d="M257.313 3.29222C255.104 5.50123 252.438 6.60574 249.306 6.60574C246.173 6.60574 243.452 5.50123 241.132 3.29222C238.813 1.0832 237.653 -1.59129 237.653 -4.71548C237.653 -7.83966 238.813 -10.3564 241.132 -12.5654C243.452 -14.7744 246.173 -15.8789 249.306 -15.8789C252.438 -15.8789 255.104 -14.7744 257.313 -12.5654C259.522 -10.3564 260.627 -7.7371 260.627 -4.71548C260.627 -1.69385 259.522 1.0832 257.313 3.29222Z" fill="black" fill-opacity="0.4"/>
<path d="M282.094 313.014C279.885 315.223 277.218 316.327 274.086 316.327C270.954 316.327 268.232 315.223 265.913 313.014C263.593 310.805 262.433 308.13 262.433 305.006C262.433 301.882 263.593 299.365 265.913 297.156C268.232 294.947 270.954 293.843 274.086 293.843C277.218 293.843 279.885 294.947 282.094 297.156C284.303 299.365 285.407 301.984 285.407 305.006C285.407 308.028 284.303 310.805 282.094 313.014Z" fill="black" fill-opacity="0.4"/>
<path d="M282.094 288.233C279.885 290.442 277.218 291.547 274.086 291.547C270.954 291.547 268.232 290.442 265.913 288.233C263.593 286.024 262.433 283.349 262.433 280.225C262.433 277.101 263.593 274.584 265.913 272.375C268.232 270.166 270.954 269.062 274.086 269.062C277.218 269.062 279.885 270.166 282.094 272.375C284.303 274.584 285.407 277.204 285.407 280.225C285.407 283.247 284.303 286.024 282.094 288.233Z" fill="black" fill-opacity="0.4"/>
<path d="M282.094 263.459C279.885 265.668 277.218 266.772 274.086 266.772C270.954 266.772 268.232 265.668 265.913 263.459C263.593 261.25 262.433 258.575 262.433 255.451C262.433 252.327 263.593 249.81 265.913 247.601C268.232 245.392 270.954 244.288 274.086 244.288C277.218 244.288 279.885 245.392 282.094 247.601C284.303 249.81 285.407 252.43 285.407 255.451C285.407 258.473 284.303 261.25 282.094 263.459Z" fill="black" fill-opacity="0.4"/>
<path d="M282.094 238.678C279.885 240.887 277.218 241.992 274.086 241.992C270.954 241.992 268.232 240.887 265.913 238.678C263.593 236.469 262.433 233.795 262.433 230.67C262.433 227.546 263.593 225.029 265.913 222.82C268.232 220.611 270.954 219.507 274.086 219.507C277.218 219.507 279.885 220.611 282.094 222.82C284.303 225.029 285.407 227.649 285.407 230.67C285.407 233.692 284.303 236.469 282.094 238.678Z" fill="black" fill-opacity="0.4"/>
<path d="M282.094 213.907C279.885 216.116 277.218 217.221 274.086 217.221C270.954 217.221 268.232 216.116 265.913 213.907C263.593 211.698 262.433 209.024 262.433 205.9C262.433 202.775 263.593 200.259 265.913 198.05C268.232 195.841 270.954 194.736 274.086 194.736C277.218 194.736 279.885 195.841 282.094 198.05C284.303 200.259 285.407 202.878 285.407 205.9C285.407 208.921 284.303 211.698 282.094 213.907Z" fill="black" fill-opacity="0.4"/>
<path d="M282.094 189.126C279.885 191.335 277.218 192.44 274.086 192.44C270.954 192.44 268.232 191.335 265.913 189.126C263.593 186.917 262.433 184.243 262.433 181.119C262.433 177.995 263.593 175.478 265.913 173.269C268.232 171.06 270.954 169.955 274.086 169.955C277.218 169.955 279.885 171.06 282.094 173.269C284.303 175.478 285.407 178.097 285.407 181.119C285.407 184.14 284.303 186.917 282.094 189.126Z" fill="black" fill-opacity="0.4"/>
<path d="M282.094 164.346C279.885 166.555 277.218 167.659 274.086 167.659C270.954 167.659 268.232 166.555 265.913 164.346C263.593 162.137 262.433 159.462 262.433 156.338C262.433 153.214 263.593 150.697 265.913 148.488C268.232 146.279 270.954 145.175 274.086 145.175C277.218 145.175 279.885 146.279 282.094 148.488C284.303 150.697 285.407 153.316 285.407 156.338C285.407 159.36 284.303 162.137 282.094 164.346Z" fill="black" fill-opacity="0.4"/>
<path d="M282.094 139.572C279.885 141.781 277.218 142.885 274.086 142.885C270.954 142.885 268.232 141.781 265.913 139.572C263.593 137.363 262.433 134.688 262.433 131.564C262.433 128.44 263.593 125.923 265.913 123.714C268.232 121.505 270.954 120.4 274.086 120.4C277.218 120.4 279.885 121.505 282.094 123.714C284.303 125.923 285.407 128.542 285.407 131.564C285.407 134.585 284.303 137.363 282.094 139.572Z" fill="black" fill-opacity="0.4"/>
<path d="M282.094 114.791C279.885 117 277.218 118.104 274.086 118.104C270.954 118.104 268.232 117 265.913 114.791C263.593 112.582 262.433 109.907 262.433 106.783C262.433 103.659 263.593 101.142 265.913 98.9332C268.232 96.7242 270.954 95.6197 274.086 95.6197C277.218 95.6197 279.885 96.7242 282.094 98.9332C284.303 101.142 285.407 103.761 285.407 106.783C285.407 109.805 284.303 112.582 282.094 114.791Z" fill="black" fill-opacity="0.4"/>
<path d="M282.094 90.0133C279.885 92.2224 277.218 93.3268 274.086 93.3268C270.954 93.3268 268.232 92.2224 265.913 90.0133C263.593 87.8043 262.433 85.1298 262.433 82.0056C262.433 78.8814 263.593 76.3648 265.913 74.1557C268.232 71.9467 270.954 70.8422 274.086 70.8422C277.218 70.8422 279.885 71.9467 282.094 74.1557C284.303 76.3648 285.407 78.984 285.407 82.0056C285.407 85.0273 284.303 87.8043 282.094 90.0133Z" fill="black" fill-opacity="0.4"/>
<path d="M282.094 65.2392C279.885 67.4482 277.218 68.5527 274.086 68.5527C270.954 68.5527 268.232 67.4482 265.913 65.2392C263.593 63.0302 262.433 60.3557 262.433 57.2315C262.433 54.1073 263.593 51.5906 265.913 49.3816C268.232 47.1726 270.954 46.0681 274.086 46.0681C277.218 46.0681 279.885 47.1726 282.094 49.3816C284.303 51.5906 285.407 54.2099 285.407 57.2315C285.407 60.2531 284.303 63.0302 282.094 65.2392Z" fill="black" fill-opacity="0.4"/>
<path d="M282.094 15.6776C279.885 17.8866 277.218 18.9911 274.086 18.9911C270.954 18.9911 268.232 17.8866 265.913 15.6776C263.593 13.4686 262.433 10.7941 262.433 7.66994C262.433 4.54575 263.593 2.02905 265.913 -0.179969C268.232 -2.38899 270.954 -3.4935 274.086 -3.4935C277.218 -3.4935 279.885 -2.38899 282.094 -0.179969C284.303 2.02905 285.407 4.64831 285.407 7.66994C285.407 10.6916 284.303 13.4686 282.094 15.6776Z" fill="black" fill-opacity="0.4"/>
<path d="M306.874 350.18C304.665 352.389 301.998 353.493 298.866 353.493C295.734 353.493 293.012 352.389 290.693 350.18C288.373 347.971 287.214 345.296 287.214 342.172C287.214 339.048 288.373 336.531 290.693 334.322C293.012 332.113 295.734 331.009 298.866 331.009C301.998 331.009 304.665 332.113 306.874 334.322C309.083 336.531 310.187 339.151 310.187 342.172C310.187 345.194 309.083 347.971 306.874 350.18Z" fill="black" fill-opacity="0.4"/>
<path d="M306.874 325.399C304.665 327.608 301.998 328.713 298.866 328.713C295.734 328.713 293.012 327.608 290.693 325.399C288.373 323.19 287.214 320.516 287.214 317.391C287.214 314.267 288.373 311.751 290.693 309.542C293.012 307.333 295.734 306.228 298.866 306.228C301.998 306.228 304.665 307.333 306.874 309.542C309.083 311.751 310.187 314.37 310.187 317.391C310.187 320.413 309.083 323.19 306.874 325.399Z" fill="black" fill-opacity="0.4"/>
<path d="M306.874 300.625C304.665 302.834 301.998 303.939 298.866 303.939C295.734 303.939 293.012 302.834 290.693 300.625C288.373 298.416 287.214 295.742 287.214 292.617C287.214 289.493 288.373 286.976 290.693 284.767C293.012 282.558 295.734 281.454 298.866 281.454C301.998 281.454 304.665 282.558 306.874 284.767C309.083 286.976 310.187 289.596 310.187 292.617C310.187 295.639 309.083 298.416 306.874 300.625Z" fill="black" fill-opacity="0.4"/>
<path d="M306.874 275.848C304.665 278.057 301.998 279.161 298.866 279.161C295.734 279.161 293.012 278.057 290.693 275.848C288.373 273.639 287.214 270.964 287.214 267.84C287.214 264.716 288.373 262.199 290.693 259.99C293.012 257.781 295.734 256.676 298.866 256.676C301.998 256.676 304.665 257.781 306.874 259.99C309.083 262.199 310.187 264.818 310.187 267.84C310.187 270.861 309.083 273.639 306.874 275.848Z" fill="black" fill-opacity="0.4"/>
<path d="M306.874 251.067C304.665 253.276 301.998 254.38 298.866 254.38C295.734 254.38 293.012 253.276 290.693 251.067C288.373 248.858 287.214 246.183 287.214 243.059C287.214 239.935 288.373 237.418 290.693 235.209C293.012 233 295.734 231.896 298.866 231.896C301.998 231.896 304.665 233 306.874 235.209C309.083 237.418 310.187 240.037 310.187 243.059C310.187 246.081 309.083 248.858 306.874 251.067Z" fill="black" fill-opacity="0.4"/>
<path d="M306.874 226.293C304.665 228.502 301.998 229.606 298.866 229.606C295.734 229.606 293.012 228.502 290.693 226.293C288.373 224.084 287.214 221.409 287.214 218.285C287.214 215.161 288.373 212.644 290.693 210.435C293.012 208.226 295.734 207.122 298.866 207.122C301.998 207.122 304.665 208.226 306.874 210.435C309.083 212.644 310.187 215.263 310.187 218.285C310.187 221.307 309.083 224.084 306.874 226.293Z" fill="black" fill-opacity="0.4"/>
<path d="M306.874 201.512C304.665 203.721 301.998 204.825 298.866 204.825C295.734 204.825 293.012 203.721 290.693 201.512C288.373 199.303 287.214 196.628 287.214 193.504C287.214 190.38 288.373 187.863 290.693 185.654C293.012 183.445 295.734 182.341 298.866 182.341C301.998 182.341 304.665 183.445 306.874 185.654C309.083 187.863 310.187 190.483 310.187 193.504C310.187 196.526 309.083 199.303 306.874 201.512Z" fill="black" fill-opacity="0.4"/>
<path d="M306.874 176.738C304.665 178.947 301.998 180.051 298.866 180.051C295.734 180.051 293.012 178.947 290.693 176.738C288.373 174.529 287.214 171.854 287.214 168.73C287.214 165.606 288.373 163.089 290.693 160.88C293.012 158.671 295.734 157.567 298.866 157.567C301.998 157.567 304.665 158.671 306.874 160.88C309.083 163.089 310.187 165.708 310.187 168.73C310.187 171.752 309.083 174.529 306.874 176.738Z" fill="black" fill-opacity="0.4"/>
<path d="M306.874 151.957C304.665 154.166 301.998 155.27 298.866 155.27C295.734 155.27 293.012 154.166 290.693 151.957C288.373 149.748 287.214 147.073 287.214 143.949C287.214 140.825 288.373 138.308 290.693 136.099C293.012 133.89 295.734 132.786 298.866 132.786C301.998 132.786 304.665 133.89 306.874 136.099C309.083 138.308 310.187 140.928 310.187 143.949C310.187 146.971 309.083 149.748 306.874 151.957Z" fill="black" fill-opacity="0.4"/>
<path d="M306.874 127.18C304.665 129.389 301.998 130.493 298.866 130.493C295.734 130.493 293.012 129.389 290.693 127.18C288.373 124.97 287.214 122.296 287.214 119.172C287.214 116.048 288.373 113.531 290.693 111.322C293.012 109.113 295.734 108.008 298.866 108.008C301.998 108.008 304.665 109.113 306.874 111.322C309.083 113.531 310.187 116.15 310.187 119.172C310.187 122.193 309.083 124.97 306.874 127.18Z" fill="black" fill-opacity="0.4"/>
<path d="M306.874 102.405C304.665 104.614 301.998 105.719 298.866 105.719C295.734 105.719 293.012 104.614 290.693 102.405C288.373 100.196 287.214 97.5219 287.214 94.3977C287.214 91.2735 288.373 88.7568 290.693 86.5478C293.012 84.3388 295.734 83.2343 298.866 83.2343C301.998 83.2343 304.665 84.3388 306.874 86.5478C309.083 88.7568 310.187 91.3761 310.187 94.3977C310.187 97.4193 309.083 100.196 306.874 102.405Z" fill="black" fill-opacity="0.4"/>
<path d="M306.874 77.6246C304.665 79.8336 301.998 80.9381 298.866 80.9381C295.734 80.9381 293.012 79.8336 290.693 77.6246C288.373 75.4156 287.214 72.7411 287.214 69.6169C287.214 66.4927 288.373 63.976 290.693 61.767C293.012 59.558 295.734 58.4535 298.866 58.4535C301.998 58.4535 304.665 59.558 306.874 61.767C309.083 63.976 310.187 66.5953 310.187 69.6169C310.187 72.6385 309.083 75.4156 306.874 77.6246Z" fill="black" fill-opacity="0.4"/>
<path d="M306.874 52.8471C304.665 55.0562 301.998 56.1607 298.866 56.1607C295.734 56.1607 293.012 55.0562 290.693 52.8471C288.373 50.6381 287.214 47.9636 287.214 44.8394C287.214 41.7153 288.373 39.1986 290.693 36.9895C293.012 34.7805 295.734 33.676 298.866 33.676C301.998 33.676 304.665 34.7805 306.874 36.9895C309.083 39.1986 310.187 41.8178 310.187 44.8394C310.187 47.8611 309.083 50.6381 306.874 52.8471Z" fill="black" fill-opacity="0.4"/>
<path d="M306.874 28.073C304.665 30.282 301.998 31.3865 298.866 31.3865C295.734 31.3865 293.012 30.282 290.693 28.073C288.373 25.864 287.214 23.1895 287.214 20.0653C287.214 16.9411 288.373 14.4244 290.693 12.2154C293.012 10.0064 295.734 8.90187 298.866 8.90187C301.998 8.90187 304.665 10.0064 306.874 12.2154C309.083 14.4244 310.187 17.0437 310.187 20.0653C310.187 23.0869 309.083 25.864 306.874 28.073Z" fill="black" fill-opacity="0.4"/>
<path d="M331.646 362.565C329.437 364.774 326.771 365.879 323.639 365.879C320.507 365.879 317.785 364.774 315.465 362.565C313.146 360.356 311.986 357.682 311.986 354.558C311.986 351.433 313.146 348.917 315.465 346.708C317.785 344.499 320.507 343.394 323.639 343.394C326.771 343.394 329.437 344.499 331.646 346.708C333.855 348.917 334.96 351.536 334.96 354.558C334.96 357.579 333.855 360.356 331.646 362.565Z" fill="black" fill-opacity="0.4"/>
<path d="M331.646 337.791C329.437 340 326.771 341.105 323.639 341.105C320.507 341.105 317.785 340 315.465 337.791C313.146 335.582 311.986 332.908 311.986 329.784C311.986 326.659 313.146 324.143 315.465 321.934C317.785 319.725 320.507 318.62 323.639 318.62C326.771 318.62 329.437 319.725 331.646 321.934C333.855 324.143 334.96 326.762 334.96 329.784C334.96 332.805 333.855 335.582 331.646 337.791Z" fill="black" fill-opacity="0.4"/>
<path d="M331.646 313.014C329.437 315.223 326.771 316.327 323.639 316.327C320.507 316.327 317.785 315.223 315.465 313.014C313.146 310.805 311.986 308.13 311.986 305.006C311.986 301.882 313.146 299.365 315.465 297.156C317.785 294.947 320.507 293.843 323.639 293.843C326.771 293.843 329.437 294.947 331.646 297.156C333.855 299.365 334.96 301.984 334.96 305.006C334.96 308.028 333.855 310.805 331.646 313.014Z" fill="black" fill-opacity="0.4"/>
<path d="M331.646 288.233C329.437 290.442 326.771 291.547 323.639 291.547C320.507 291.547 317.785 290.442 315.465 288.233C313.146 286.024 311.986 283.349 311.986 280.225C311.986 277.101 313.146 274.584 315.465 272.375C317.785 270.166 320.507 269.062 323.639 269.062C326.771 269.062 329.437 270.166 331.646 272.375C333.855 274.584 334.96 277.204 334.96 280.225C334.96 283.247 333.855 286.024 331.646 288.233Z" fill="black" fill-opacity="0.4"/>
<path d="M331.646 263.459C329.437 265.668 326.771 266.772 323.639 266.772C320.507 266.772 317.785 265.668 315.465 263.459C313.146 261.25 311.986 258.575 311.986 255.451C311.986 252.327 313.146 249.81 315.465 247.601C317.785 245.392 320.507 244.288 323.639 244.288C326.771 244.288 329.437 245.392 331.646 247.601C333.855 249.81 334.96 252.43 334.96 255.451C334.96 258.473 333.855 261.25 331.646 263.459Z" fill="black" fill-opacity="0.4"/>
<path d="M331.646 238.678C329.437 240.887 326.771 241.992 323.639 241.992C320.507 241.992 317.785 240.887 315.465 238.678C313.146 236.469 311.986 233.795 311.986 230.67C311.986 227.546 313.146 225.029 315.465 222.82C317.785 220.611 320.507 219.507 323.639 219.507C326.771 219.507 329.437 220.611 331.646 222.82C333.855 225.029 334.96 227.649 334.96 230.67C334.96 233.692 333.855 236.469 331.646 238.678Z" fill="black" fill-opacity="0.4"/>
<path d="M331.646 213.907C329.437 216.116 326.771 217.221 323.639 217.221C320.507 217.221 317.785 216.116 315.465 213.907C313.146 211.698 311.986 209.024 311.986 205.9C311.986 202.775 313.146 200.259 315.465 198.05C317.785 195.841 320.507 194.736 323.639 194.736C326.771 194.736 329.437 195.841 331.646 198.05C333.855 200.259 334.96 202.878 334.96 205.9C334.96 208.921 333.855 211.698 331.646 213.907Z" fill="black" fill-opacity="0.4"/>
<path d="M331.646 189.126C329.437 191.335 326.771 192.44 323.639 192.44C320.507 192.44 317.785 191.335 315.465 189.126C313.146 186.917 311.986 184.243 311.986 181.119C311.986 177.995 313.146 175.478 315.465 173.269C317.785 171.06 320.507 169.955 323.639 169.955C326.771 169.955 329.437 171.06 331.646 173.269C333.855 175.478 334.96 178.097 334.96 181.119C334.96 184.14 333.855 186.917 331.646 189.126Z" fill="black" fill-opacity="0.4"/>
<path d="M331.646 164.346C329.437 166.555 326.771 167.659 323.639 167.659C320.507 167.659 317.785 166.555 315.465 164.346C313.146 162.137 311.986 159.462 311.986 156.338C311.986 153.214 313.146 150.697 315.465 148.488C317.785 146.279 320.507 145.175 323.639 145.175C326.771 145.175 329.437 146.279 331.646 148.488C333.855 150.697 334.96 153.316 334.96 156.338C334.96 159.36 333.855 162.137 331.646 164.346Z" fill="black" fill-opacity="0.4"/>
<path d="M331.646 139.572C329.437 141.781 326.771 142.885 323.639 142.885C320.507 142.885 317.785 141.781 315.465 139.572C313.146 137.363 311.986 134.688 311.986 131.564C311.986 128.44 313.146 125.923 315.465 123.714C317.785 121.505 320.507 120.4 323.639 120.4C326.771 120.4 329.437 121.505 331.646 123.714C333.855 125.923 334.96 128.542 334.96 131.564C334.96 134.585 333.855 137.363 331.646 139.572Z" fill="black" fill-opacity="0.4"/>
<path d="M331.646 114.791C329.437 117 326.771 118.104 323.639 118.104C320.507 118.104 317.785 117 315.465 114.791C313.146 112.582 311.986 109.907 311.986 106.783C311.986 103.659 313.146 101.142 315.465 98.9332C317.785 96.7242 320.507 95.6197 323.639 95.6197C326.771 95.6197 329.437 96.7242 331.646 98.9332C333.855 101.142 334.96 103.761 334.96 106.783C334.96 109.805 333.855 112.582 331.646 114.791Z" fill="black" fill-opacity="0.4"/>
<path d="M331.646 90.0133C329.437 92.2224 326.771 93.3268 323.639 93.3268C320.507 93.3268 317.785 92.2224 315.465 90.0133C313.146 87.8043 311.986 85.1298 311.986 82.0056C311.986 78.8814 313.146 76.3648 315.465 74.1557C317.785 71.9467 320.507 70.8422 323.639 70.8422C326.771 70.8422 329.437 71.9467 331.646 74.1557C333.855 76.3648 334.96 78.984 334.96 82.0056C334.96 85.0273 333.855 87.8043 331.646 90.0133Z" fill="black" fill-opacity="0.4"/>
<path d="M331.646 65.2392C329.437 67.4482 326.771 68.5527 323.639 68.5527C320.507 68.5527 317.785 67.4482 315.465 65.2392C313.146 63.0302 311.986 60.3557 311.986 57.2315C311.986 54.1073 313.146 51.5906 315.465 49.3816C317.785 47.1726 320.507 46.0681 323.639 46.0681C326.771 46.0681 329.437 47.1726 331.646 49.3816C333.855 51.5906 334.96 54.2099 334.96 57.2315C334.96 60.2531 333.855 63.0302 331.646 65.2392Z" fill="black" fill-opacity="0.4"/>
<path d="M331.646 40.4584C329.437 42.6674 326.771 43.7719 323.639 43.7719C320.507 43.7719 317.785 42.6674 315.465 40.4584C313.146 38.2494 311.986 35.5749 311.986 32.4507C311.986 29.3265 313.146 26.8098 315.465 24.6008C317.785 22.3918 320.507 21.2873 323.639 21.2873C326.771 21.2873 329.437 22.3918 331.646 24.6008C333.855 26.8098 334.96 29.4291 334.96 32.4507C334.96 35.4723 333.855 38.2494 331.646 40.4584Z" fill="black" fill-opacity="0.4"/>
<path d="M356.427 350.18C354.218 352.389 351.551 353.493 348.419 353.493C345.287 353.493 342.565 352.389 340.246 350.18C337.926 347.971 336.767 345.296 336.767 342.172C336.767 339.048 337.926 336.531 340.246 334.322C342.565 332.113 345.287 331.009 348.419 331.009C351.551 331.009 354.218 332.113 356.427 334.322C358.636 336.531 359.74 339.151 359.74 342.172C359.74 345.194 358.636 347.971 356.427 350.18Z" fill="black" fill-opacity="0.4"/>
<path d="M356.427 325.399C354.218 327.608 351.551 328.713 348.419 328.713C345.287 328.713 342.565 327.608 340.246 325.399C337.926 323.19 336.767 320.516 336.767 317.391C336.767 314.267 337.926 311.751 340.246 309.542C342.565 307.333 345.287 306.228 348.419 306.228C351.551 306.228 354.218 307.333 356.427 309.542C358.636 311.751 359.74 314.37 359.74 317.391C359.74 320.413 358.636 323.19 356.427 325.399Z" fill="black" fill-opacity="0.4"/>
<path d="M356.427 300.625C354.218 302.834 351.551 303.939 348.419 303.939C345.287 303.939 342.565 302.834 340.246 300.625C337.926 298.416 336.767 295.742 336.767 292.617C336.767 289.493 337.926 286.976 340.246 284.767C342.565 282.558 345.287 281.454 348.419 281.454C351.551 281.454 354.218 282.558 356.427 284.767C358.636 286.976 359.74 289.596 359.74 292.617C359.74 295.639 358.636 298.416 356.427 300.625Z" fill="black" fill-opacity="0.4"/>
<path d="M356.427 275.848C354.218 278.057 351.551 279.161 348.419 279.161C345.287 279.161 342.565 278.057 340.246 275.848C337.926 273.639 336.767 270.964 336.767 267.84C336.767 264.716 337.926 262.199 340.246 259.99C342.565 257.781 345.287 256.676 348.419 256.676C351.551 256.676 354.218 257.781 356.427 259.99C358.636 262.199 359.74 264.818 359.74 267.84C359.74 270.861 358.636 273.639 356.427 275.848Z" fill="black" fill-opacity="0.4"/>
<path d="M356.427 251.067C354.218 253.276 351.551 254.38 348.419 254.38C345.287 254.38 342.565 253.276 340.246 251.067C337.926 248.858 336.767 246.183 336.767 243.059C336.767 239.935 337.926 237.418 340.246 235.209C342.565 233 345.287 231.896 348.419 231.896C351.551 231.896 354.218 233 356.427 235.209C358.636 237.418 359.74 240.037 359.74 243.059C359.74 246.081 358.636 248.858 356.427 251.067Z" fill="black" fill-opacity="0.4"/>
<path d="M356.427 226.293C354.218 228.502 351.551 229.606 348.419 229.606C345.287 229.606 342.565 228.502 340.246 226.293C337.926 224.084 336.767 221.409 336.767 218.285C336.767 215.161 337.926 212.644 340.246 210.435C342.565 208.226 345.287 207.122 348.419 207.122C351.551 207.122 354.218 208.226 356.427 210.435C358.636 212.644 359.74 215.263 359.74 218.285C359.74 221.307 358.636 224.084 356.427 226.293Z" fill="black" fill-opacity="0.4"/>
<path d="M356.427 201.512C354.218 203.721 351.551 204.825 348.419 204.825C345.287 204.825 342.565 203.721 340.246 201.512C337.926 199.303 336.767 196.628 336.767 193.504C336.767 190.38 337.926 187.863 340.246 185.654C342.565 183.445 345.287 182.341 348.419 182.341C351.551 182.341 354.218 183.445 356.427 185.654C358.636 187.863 359.74 190.483 359.74 193.504C359.74 196.526 358.636 199.303 356.427 201.512Z" fill="black" fill-opacity="0.4"/>
<path d="M356.427 176.738C354.218 178.947 351.551 180.051 348.419 180.051C345.287 180.051 342.565 178.947 340.246 176.738C337.926 174.529 336.767 171.854 336.767 168.73C336.767 165.606 337.926 163.089 340.246 160.88C342.565 158.671 345.287 157.567 348.419 157.567C351.551 157.567 354.218 158.671 356.427 160.88C358.636 163.089 359.74 165.708 359.74 168.73C359.74 171.752 358.636 174.529 356.427 176.738Z" fill="black" fill-opacity="0.4"/>
<path d="M356.427 151.957C354.218 154.166 351.551 155.27 348.419 155.27C345.287 155.27 342.565 154.166 340.246 151.957C337.926 149.748 336.767 147.073 336.767 143.949C336.767 140.825 337.926 138.308 340.246 136.099C342.565 133.89 345.287 132.786 348.419 132.786C351.551 132.786 354.218 133.89 356.427 136.099C358.636 138.308 359.74 140.928 359.74 143.949C359.74 146.971 358.636 149.748 356.427 151.957Z" fill="black" fill-opacity="0.4"/>
<path d="M356.427 127.18C354.218 129.389 351.551 130.493 348.419 130.493C345.287 130.493 342.565 129.389 340.246 127.18C337.926 124.97 336.767 122.296 336.767 119.172C336.767 116.048 337.926 113.531 340.246 111.322C342.565 109.113 345.287 108.008 348.419 108.008C351.551 108.008 354.218 109.113 356.427 111.322C358.636 113.531 359.74 116.15 359.74 119.172C359.74 122.193 358.636 124.97 356.427 127.18Z" fill="black" fill-opacity="0.4"/>
<path d="M356.427 102.405C354.218 104.614 351.551 105.719 348.419 105.719C345.287 105.719 342.565 104.614 340.246 102.405C337.926 100.196 336.767 97.5219 336.767 94.3977C336.767 91.2735 337.926 88.7568 340.246 86.5478C342.565 84.3388 345.287 83.2343 348.419 83.2343C351.551 83.2343 354.218 84.3388 356.427 86.5478C358.636 88.7568 359.74 91.3761 359.74 94.3977C359.74 97.4193 358.636 100.196 356.427 102.405Z" fill="black" fill-opacity="0.4"/>
<path d="M356.427 77.6246C354.218 79.8336 351.551 80.9381 348.419 80.9381C345.287 80.9381 342.565 79.8336 340.246 77.6246C337.926 75.4156 336.767 72.7411 336.767 69.6169C336.767 66.4927 337.926 63.976 340.246 61.767C342.565 59.558 345.287 58.4535 348.419 58.4535C351.551 58.4535 354.218 59.558 356.427 61.767C358.636 63.976 359.74 66.5953 359.74 69.6169C359.74 72.6385 358.636 75.4156 356.427 77.6246Z" fill="black" fill-opacity="0.4"/>
<path d="M356.427 52.8471C354.218 55.0562 351.551 56.1607 348.419 56.1607C345.287 56.1607 342.565 55.0562 340.246 52.8471C337.926 50.6381 336.767 47.9636 336.767 44.8394C336.767 41.7153 337.926 39.1986 340.246 36.9895C342.565 34.7805 345.287 33.676 348.419 33.676C351.551 33.676 354.218 34.7805 356.427 36.9895C358.636 39.1986 359.74 41.8178 359.74 44.8394C359.74 47.8611 358.636 50.6381 356.427 52.8471Z" fill="black" fill-opacity="0.4"/>
<path d="M356.427 28.073C354.218 30.282 351.551 31.3865 348.419 31.3865C345.287 31.3865 342.565 30.282 340.246 28.073C337.926 25.864 336.767 23.1895 336.767 20.0653C336.767 16.9411 337.926 14.4244 340.246 12.2154C342.565 10.0064 345.287 8.90187 348.419 8.90187C351.551 8.90187 354.218 10.0064 356.427 12.2154C358.636 14.4244 359.74 17.0437 359.74 20.0653C359.74 23.0869 358.636 25.864 356.427 28.073Z" fill="black" fill-opacity="0.4"/>
<path d="M381.199 313.014C378.99 315.223 376.324 316.327 373.192 316.327C370.06 316.327 367.338 315.223 365.018 313.014C362.699 310.805 361.539 308.13 361.539 305.006C361.539 301.882 362.699 299.365 365.018 297.156C367.338 294.947 370.06 293.843 373.192 293.843C376.324 293.843 378.99 294.947 381.199 297.156C383.408 299.365 384.513 301.984 384.513 305.006C384.513 308.028 383.408 310.805 381.199 313.014Z" fill="black" fill-opacity="0.4"/>
<path d="M381.199 288.233C378.99 290.442 376.324 291.547 373.192 291.547C370.06 291.547 367.338 290.442 365.018 288.233C362.699 286.024 361.539 283.349 361.539 280.225C361.539 277.101 362.699 274.584 365.018 272.375C367.338 270.166 370.06 269.062 373.192 269.062C376.324 269.062 378.99 270.166 381.199 272.375C383.408 274.584 384.513 277.204 384.513 280.225C384.513 283.247 383.408 286.024 381.199 288.233Z" fill="black" fill-opacity="0.4"/>
<path d="M381.199 263.459C378.99 265.668 376.324 266.772 373.192 266.772C370.06 266.772 367.338 265.668 365.018 263.459C362.699 261.25 361.539 258.575 361.539 255.451C361.539 252.327 362.699 249.81 365.018 247.601C367.338 245.392 370.06 244.288 373.192 244.288C376.324 244.288 378.99 245.392 381.199 247.601C383.408 249.81 384.513 252.43 384.513 255.451C384.513 258.473 383.408 261.25 381.199 263.459Z" fill="black" fill-opacity="0.4"/>
<path d="M381.199 238.678C378.99 240.887 376.324 241.992 373.192 241.992C370.06 241.992 367.338 240.887 365.018 238.678C362.699 236.469 361.539 233.795 361.539 230.67C361.539 227.546 362.699 225.029 365.018 222.82C367.338 220.611 370.06 219.507 373.192 219.507C376.324 219.507 378.99 220.611 381.199 222.82C383.408 225.029 384.513 227.649 384.513 230.67C384.513 233.692 383.408 236.469 381.199 238.678Z" fill="black" fill-opacity="0.4"/>
<path d="M381.199 213.907C378.99 216.116 376.324 217.221 373.192 217.221C370.06 217.221 367.338 216.116 365.018 213.907C362.699 211.698 361.539 209.024 361.539 205.9C361.539 202.775 362.699 200.259 365.018 198.05C367.338 195.841 370.06 194.736 373.192 194.736C376.324 194.736 378.99 195.841 381.199 198.05C383.408 200.259 384.513 202.878 384.513 205.9C384.513 208.921 383.408 211.698 381.199 213.907Z" fill="black" fill-opacity="0.4"/>
<path d="M381.199 189.126C378.99 191.335 376.324 192.44 373.192 192.44C370.06 192.44 367.338 191.335 365.018 189.126C362.699 186.917 361.539 184.243 361.539 181.119C361.539 177.995 362.699 175.478 365.018 173.269C367.338 171.06 370.06 169.955 373.192 169.955C376.324 169.955 378.99 171.06 381.199 173.269C383.408 175.478 384.513 178.097 384.513 181.119C384.513 184.14 383.408 186.917 381.199 189.126Z" fill="black" fill-opacity="0.4"/>
<path d="M381.199 164.346C378.99 166.555 376.324 167.659 373.192 167.659C370.06 167.659 367.338 166.555 365.018 164.346C362.699 162.137 361.539 159.462 361.539 156.338C361.539 153.214 362.699 150.697 365.018 148.488C367.338 146.279 370.06 145.175 373.192 145.175C376.324 145.175 378.99 146.279 381.199 148.488C383.408 150.697 384.513 153.316 384.513 156.338C384.513 159.36 383.408 162.137 381.199 164.346Z" fill="black" fill-opacity="0.4"/>
<path d="M381.199 139.572C378.99 141.781 376.324 142.885 373.192 142.885C370.06 142.885 367.338 141.781 365.018 139.572C362.699 137.363 361.539 134.688 361.539 131.564C361.539 128.44 362.699 125.923 365.018 123.714C367.338 121.505 370.06 120.4 373.192 120.4C376.324 120.4 378.99 121.505 381.199 123.714C383.408 125.923 384.513 128.542 384.513 131.564C384.513 134.585 383.408 137.363 381.199 139.572Z" fill="black" fill-opacity="0.4"/>
<path d="M381.199 114.791C378.99 117 376.324 118.104 373.192 118.104C370.06 118.104 367.338 117 365.018 114.791C362.699 112.582 361.539 109.907 361.539 106.783C361.539 103.659 362.699 101.142 365.018 98.9332C367.338 96.7242 370.06 95.6197 373.192 95.6197C376.324 95.6197 378.99 96.7242 381.199 98.9332C383.408 101.142 384.513 103.761 384.513 106.783C384.513 109.805 383.408 112.582 381.199 114.791Z" fill="black" fill-opacity="0.4"/>
<path d="M381.199 90.0133C378.99 92.2224 376.324 93.3268 373.192 93.3268C370.06 93.3268 367.338 92.2224 365.018 90.0133C362.699 87.8043 361.539 85.1298 361.539 82.0056C361.539 78.8814 362.699 76.3648 365.018 74.1557C367.338 71.9467 370.06 70.8422 373.192 70.8422C376.324 70.8422 378.99 71.9467 381.199 74.1557C383.408 76.3648 384.513 78.984 384.513 82.0056C384.513 85.0273 383.408 87.8043 381.199 90.0133Z" fill="black" fill-opacity="0.4"/>
<path d="M381.199 65.2392C378.99 67.4482 376.324 68.5527 373.192 68.5527C370.06 68.5527 367.338 67.4482 365.018 65.2392C362.699 63.0302 361.539 60.3557 361.539 57.2315C361.539 54.1073 362.699 51.5906 365.018 49.3816C367.338 47.1726 370.06 46.0681 373.192 46.0681C376.324 46.0681 378.99 47.1726 381.199 49.3816C383.408 51.5906 384.513 54.2099 384.513 57.2315C384.513 60.2531 383.408 63.0302 381.199 65.2392Z" fill="black" fill-opacity="0.4"/>
<path d="M381.199 15.6776C378.99 17.8866 376.324 18.9911 373.192 18.9911C370.06 18.9911 367.338 17.8866 365.018 15.6776C362.699 13.4686 361.539 10.7941 361.539 7.66994C361.539 4.54575 362.699 2.02905 365.018 -0.179969C367.338 -2.38899 370.06 -3.4935 373.192 -3.4935C376.324 -3.4935 378.99 -2.38899 381.199 -0.179969C383.408 2.02905 384.513 4.64831 384.513 7.66994C384.513 10.6916 383.408 13.4686 381.199 15.6776Z" fill="black" fill-opacity="0.4"/>
<path d="M405.98 300.625C403.771 302.834 401.104 303.939 397.972 303.939C394.84 303.939 392.118 302.834 389.799 300.625C387.48 298.416 386.32 295.742 386.32 292.617C386.32 289.493 387.48 286.976 389.799 284.767C392.118 282.558 394.84 281.454 397.972 281.454C401.104 281.454 403.771 282.558 405.98 284.767C408.189 286.976 409.294 289.596 409.294 292.617C409.294 295.639 408.189 298.416 405.98 300.625Z" fill="black" fill-opacity="0.4"/>
<path d="M405.98 275.848C403.771 278.057 401.104 279.161 397.972 279.161C394.84 279.161 392.118 278.057 389.799 275.848C387.48 273.639 386.32 270.964 386.32 267.84C386.32 264.716 387.48 262.199 389.799 259.99C392.118 257.781 394.84 256.676 397.972 256.676C401.104 256.676 403.771 257.781 405.98 259.99C408.189 262.199 409.294 264.818 409.294 267.84C409.294 270.861 408.189 273.639 405.98 275.848Z" fill="black" fill-opacity="0.4"/>
<path d="M405.98 251.067C403.771 253.276 401.104 254.38 397.972 254.38C394.84 254.38 392.118 253.276 389.799 251.067C387.48 248.858 386.32 246.183 386.32 243.059C386.32 239.935 387.48 237.418 389.799 235.209C392.118 233 394.84 231.896 397.972 231.896C401.104 231.896 403.771 233 405.98 235.209C408.189 237.418 409.294 240.037 409.294 243.059C409.294 246.081 408.189 248.858 405.98 251.067Z" fill="black" fill-opacity="0.4"/>
<path d="M405.98 226.293C403.771 228.502 401.104 229.606 397.972 229.606C394.84 229.606 392.118 228.502 389.799 226.293C387.48 224.084 386.32 221.409 386.32 218.285C386.32 215.161 387.48 212.644 389.799 210.435C392.118 208.226 394.84 207.122 397.972 207.122C401.104 207.122 403.771 208.226 405.98 210.435C408.189 212.644 409.294 215.263 409.294 218.285C409.294 221.307 408.189 224.084 405.98 226.293Z" fill="black" fill-opacity="0.4"/>
<path d="M405.98 201.512C403.771 203.721 401.104 204.825 397.972 204.825C394.84 204.825 392.118 203.721 389.799 201.512C387.48 199.303 386.32 196.628 386.32 193.504C386.32 190.38 387.48 187.863 389.799 185.654C392.118 183.445 394.84 182.341 397.972 182.341C401.104 182.341 403.771 183.445 405.98 185.654C408.189 187.863 409.294 190.483 409.294 193.504C409.294 196.526 408.189 199.303 405.98 201.512Z" fill="black" fill-opacity="0.4"/>
<path d="M405.98 176.738C403.771 178.947 401.104 180.051 397.972 180.051C394.84 180.051 392.118 178.947 389.799 176.738C387.48 174.529 386.32 171.854 386.32 168.73C386.32 165.606 387.48 163.089 389.799 160.88C392.118 158.671 394.84 157.567 397.972 157.567C401.104 157.567 403.771 158.671 405.98 160.88C408.189 163.089 409.294 165.708 409.294 168.73C409.294 171.752 408.189 174.529 405.98 176.738Z" fill="black" fill-opacity="0.4"/>
<path d="M405.98 151.957C403.771 154.166 401.104 155.27 397.972 155.27C394.84 155.27 392.118 154.166 389.799 151.957C387.48 149.748 386.32 147.073 386.32 143.949C386.32 140.825 387.48 138.308 389.799 136.099C392.118 133.89 394.84 132.786 397.972 132.786C401.104 132.786 403.771 133.89 405.98 136.099C408.189 138.308 409.294 140.928 409.294 143.949C409.294 146.971 408.189 149.748 405.98 151.957Z" fill="black" fill-opacity="0.4"/>
<path d="M405.98 3.29222C403.771 5.50123 401.104 6.60574 397.972 6.60574C394.84 6.60574 392.118 5.50123 389.799 3.29222C387.48 1.0832 386.32 -1.59129 386.32 -4.71548C386.32 -7.83966 387.48 -10.3564 389.799 -12.5654C392.118 -14.7744 394.84 -15.8789 397.972 -15.8789C401.104 -15.8789 403.771 -14.7744 405.98 -12.5654C408.189 -10.3564 409.294 -7.7371 409.294 -4.71548C409.294 -1.69385 408.189 1.0832 405.98 3.29222Z" fill="black" fill-opacity="0.4"/>
<path d="M430.76 337.791C428.551 340 425.885 341.105 422.753 341.105C419.621 341.105 416.899 340 414.579 337.791C412.26 335.582 411.1 332.908 411.1 329.784C411.1 326.659 412.26 324.143 414.579 321.934C416.899 319.725 419.621 318.62 422.753 318.62C425.885 318.62 428.551 319.725 430.76 321.934C432.969 324.143 434.074 326.762 434.074 329.784C434.074 332.805 432.969 335.582 430.76 337.791Z" fill="black" fill-opacity="0.4"/>
<path d="M430.76 313.014C428.551 315.223 425.885 316.327 422.753 316.327C419.621 316.327 416.899 315.223 414.579 313.014C412.26 310.805 411.1 308.13 411.1 305.006C411.1 301.882 412.26 299.365 414.579 297.156C416.899 294.947 419.621 293.843 422.753 293.843C425.885 293.843 428.551 294.947 430.76 297.156C432.969 299.365 434.074 301.984 434.074 305.006C434.074 308.028 432.969 310.805 430.76 313.014Z" fill="black" fill-opacity="0.4"/>
<path d="M430.76 288.233C428.551 290.442 425.885 291.547 422.753 291.547C419.621 291.547 416.899 290.442 414.579 288.233C412.26 286.024 411.1 283.349 411.1 280.225C411.1 277.101 412.26 274.584 414.579 272.375C416.899 270.166 419.621 269.062 422.753 269.062C425.885 269.062 428.551 270.166 430.76 272.375C432.969 274.584 434.074 277.204 434.074 280.225C434.074 283.247 432.969 286.024 430.76 288.233Z" fill="black" fill-opacity="0.4"/>
<path d="M430.76 263.459C428.551 265.668 425.885 266.772 422.753 266.772C419.621 266.772 416.899 265.668 414.579 263.459C412.26 261.25 411.1 258.575 411.1 255.451C411.1 252.327 412.26 249.81 414.579 247.601C416.899 245.392 419.621 244.288 422.753 244.288C425.885 244.288 428.551 245.392 430.76 247.601C432.969 249.81 434.074 252.43 434.074 255.451C434.074 258.473 432.969 261.25 430.76 263.459Z" fill="black" fill-opacity="0.4"/>
<path d="M430.76 238.678C428.551 240.887 425.885 241.992 422.753 241.992C419.621 241.992 416.899 240.887 414.579 238.678C412.26 236.469 411.1 233.795 411.1 230.67C411.1 227.546 412.26 225.029 414.579 222.82C416.899 220.611 419.621 219.507 422.753 219.507C425.885 219.507 428.551 220.611 430.76 222.82C432.969 225.029 434.074 227.649 434.074 230.67C434.074 233.692 432.969 236.469 430.76 238.678Z" fill="black" fill-opacity="0.4"/>
<path d="M430.76 213.907C428.551 216.116 425.885 217.221 422.753 217.221C419.621 217.221 416.899 216.116 414.579 213.907C412.26 211.698 411.1 209.024 411.1 205.9C411.1 202.775 412.26 200.259 414.579 198.05C416.899 195.841 419.621 194.736 422.753 194.736C425.885 194.736 428.551 195.841 430.76 198.05C432.969 200.259 434.074 202.878 434.074 205.9C434.074 208.921 432.969 211.698 430.76 213.907Z" fill="black" fill-opacity="0.4"/>
<path d="M430.76 189.126C428.551 191.335 425.885 192.44 422.753 192.44C419.621 192.44 416.899 191.335 414.579 189.126C412.26 186.917 411.1 184.243 411.1 181.119C411.1 177.995 412.26 175.478 414.579 173.269C416.899 171.06 419.621 169.955 422.753 169.955C425.885 169.955 428.551 171.06 430.76 173.269C432.969 175.478 434.074 178.097 434.074 181.119C434.074 184.14 432.969 186.917 430.76 189.126Z" fill="black" fill-opacity="0.4"/>
<path d="M455.533 350.18C453.324 352.389 450.657 353.493 447.525 353.493C444.393 353.493 441.671 352.389 439.352 350.18C437.032 347.971 435.873 345.296 435.873 342.172C435.873 339.048 437.032 336.531 439.352 334.322C441.671 332.113 444.393 331.009 447.525 331.009C450.657 331.009 453.324 332.113 455.533 334.322C457.742 336.531 458.846 339.151 458.846 342.172C458.846 345.194 457.742 347.971 455.533 350.18Z" fill="black" fill-opacity="0.4"/>
<path d="M455.533 325.399C453.324 327.608 450.657 328.713 447.525 328.713C444.393 328.713 441.671 327.608 439.352 325.399C437.032 323.19 435.873 320.516 435.873 317.391C435.873 314.267 437.032 311.751 439.352 309.542C441.671 307.333 444.393 306.228 447.525 306.228C450.657 306.228 453.324 307.333 455.533 309.542C457.742 311.751 458.846 314.37 458.846 317.391C458.846 320.413 457.742 323.19 455.533 325.399Z" fill="black" fill-opacity="0.4"/>
<path d="M455.533 300.625C453.324 302.834 450.657 303.939 447.525 303.939C444.393 303.939 441.671 302.834 439.352 300.625C437.032 298.416 435.873 295.742 435.873 292.617C435.873 289.493 437.032 286.976 439.352 284.767C441.671 282.558 444.393 281.454 447.525 281.454C450.657 281.454 453.324 282.558 455.533 284.767C457.742 286.976 458.846 289.596 458.846 292.617C458.846 295.639 457.742 298.416 455.533 300.625Z" fill="black" fill-opacity="0.4"/>
<path d="M455.533 275.848C453.324 278.057 450.657 279.161 447.525 279.161C444.393 279.161 441.671 278.057 439.352 275.848C437.032 273.639 435.873 270.964 435.873 267.84C435.873 264.716 437.032 262.199 439.352 259.99C441.671 257.781 444.393 256.676 447.525 256.676C450.657 256.676 453.324 257.781 455.533 259.99C457.742 262.199 458.846 264.818 458.846 267.84C458.846 270.861 457.742 273.639 455.533 275.848Z" fill="black" fill-opacity="0.4"/>
<path d="M455.533 251.067C453.324 253.276 450.657 254.38 447.525 254.38C444.393 254.38 441.671 253.276 439.352 251.067C437.032 248.858 435.873 246.183 435.873 243.059C435.873 239.935 437.032 237.418 439.352 235.209C441.671 233 444.393 231.896 447.525 231.896C450.657 231.896 453.324 233 455.533 235.209C457.742 237.418 458.846 240.037 458.846 243.059C458.846 246.081 457.742 248.858 455.533 251.067Z" fill="black" fill-opacity="0.4"/>
<path d="M455.533 226.293C453.324 228.502 450.657 229.606 447.525 229.606C444.393 229.606 441.671 228.502 439.352 226.293C437.032 224.084 435.873 221.409 435.873 218.285C435.873 215.161 437.032 212.644 439.352 210.435C441.671 208.226 444.393 207.122 447.525 207.122C450.657 207.122 453.324 208.226 455.533 210.435C457.742 212.644 458.846 215.263 458.846 218.285C458.846 221.307 457.742 224.084 455.533 226.293Z" fill="black" fill-opacity="0.4"/>
<path d="M480.313 337.791C478.104 340 475.438 341.105 472.306 341.105C469.173 341.105 466.452 340 464.132 337.791C461.813 335.582 460.653 332.908 460.653 329.784C460.653 326.659 461.813 324.143 464.132 321.934C466.452 319.725 469.173 318.62 472.306 318.62C475.438 318.62 478.104 319.725 480.313 321.934C482.522 324.143 483.627 326.762 483.627 329.784C483.627 332.805 482.522 335.582 480.313 337.791Z" fill="black" fill-opacity="0.4"/>
<path d="M480.313 313.014C478.104 315.223 475.438 316.327 472.306 316.327C469.173 316.327 466.452 315.223 464.132 313.014C461.813 310.805 460.653 308.13 460.653 305.006C460.653 301.882 461.813 299.365 464.132 297.156C466.452 294.947 469.173 293.843 472.306 293.843C475.438 293.843 478.104 294.947 480.313 297.156C482.522 299.365 483.627 301.984 483.627 305.006C483.627 308.028 482.522 310.805 480.313 313.014Z" fill="black" fill-opacity="0.4"/>
<path d="M480.313 288.233C478.104 290.442 475.438 291.547 472.306 291.547C469.173 291.547 466.452 290.442 464.132 288.233C461.813 286.024 460.653 283.349 460.653 280.225C460.653 277.101 461.813 274.584 464.132 272.375C466.452 270.166 469.173 269.062 472.306 269.062C475.438 269.062 478.104 270.166 480.313 272.375C482.522 274.584 483.627 277.204 483.627 280.225C483.627 283.247 482.522 286.024 480.313 288.233Z" fill="black" fill-opacity="0.4"/>
<path d="M480.313 263.459C478.104 265.668 475.438 266.772 472.306 266.772C469.173 266.772 466.452 265.668 464.132 263.459C461.813 261.25 460.653 258.575 460.653 255.451C460.653 252.327 461.813 249.81 464.132 247.601C466.452 245.392 469.173 244.288 472.306 244.288C475.438 244.288 478.104 245.392 480.313 247.601C482.522 249.81 483.627 252.43 483.627 255.451C483.627 258.473 482.522 261.25 480.313 263.459Z" fill="black" fill-opacity="0.4"/>
<path d="M505.094 325.399C502.885 327.608 500.218 328.713 497.086 328.713C493.954 328.713 491.232 327.608 488.913 325.399C486.593 323.19 485.433 320.516 485.433 317.391C485.433 314.267 486.593 311.751 488.913 309.542C491.232 307.333 493.954 306.228 497.086 306.228C500.218 306.228 502.885 307.333 505.094 309.542C507.303 311.751 508.407 314.37 508.407 317.391C508.407 320.413 507.303 323.19 505.094 325.399Z" fill="black" fill-opacity="0.4"/>
<path d="M505.094 300.625C502.885 302.834 500.218 303.939 497.086 303.939C493.954 303.939 491.232 302.834 488.913 300.625C486.593 298.416 485.433 295.742 485.433 292.617C485.433 289.493 486.593 286.976 488.913 284.767C491.232 282.558 493.954 281.454 497.086 281.454C500.218 281.454 502.885 282.558 505.094 284.767C507.303 286.976 508.407 289.596 508.407 292.617C508.407 295.639 507.303 298.416 505.094 300.625Z" fill="black" fill-opacity="0.4"/>
</g>
</g>
<defs>
<clipPath id="clip0_1779_63329">
<rect width="646" height="350" fill="white" transform="translate(0.476562)"/>
</clipPath>
<clipPath id="clip1_1779_63329">
<rect width="646" height="350" fill="white" transform="translate(0.476562)"/>
</clipPath>
</defs>
</svg>
