<svg width="647" height="350" viewBox="0 0 647 350" fill="none" xmlns="http://www.w3.org/2000/svg">
<g clip-path="url(#clip0_1779_63203)">
<rect width="646" height="350" transform="translate(0.476562)" fill="white"/>
<g clip-path="url(#clip1_1779_63203)">
<rect width="646" height="350" transform="translate(0.476562)" fill="white"/>
<path d="M65.9458 165.364L72.1634 134.821H80.7809L71.6726 173H60.6008L53.5105 143.603L46.4748 173H35.2394L26.6219 134.821H35.6757L41.5115 165.31L48.9291 134.821H58.7464L65.9458 165.364ZM100.107 144.857C106.107 144.857 109.543 148.02 109.543 154.838V173H101.034V156.365C101.034 152.547 99.5071 150.747 96.5619 150.747C93.3985 150.747 91.6532 152.984 91.6532 157.565V173H83.1449V134.821H91.5987V149.329C92.9622 146.657 95.9074 144.857 100.107 144.857ZM141.209 159.583V160.892H121.684C121.738 166.128 123.756 168.909 127.302 168.909C129.701 168.909 131.392 167.437 132.047 164.764H140.991C140.01 170.164 135.537 173.873 127.302 173.873C117.157 173.873 112.794 167.655 112.794 159.583C112.794 151.129 117.321 144.857 127.411 144.857C136.192 144.857 141.209 150.366 141.209 159.583ZM127.356 149.766C124.084 149.766 122.229 152.329 121.848 155.874H132.374C132.374 151.784 130.138 149.766 127.356 149.766ZM153.091 145.73V152.165C154.345 147.202 157.672 145.402 162.472 145.402V152.656H161.926C155.382 152.656 153.254 156.856 153.254 161.492V173H144.746V150.802C144.746 149.547 144.692 146.875 144.637 145.73H153.091ZM190.986 159.583V160.892H171.461C171.515 166.128 173.533 168.909 177.079 168.909C179.478 168.909 181.169 167.437 181.824 164.764H190.768C189.787 170.164 185.314 173.873 177.079 173.873C166.934 173.873 162.571 167.655 162.571 159.583C162.571 151.129 167.098 144.857 177.188 144.857C185.969 144.857 190.986 150.366 190.986 159.583ZM177.133 149.766C173.861 149.766 172.006 152.329 171.624 155.874H182.151C182.151 151.784 179.915 149.766 177.133 149.766ZM223.071 173.873C211.672 173.873 204.418 165.964 204.418 153.911C204.418 141.857 211.672 133.949 223.125 133.949C232.179 133.949 238.179 138.367 239.706 145.511H230.325C229.289 142.13 226.78 139.948 223.071 139.948C217.344 139.948 213.908 145.075 213.908 153.911C213.908 162.746 217.399 167.873 223.071 167.873C226.943 167.873 229.561 165.746 230.543 161.765H239.924C238.015 169.837 232.125 173.873 223.071 173.873ZM259.771 144.857C265.77 144.857 269.206 148.02 269.206 154.838V173H260.698V156.365C260.698 152.547 259.171 150.747 256.226 150.747C253.062 150.747 251.317 152.984 251.317 157.565V173H242.809V134.821H251.262V149.329C252.626 146.657 255.571 144.857 259.771 144.857ZM281.729 173.6C275.73 173.6 272.13 170.437 272.13 165.364C272.13 159.856 276.712 158.329 281.729 157.347L284.456 156.801C288.274 156.038 290.456 155.547 290.456 152.874C290.456 150.693 288.765 149.711 286.474 149.711C284.184 149.711 282.22 150.693 282.166 153.311H273.276C273.548 147.475 278.348 144.857 286.584 144.857C290.238 144.857 292.91 145.402 294.874 146.493C297.983 148.238 298.801 151.184 298.801 154.62V168.528C298.801 170.328 298.855 171.8 298.964 173H290.62V169.237C289.092 171.636 286.474 173.6 281.729 173.6ZM285.166 168.2C288.383 168.2 290.292 166.128 290.292 162.855V159.474C289.692 159.91 288.056 160.401 286.474 160.837L285.711 161.056C282.929 161.874 281.129 162.474 281.129 164.764C281.129 166.782 282.548 168.2 285.166 168.2ZM336.611 144.857C342.392 144.857 345.828 147.911 345.828 154.511V173H337.32V155.711C337.32 152.547 336.065 150.747 333.447 150.747C330.775 150.747 328.92 152.711 328.92 157.02V173H320.412V155.711C320.412 152.547 319.158 150.747 316.54 150.747C313.867 150.747 312.013 152.711 312.013 157.02V173H303.504V150.802C303.504 149.547 303.45 146.93 303.395 145.73H311.958V149.329C313.104 146.602 316.267 144.857 319.812 144.857C323.848 144.857 326.684 146.384 327.993 149.493C329.466 146.711 332.411 144.857 336.611 144.857ZM367.023 144.857C374.931 144.857 378.64 151.02 378.64 159.038C378.64 167.546 374.767 173.545 366.859 173.545C363.532 173.545 360.914 172.346 359.005 170.164V182.817H350.497V145.73H359.005V148.566C360.75 146.111 363.368 144.857 367.023 144.857ZM364.077 168.255C367.841 168.255 369.422 164.764 369.422 159.365C369.422 153.474 367.514 150.147 364.077 150.147C360.423 150.147 358.842 153.474 358.842 159.365C358.842 164.437 360.423 168.255 364.077 168.255ZM386.457 142.239C383.675 142.239 381.439 140.057 381.439 137.33C381.439 134.603 383.675 132.422 386.457 132.422C389.293 132.422 391.475 134.603 391.475 137.33C391.475 140.057 389.293 142.239 386.457 142.239ZM390.711 173H382.203V145.73H390.711V173ZM409.112 173.873C398.64 173.873 394.167 167.491 394.167 159.419C394.167 151.238 398.64 144.857 409.112 144.857C419.583 144.857 424.056 151.238 424.056 159.419C424.056 167.491 419.583 173.873 409.112 173.873ZM409.112 168.746C412.929 168.746 414.729 165.31 414.729 159.419C414.729 153.42 412.929 149.984 409.112 149.984C405.239 149.984 403.494 153.42 403.494 159.419C403.494 165.31 405.239 168.746 409.112 168.746ZM444.468 144.857C450.467 144.857 453.904 148.02 453.904 154.838V173H445.395V156.365C445.395 152.547 443.868 150.747 440.923 150.747C437.814 150.747 436.014 152.984 436.014 157.565V173H427.506V150.802C427.506 149.547 427.451 147.039 427.397 145.73H435.905V149.438C437.214 146.711 440.214 144.857 444.468 144.857ZM470.572 173.873C462.445 173.873 457.536 170.546 456.718 164.546H465.663C465.99 167.437 467.79 169.291 471.063 169.291C473.68 169.291 475.099 168.037 475.099 166.51C475.099 164.437 473.408 163.728 469.535 162.637L465.118 161.328C460.045 159.91 457.373 157.129 457.373 153.202C457.373 148.075 461.954 144.857 470.026 144.857C477.717 144.857 482.516 147.802 483.225 153.311H474.88C474.444 150.638 472.535 149.438 470.026 149.438C467.626 149.438 466.263 150.638 466.263 152.111C466.263 153.856 468.172 154.674 471.608 155.656L476.08 156.91C479.462 157.892 483.989 159.965 483.989 165.037C483.989 170.382 479.244 173.873 470.572 173.873ZM43.4205 200.638V198.456H62.1279V217H59.8918V206.801C59.5645 207.946 59.0737 209.146 58.3646 210.401C57.6556 211.71 56.6739 212.909 55.5285 214.055C54.3832 215.2 52.9106 216.073 51.2198 216.782C49.529 217.491 47.4565 217.873 45.1112 217.873C41.5661 217.873 38.5118 217 35.8938 215.309C33.2759 213.618 31.2579 211.273 29.8398 208.273C28.3672 205.274 27.6582 201.838 27.6582 197.911C27.6582 193.929 28.4218 190.439 29.8944 187.439C31.367 184.439 33.4941 182.148 36.1665 180.458C38.839 178.767 42.0024 177.949 45.5476 177.949C49.3109 177.949 52.6379 178.876 55.4194 180.676C58.201 182.53 60.0554 185.148 61.0917 188.53H58.4192C57.492 185.857 55.9103 183.73 53.6741 182.258C51.3834 180.785 48.6564 180.021 45.5476 180.021C42.4387 180.021 39.7662 180.73 37.5301 182.203C35.2394 183.676 33.4941 185.748 32.2396 188.421C30.9852 191.093 30.3307 194.257 30.3307 197.856C30.3307 201.456 30.9852 204.565 32.2396 207.237C33.4941 209.91 35.2394 212.037 37.4755 213.509C39.7117 214.982 42.3297 215.746 45.3294 215.746C48.1655 215.746 50.6198 215.091 52.6924 213.782C54.7649 212.528 56.4012 210.728 57.6011 208.437C58.801 206.201 59.4555 203.583 59.6191 200.638H43.4205ZM69.7462 189.73V197.42C70.3461 194.966 71.6551 193.002 73.564 191.475C75.473 190.002 77.8182 189.239 80.7089 189.239V191.584H80.2725C78.0364 191.584 76.182 192.075 74.6003 193.111C73.0186 194.147 71.8733 195.456 71.0552 197.147C70.237 198.838 69.8007 200.692 69.8007 202.71V217H67.4009V194.802C67.4009 194.202 67.4009 193.329 67.4009 192.293C67.3464 191.257 67.3464 190.384 67.2918 189.73H69.7462ZM95.855 217.873C93.128 217.873 90.7827 217.273 88.8193 216.018C86.8012 214.764 85.2741 213.073 84.2378 210.891C83.147 208.71 82.6016 206.201 82.6016 203.365C82.6016 200.474 83.147 197.965 84.2378 195.784C85.2741 193.657 86.8012 191.966 88.8193 190.711C90.7827 189.457 93.128 188.857 95.855 188.857C98.582 188.857 100.927 189.457 102.945 190.711C104.909 191.966 106.436 193.657 107.472 195.784C108.508 197.965 109.054 200.474 109.054 203.365C109.054 206.201 108.508 208.71 107.472 210.891C106.436 213.073 104.909 214.764 102.945 216.018C100.927 217.273 98.582 217.873 95.855 217.873ZM95.855 215.964C97.9821 215.964 99.891 215.418 101.473 214.382C103.054 213.346 104.309 211.873 105.181 209.964C106.054 208.055 106.49 205.874 106.49 203.365C106.49 200.856 106.054 198.674 105.181 196.765C104.309 194.856 103.054 193.384 101.473 192.348C99.891 191.311 97.9821 190.766 95.855 190.766C93.7279 190.766 91.819 191.311 90.2373 192.348C88.6011 193.384 87.3467 194.856 86.474 196.765C85.6013 198.674 85.165 200.856 85.165 203.365C85.165 205.874 85.6013 208.055 86.474 209.964C87.3467 211.873 88.6011 213.346 90.2373 214.382C91.819 215.418 93.7279 215.964 95.855 215.964ZM140.493 214L149.601 189.73H152.055L141.638 217H139.184L131.275 193.002L123.367 217H120.858L110.604 189.73H113.222L122.222 214.055L130.075 189.73H132.584L140.493 214Z" fill="black"/>
<path d="M0.476562 350L646.477 0" stroke="#FF0000"/>
<path d="M311.367 186.022C311.205 186.184 311.009 186.265 310.78 186.265C310.55 186.265 310.351 186.184 310.181 186.022C310.011 185.86 309.926 185.664 309.926 185.435C309.926 185.206 310.011 185.022 310.181 184.86C310.351 184.698 310.55 184.617 310.78 184.617C311.009 184.617 311.205 184.698 311.367 184.86C311.528 185.022 311.609 185.214 311.609 185.435C311.609 185.656 311.528 185.86 311.367 186.022Z" fill="black" fill-opacity="0.4"/>
<path d="M311.367 184.206C311.205 184.368 311.009 184.449 310.78 184.449C310.55 184.449 310.351 184.368 310.181 184.206C310.011 184.044 309.926 183.848 309.926 183.619C309.926 183.39 310.011 183.206 310.181 183.044C310.351 182.882 310.55 182.801 310.78 182.801C311.009 182.801 311.205 182.882 311.367 183.044C311.528 183.206 311.609 183.398 311.609 183.619C311.609 183.841 311.528 184.044 311.367 184.206Z" fill="black" fill-opacity="0.4"/>
<path d="M313.182 186.93C313.02 187.092 312.825 187.173 312.595 187.173C312.366 187.173 312.166 187.092 311.996 186.93C311.826 186.768 311.741 186.572 311.741 186.343C311.741 186.114 311.826 185.93 311.996 185.768C312.166 185.606 312.366 185.525 312.595 185.525C312.825 185.525 313.02 185.606 313.182 185.768C313.344 185.93 313.425 186.122 313.425 186.343C313.425 186.565 313.344 186.768 313.182 186.93Z" fill="black" fill-opacity="0.4"/>
<path d="M313.182 185.114C313.02 185.276 312.825 185.357 312.595 185.357C312.366 185.357 312.166 185.276 311.996 185.114C311.826 184.952 311.741 184.756 311.741 184.527C311.741 184.298 311.826 184.114 311.996 183.952C312.166 183.79 312.366 183.709 312.595 183.709C312.825 183.709 313.02 183.79 313.182 183.952C313.344 184.114 313.425 184.306 313.425 184.527C313.425 184.749 313.344 184.952 313.182 185.114Z" fill="black" fill-opacity="0.4"/>
<path d="M313.182 183.298C313.02 183.46 312.825 183.541 312.595 183.541C312.366 183.541 312.166 183.46 311.996 183.298C311.826 183.136 311.741 182.94 311.741 182.711C311.741 182.482 311.826 182.298 311.996 182.136C312.166 181.974 312.366 181.893 312.595 181.893C312.825 181.893 313.02 181.974 313.182 182.136C313.344 182.298 313.425 182.49 313.425 182.711C313.425 182.933 313.344 183.136 313.182 183.298Z" fill="black" fill-opacity="0.4"/>
<path d="M313.182 181.483C313.02 181.644 312.825 181.725 312.595 181.725C312.366 181.725 312.166 181.644 311.996 181.483C311.826 181.321 311.741 181.125 311.741 180.896C311.741 180.667 311.826 180.482 311.996 180.32C312.166 180.159 312.366 180.078 312.595 180.078C312.825 180.078 313.02 180.159 313.182 180.32C313.344 180.482 313.425 180.674 313.425 180.896C313.425 181.117 313.344 181.321 313.182 181.483Z" fill="black" fill-opacity="0.4"/>
<path d="M314.998 187.838C314.836 188 314.641 188.081 314.411 188.081C314.182 188.081 313.982 188 313.812 187.838C313.642 187.676 313.557 187.48 313.557 187.251C313.557 187.022 313.642 186.838 313.812 186.676C313.982 186.514 314.182 186.433 314.411 186.433C314.641 186.433 314.836 186.514 314.998 186.676C315.16 186.838 315.241 187.03 315.241 187.251C315.241 187.472 315.16 187.676 314.998 187.838Z" fill="black" fill-opacity="0.4"/>
<path d="M314.998 186.022C314.836 186.184 314.641 186.265 314.411 186.265C314.182 186.265 313.982 186.184 313.812 186.022C313.642 185.86 313.557 185.664 313.557 185.435C313.557 185.206 313.642 185.022 313.812 184.86C313.982 184.698 314.182 184.617 314.411 184.617C314.641 184.617 314.836 184.698 314.998 184.86C315.16 185.022 315.241 185.214 315.241 185.435C315.241 185.656 315.16 185.86 314.998 186.022Z" fill="black" fill-opacity="0.4"/>
<path d="M314.998 184.206C314.836 184.368 314.641 184.449 314.411 184.449C314.182 184.449 313.982 184.368 313.812 184.206C313.642 184.044 313.557 183.848 313.557 183.619C313.557 183.39 313.642 183.206 313.812 183.044C313.982 182.882 314.182 182.801 314.411 182.801C314.641 182.801 314.836 182.882 314.998 183.044C315.16 183.206 315.241 183.398 315.241 183.619C315.241 183.841 315.16 184.044 314.998 184.206Z" fill="black" fill-opacity="0.4"/>
<path d="M314.998 182.39C314.836 182.552 314.641 182.633 314.411 182.633C314.182 182.633 313.982 182.552 313.812 182.39C313.642 182.229 313.557 182.033 313.557 181.804C313.557 181.575 313.642 181.39 313.812 181.228C313.982 181.066 314.182 180.986 314.411 180.986C314.641 180.986 314.836 181.066 314.998 181.228C315.16 181.39 315.241 181.582 315.241 181.804C315.241 182.025 315.16 182.229 314.998 182.39Z" fill="black" fill-opacity="0.4"/>
<path d="M314.998 180.574C314.836 180.736 314.641 180.817 314.411 180.817C314.182 180.817 313.982 180.736 313.812 180.574C313.642 180.413 313.557 180.217 313.557 179.988C313.557 179.759 313.642 179.574 313.812 179.412C313.982 179.25 314.182 179.17 314.411 179.17C314.641 179.17 314.836 179.25 314.998 179.412C315.16 179.574 315.241 179.766 315.241 179.988C315.241 180.209 315.16 180.413 314.998 180.574Z" fill="black" fill-opacity="0.4"/>
<path d="M314.998 178.759C314.836 178.921 314.641 179.002 314.411 179.002C314.182 179.002 313.982 178.921 313.812 178.759C313.642 178.597 313.557 178.401 313.557 178.172C313.557 177.943 313.642 177.759 313.812 177.597C313.982 177.435 314.182 177.354 314.411 177.354C314.641 177.354 314.836 177.435 314.998 177.597C315.16 177.759 315.241 177.951 315.241 178.172C315.241 178.394 315.16 178.597 314.998 178.759Z" fill="black" fill-opacity="0.4"/>
<path d="M316.814 186.93C316.652 187.092 316.457 187.173 316.227 187.173C315.998 187.173 315.798 187.092 315.628 186.93C315.458 186.768 315.373 186.572 315.373 186.343C315.373 186.114 315.458 185.93 315.628 185.768C315.798 185.606 315.998 185.525 316.227 185.525C316.457 185.525 316.652 185.606 316.814 185.768C316.976 185.93 317.057 186.122 317.057 186.343C317.057 186.565 316.976 186.768 316.814 186.93Z" fill="black" fill-opacity="0.4"/>
<path d="M316.814 185.114C316.652 185.276 316.457 185.357 316.227 185.357C315.998 185.357 315.798 185.276 315.628 185.114C315.458 184.952 315.373 184.756 315.373 184.527C315.373 184.298 315.458 184.114 315.628 183.952C315.798 183.79 315.998 183.709 316.227 183.709C316.457 183.709 316.652 183.79 316.814 183.952C316.976 184.114 317.057 184.306 317.057 184.527C317.057 184.749 316.976 184.952 316.814 185.114Z" fill="black" fill-opacity="0.4"/>
<path d="M316.814 183.298C316.652 183.46 316.457 183.541 316.227 183.541C315.998 183.541 315.798 183.46 315.628 183.298C315.458 183.136 315.373 182.94 315.373 182.711C315.373 182.482 315.458 182.298 315.628 182.136C315.798 181.974 315.998 181.893 316.227 181.893C316.457 181.893 316.652 181.974 316.814 182.136C316.976 182.298 317.057 182.49 317.057 182.711C317.057 182.933 316.976 183.136 316.814 183.298Z" fill="black" fill-opacity="0.4"/>
<path d="M316.814 181.483C316.652 181.644 316.457 181.725 316.227 181.725C315.998 181.725 315.798 181.644 315.628 181.483C315.458 181.321 315.373 181.125 315.373 180.896C315.373 180.667 315.458 180.482 315.628 180.32C315.798 180.159 315.998 180.078 316.227 180.078C316.457 180.078 316.652 180.159 316.814 180.32C316.976 180.482 317.057 180.674 317.057 180.896C317.057 181.117 316.976 181.321 316.814 181.483Z" fill="black" fill-opacity="0.4"/>
<path d="M316.814 179.667C316.652 179.828 316.457 179.909 316.227 179.909C315.998 179.909 315.798 179.828 315.628 179.667C315.458 179.505 315.373 179.309 315.373 179.08C315.373 178.851 315.458 178.666 315.628 178.504C315.798 178.343 315.998 178.262 316.227 178.262C316.457 178.262 316.652 178.343 316.814 178.504C316.976 178.666 317.057 178.858 317.057 179.08C317.057 179.301 316.976 179.505 316.814 179.667Z" fill="black" fill-opacity="0.4"/>
<path d="M316.814 177.851C316.652 178.013 316.457 178.094 316.227 178.094C315.998 178.094 315.798 178.013 315.628 177.851C315.458 177.689 315.373 177.493 315.373 177.264C315.373 177.035 315.458 176.851 315.628 176.689C315.798 176.527 315.998 176.446 316.227 176.446C316.457 176.446 316.652 176.527 316.814 176.689C316.976 176.851 317.057 177.043 317.057 177.264C317.057 177.486 316.976 177.689 316.814 177.851Z" fill="black" fill-opacity="0.4"/>
<path d="M316.814 176.035C316.652 176.197 316.457 176.278 316.227 176.278C315.998 176.278 315.798 176.197 315.628 176.035C315.458 175.873 315.373 175.677 315.373 175.448C315.373 175.219 315.458 175.035 315.628 174.873C315.798 174.711 315.998 174.63 316.227 174.63C316.457 174.63 316.652 174.711 316.814 174.873C316.976 175.035 317.057 175.227 317.057 175.448C317.057 175.67 316.976 175.873 316.814 176.035Z" fill="black" fill-opacity="0.4"/>
<path d="M318.629 184.206C318.468 184.368 318.272 184.449 318.043 184.449C317.813 184.449 317.614 184.368 317.444 184.206C317.274 184.044 317.189 183.848 317.189 183.619C317.189 183.39 317.274 183.206 317.444 183.044C317.614 182.882 317.813 182.801 318.043 182.801C318.272 182.801 318.468 182.882 318.629 183.044C318.791 183.206 318.872 183.398 318.872 183.619C318.872 183.841 318.791 184.044 318.629 184.206Z" fill="black" fill-opacity="0.4"/>
<path d="M318.629 182.39C318.468 182.552 318.272 182.633 318.043 182.633C317.813 182.633 317.614 182.552 317.444 182.39C317.274 182.229 317.189 182.033 317.189 181.804C317.189 181.575 317.274 181.39 317.444 181.228C317.614 181.066 317.813 180.986 318.043 180.986C318.272 180.986 318.468 181.066 318.629 181.228C318.791 181.39 318.872 181.582 318.872 181.804C318.872 182.025 318.791 182.229 318.629 182.39Z" fill="black" fill-opacity="0.4"/>
<path d="M318.629 180.574C318.468 180.736 318.272 180.817 318.043 180.817C317.813 180.817 317.614 180.736 317.444 180.574C317.274 180.413 317.189 180.217 317.189 179.988C317.189 179.759 317.274 179.574 317.444 179.412C317.614 179.25 317.813 179.17 318.043 179.17C318.272 179.17 318.468 179.25 318.629 179.412C318.791 179.574 318.872 179.766 318.872 179.988C318.872 180.209 318.791 180.413 318.629 180.574Z" fill="black" fill-opacity="0.4"/>
<path d="M318.629 178.759C318.468 178.921 318.272 179.002 318.043 179.002C317.813 179.002 317.614 178.921 317.444 178.759C317.274 178.597 317.189 178.401 317.189 178.172C317.189 177.943 317.274 177.759 317.444 177.597C317.614 177.435 317.813 177.354 318.043 177.354C318.272 177.354 318.468 177.435 318.629 177.597C318.791 177.759 318.872 177.951 318.872 178.172C318.872 178.394 318.791 178.597 318.629 178.759Z" fill="black" fill-opacity="0.4"/>
<path d="M318.629 176.943C318.468 177.105 318.272 177.186 318.043 177.186C317.813 177.186 317.614 177.105 317.444 176.943C317.274 176.781 317.189 176.585 317.189 176.356C317.189 176.127 317.274 175.943 317.444 175.781C317.614 175.619 317.813 175.538 318.043 175.538C318.272 175.538 318.468 175.619 318.629 175.781C318.791 175.943 318.872 176.135 318.872 176.356C318.872 176.577 318.791 176.781 318.629 176.943Z" fill="black" fill-opacity="0.4"/>
<path d="M318.629 175.127C318.468 175.289 318.272 175.37 318.043 175.37C317.813 175.37 317.614 175.289 317.444 175.127C317.274 174.965 317.189 174.769 317.189 174.541C317.189 174.312 317.274 174.127 317.444 173.965C317.614 173.803 317.813 173.722 318.043 173.722C318.272 173.722 318.468 173.803 318.629 173.965C318.791 174.127 318.872 174.319 318.872 174.541C318.872 174.762 318.791 174.965 318.629 175.127Z" fill="black" fill-opacity="0.4"/>
<path d="M318.629 173.311C318.468 173.473 318.272 173.554 318.043 173.554C317.813 173.554 317.614 173.473 317.444 173.311C317.274 173.149 317.189 172.953 317.189 172.724C317.189 172.496 317.274 172.311 317.444 172.149C317.614 171.987 317.813 171.906 318.043 171.906C318.272 171.906 318.468 171.987 318.629 172.149C318.791 172.311 318.872 172.503 318.872 172.724C318.872 172.946 318.791 173.149 318.629 173.311Z" fill="black" fill-opacity="0.4"/>
<path d="M318.629 162.417C318.468 162.579 318.272 162.659 318.043 162.659C317.813 162.659 317.614 162.579 317.444 162.417C317.274 162.255 317.189 162.059 317.189 161.83C317.189 161.601 317.274 161.416 317.444 161.255C317.614 161.093 317.813 161.012 318.043 161.012C318.272 161.012 318.468 161.093 318.629 161.255C318.791 161.416 318.872 161.608 318.872 161.83C318.872 162.051 318.791 162.255 318.629 162.417Z" fill="black" fill-opacity="0.4"/>
<path d="M320.445 185.114C320.284 185.276 320.088 185.357 319.859 185.357C319.629 185.357 319.43 185.276 319.26 185.114C319.09 184.952 319.005 184.756 319.005 184.527C319.005 184.298 319.09 184.114 319.26 183.952C319.43 183.79 319.629 183.709 319.859 183.709C320.088 183.709 320.284 183.79 320.445 183.952C320.607 184.114 320.688 184.306 320.688 184.527C320.688 184.749 320.607 184.952 320.445 185.114Z" fill="black" fill-opacity="0.4"/>
<path d="M320.445 183.298C320.284 183.46 320.088 183.541 319.859 183.541C319.629 183.541 319.43 183.46 319.26 183.298C319.09 183.136 319.005 182.94 319.005 182.711C319.005 182.482 319.09 182.298 319.26 182.136C319.43 181.974 319.629 181.893 319.859 181.893C320.088 181.893 320.284 181.974 320.445 182.136C320.607 182.298 320.688 182.49 320.688 182.711C320.688 182.933 320.607 183.136 320.445 183.298Z" fill="black" fill-opacity="0.4"/>
<path d="M320.445 181.483C320.284 181.644 320.088 181.725 319.859 181.725C319.629 181.725 319.43 181.644 319.26 181.483C319.09 181.321 319.005 181.125 319.005 180.896C319.005 180.667 319.09 180.482 319.26 180.32C319.43 180.159 319.629 180.078 319.859 180.078C320.088 180.078 320.284 180.159 320.445 180.32C320.607 180.482 320.688 180.674 320.688 180.896C320.688 181.117 320.607 181.321 320.445 181.483Z" fill="black" fill-opacity="0.4"/>
<path d="M320.445 179.667C320.284 179.828 320.088 179.909 319.859 179.909C319.629 179.909 319.43 179.828 319.26 179.667C319.09 179.505 319.005 179.309 319.005 179.08C319.005 178.851 319.09 178.666 319.26 178.504C319.43 178.343 319.629 178.262 319.859 178.262C320.088 178.262 320.284 178.343 320.445 178.504C320.607 178.666 320.688 178.858 320.688 179.08C320.688 179.301 320.607 179.505 320.445 179.667Z" fill="black" fill-opacity="0.4"/>
<path d="M320.445 177.851C320.284 178.013 320.088 178.094 319.859 178.094C319.629 178.094 319.43 178.013 319.26 177.851C319.09 177.689 319.005 177.493 319.005 177.264C319.005 177.035 319.09 176.851 319.26 176.689C319.43 176.527 319.629 176.446 319.859 176.446C320.088 176.446 320.284 176.527 320.445 176.689C320.607 176.851 320.688 177.043 320.688 177.264C320.688 177.486 320.607 177.689 320.445 177.851Z" fill="black" fill-opacity="0.4"/>
<path d="M320.445 176.035C320.284 176.197 320.088 176.278 319.859 176.278C319.629 176.278 319.43 176.197 319.26 176.035C319.09 175.873 319.005 175.677 319.005 175.448C319.005 175.219 319.09 175.035 319.26 174.873C319.43 174.711 319.629 174.63 319.859 174.63C320.088 174.63 320.284 174.711 320.445 174.873C320.607 175.035 320.688 175.227 320.688 175.448C320.688 175.67 320.607 175.873 320.445 176.035Z" fill="black" fill-opacity="0.4"/>
<path d="M320.445 174.219C320.284 174.381 320.088 174.462 319.859 174.462C319.629 174.462 319.43 174.381 319.26 174.219C319.09 174.057 319.005 173.861 319.005 173.632C319.005 173.403 319.09 173.219 319.26 173.057C319.43 172.895 319.629 172.814 319.859 172.814C320.088 172.814 320.284 172.895 320.445 173.057C320.607 173.219 320.688 173.411 320.688 173.632C320.688 173.854 320.607 174.057 320.445 174.219Z" fill="black" fill-opacity="0.4"/>
<path d="M320.445 172.404C320.284 172.566 320.088 172.647 319.859 172.647C319.629 172.647 319.43 172.566 319.26 172.404C319.09 172.242 319.005 172.046 319.005 171.817C319.005 171.588 319.09 171.403 319.26 171.242C319.43 171.08 319.629 170.999 319.859 170.999C320.088 170.999 320.284 171.08 320.445 171.242C320.607 171.403 320.688 171.595 320.688 171.817C320.688 172.038 320.607 172.242 320.445 172.404Z" fill="black" fill-opacity="0.4"/>
<path d="M320.445 170.588C320.284 170.75 320.088 170.83 319.859 170.83C319.629 170.83 319.43 170.75 319.26 170.588C319.09 170.426 319.005 170.23 319.005 170.001C319.005 169.772 319.09 169.587 319.26 169.426C319.43 169.264 319.629 169.183 319.859 169.183C320.088 169.183 320.284 169.264 320.445 169.426C320.607 169.587 320.688 169.779 320.688 170.001C320.688 170.222 320.607 170.426 320.445 170.588Z" fill="black" fill-opacity="0.4"/>
<path d="M320.445 168.772C320.284 168.934 320.088 169.015 319.859 169.015C319.629 169.015 319.43 168.934 319.26 168.772C319.09 168.61 319.005 168.414 319.005 168.185C319.005 167.956 319.09 167.772 319.26 167.61C319.43 167.448 319.629 167.367 319.859 167.367C320.088 167.367 320.284 167.448 320.445 167.61C320.607 167.772 320.688 167.964 320.688 168.185C320.688 168.406 320.607 168.61 320.445 168.772Z" fill="black" fill-opacity="0.4"/>
<path d="M320.445 166.956C320.284 167.118 320.088 167.199 319.859 167.199C319.629 167.199 319.43 167.118 319.26 166.956C319.09 166.794 319.005 166.598 319.005 166.37C319.005 166.141 319.09 165.956 319.26 165.794C319.43 165.632 319.629 165.551 319.859 165.551C320.088 165.551 320.284 165.632 320.445 165.794C320.607 165.956 320.688 166.148 320.688 166.37C320.688 166.591 320.607 166.794 320.445 166.956Z" fill="black" fill-opacity="0.4"/>
<path d="M320.445 163.324C320.284 163.486 320.088 163.567 319.859 163.567C319.629 163.567 319.43 163.486 319.26 163.324C319.09 163.162 319.005 162.966 319.005 162.737C319.005 162.509 319.09 162.324 319.26 162.162C319.43 162 319.629 161.919 319.859 161.919C320.088 161.919 320.284 162 320.445 162.162C320.607 162.324 320.688 162.516 320.688 162.737C320.688 162.959 320.607 163.162 320.445 163.324Z" fill="black" fill-opacity="0.4"/>
<path d="M322.261 187.838C322.1 188 321.904 188.081 321.675 188.081C321.445 188.081 321.246 188 321.076 187.838C320.906 187.676 320.821 187.48 320.821 187.251C320.821 187.022 320.906 186.838 321.076 186.676C321.246 186.514 321.445 186.433 321.675 186.433C321.904 186.433 322.1 186.514 322.261 186.676C322.423 186.838 322.504 187.03 322.504 187.251C322.504 187.472 322.423 187.676 322.261 187.838Z" fill="black" fill-opacity="0.4"/>
<path d="M322.261 186.022C322.1 186.184 321.904 186.265 321.675 186.265C321.445 186.265 321.246 186.184 321.076 186.022C320.906 185.86 320.821 185.664 320.821 185.435C320.821 185.206 320.906 185.022 321.076 184.86C321.246 184.698 321.445 184.617 321.675 184.617C321.904 184.617 322.1 184.698 322.261 184.86C322.423 185.022 322.504 185.214 322.504 185.435C322.504 185.656 322.423 185.86 322.261 186.022Z" fill="black" fill-opacity="0.4"/>
<path d="M322.261 184.206C322.1 184.368 321.904 184.449 321.675 184.449C321.445 184.449 321.246 184.368 321.076 184.206C320.906 184.044 320.821 183.848 320.821 183.619C320.821 183.39 320.906 183.206 321.076 183.044C321.246 182.882 321.445 182.801 321.675 182.801C321.904 182.801 322.1 182.882 322.261 183.044C322.423 183.206 322.504 183.398 322.504 183.619C322.504 183.841 322.423 184.044 322.261 184.206Z" fill="black" fill-opacity="0.4"/>
<path d="M322.261 182.39C322.1 182.552 321.904 182.633 321.675 182.633C321.445 182.633 321.246 182.552 321.076 182.39C320.906 182.229 320.821 182.033 320.821 181.804C320.821 181.575 320.906 181.39 321.076 181.228C321.246 181.066 321.445 180.986 321.675 180.986C321.904 180.986 322.1 181.066 322.261 181.228C322.423 181.39 322.504 181.582 322.504 181.804C322.504 182.025 322.423 182.229 322.261 182.39Z" fill="black" fill-opacity="0.4"/>
<path d="M322.261 180.574C322.1 180.736 321.904 180.817 321.675 180.817C321.445 180.817 321.246 180.736 321.076 180.574C320.906 180.413 320.821 180.217 320.821 179.988C320.821 179.759 320.906 179.574 321.076 179.412C321.246 179.25 321.445 179.17 321.675 179.17C321.904 179.17 322.1 179.25 322.261 179.412C322.423 179.574 322.504 179.766 322.504 179.988C322.504 180.209 322.423 180.413 322.261 180.574Z" fill="black" fill-opacity="0.4"/>
<path d="M322.261 178.759C322.1 178.921 321.904 179.002 321.675 179.002C321.445 179.002 321.246 178.921 321.076 178.759C320.906 178.597 320.821 178.401 320.821 178.172C320.821 177.943 320.906 177.759 321.076 177.597C321.246 177.435 321.445 177.354 321.675 177.354C321.904 177.354 322.1 177.435 322.261 177.597C322.423 177.759 322.504 177.951 322.504 178.172C322.504 178.394 322.423 178.597 322.261 178.759Z" fill="black" fill-opacity="0.4"/>
<path d="M322.261 176.943C322.1 177.105 321.904 177.186 321.675 177.186C321.445 177.186 321.246 177.105 321.076 176.943C320.906 176.781 320.821 176.585 320.821 176.356C320.821 176.127 320.906 175.943 321.076 175.781C321.246 175.619 321.445 175.538 321.675 175.538C321.904 175.538 322.1 175.619 322.261 175.781C322.423 175.943 322.504 176.135 322.504 176.356C322.504 176.577 322.423 176.781 322.261 176.943Z" fill="black" fill-opacity="0.4"/>
<path d="M322.261 175.127C322.1 175.289 321.904 175.37 321.675 175.37C321.445 175.37 321.246 175.289 321.076 175.127C320.906 174.965 320.821 174.769 320.821 174.541C320.821 174.312 320.906 174.127 321.076 173.965C321.246 173.803 321.445 173.722 321.675 173.722C321.904 173.722 322.1 173.803 322.261 173.965C322.423 174.127 322.504 174.319 322.504 174.541C322.504 174.762 322.423 174.965 322.261 175.127Z" fill="black" fill-opacity="0.4"/>
<path d="M322.261 173.311C322.1 173.473 321.904 173.554 321.675 173.554C321.445 173.554 321.246 173.473 321.076 173.311C320.906 173.149 320.821 172.953 320.821 172.724C320.821 172.496 320.906 172.311 321.076 172.149C321.246 171.987 321.445 171.906 321.675 171.906C321.904 171.906 322.1 171.987 322.261 172.149C322.423 172.311 322.504 172.503 322.504 172.724C322.504 172.946 322.423 173.149 322.261 173.311Z" fill="black" fill-opacity="0.4"/>
<path d="M322.261 171.496C322.1 171.657 321.904 171.738 321.675 171.738C321.445 171.738 321.246 171.657 321.076 171.496C320.906 171.334 320.821 171.138 320.821 170.909C320.821 170.68 320.906 170.495 321.076 170.333C321.246 170.172 321.445 170.091 321.675 170.091C321.904 170.091 322.1 170.172 322.261 170.333C322.423 170.495 322.504 170.687 322.504 170.909C322.504 171.13 322.423 171.334 322.261 171.496Z" fill="black" fill-opacity="0.4"/>
<path d="M322.261 169.68C322.1 169.842 321.904 169.923 321.675 169.923C321.445 169.923 321.246 169.842 321.076 169.68C320.906 169.518 320.821 169.322 320.821 169.093C320.821 168.864 320.906 168.68 321.076 168.518C321.246 168.356 321.445 168.275 321.675 168.275C321.904 168.275 322.1 168.356 322.261 168.518C322.423 168.68 322.504 168.872 322.504 169.093C322.504 169.315 322.423 169.518 322.261 169.68Z" fill="black" fill-opacity="0.4"/>
<path d="M322.261 167.864C322.1 168.026 321.904 168.107 321.675 168.107C321.445 168.107 321.246 168.026 321.076 167.864C320.906 167.702 320.821 167.506 320.821 167.277C320.821 167.048 320.906 166.864 321.076 166.702C321.246 166.54 321.445 166.459 321.675 166.459C321.904 166.459 322.1 166.54 322.261 166.702C322.423 166.864 322.504 167.056 322.504 167.277C322.504 167.499 322.423 167.702 322.261 167.864Z" fill="black" fill-opacity="0.4"/>
<path d="M322.261 166.048C322.1 166.21 321.904 166.291 321.675 166.291C321.445 166.291 321.246 166.21 321.076 166.048C320.906 165.886 320.821 165.69 320.821 165.461C320.821 165.232 320.906 165.048 321.076 164.886C321.246 164.724 321.445 164.643 321.675 164.643C321.904 164.643 322.1 164.724 322.261 164.886C322.423 165.048 322.504 165.24 322.504 165.461C322.504 165.683 322.423 165.886 322.261 166.048Z" fill="black" fill-opacity="0.4"/>
<path d="M322.261 164.233C322.1 164.395 321.904 164.475 321.675 164.475C321.445 164.475 321.246 164.395 321.076 164.233C320.906 164.071 320.821 163.875 320.821 163.646C320.821 163.417 320.906 163.232 321.076 163.071C321.246 162.909 321.445 162.828 321.675 162.828C321.904 162.828 322.1 162.909 322.261 163.071C322.423 163.232 322.504 163.424 322.504 163.646C322.504 163.867 322.423 164.071 322.261 164.233Z" fill="black" fill-opacity="0.4"/>
<path d="M324.077 188.745C323.915 188.907 323.719 188.988 323.49 188.988C323.26 188.988 323.061 188.907 322.891 188.745C322.721 188.584 322.636 188.388 322.636 188.159C322.636 187.93 322.721 187.745 322.891 187.583C323.061 187.421 323.26 187.341 323.49 187.341C323.719 187.341 323.915 187.421 324.077 187.583C324.239 187.745 324.32 187.937 324.32 188.159C324.32 188.38 324.239 188.584 324.077 188.745Z" fill="black" fill-opacity="0.4"/>
<path d="M324.077 186.93C323.915 187.092 323.719 187.173 323.49 187.173C323.26 187.173 323.061 187.092 322.891 186.93C322.721 186.768 322.636 186.572 322.636 186.343C322.636 186.114 322.721 185.93 322.891 185.768C323.061 185.606 323.26 185.525 323.49 185.525C323.719 185.525 323.915 185.606 324.077 185.768C324.239 185.93 324.32 186.122 324.32 186.343C324.32 186.565 324.239 186.768 324.077 186.93Z" fill="black" fill-opacity="0.4"/>
<path d="M324.077 185.114C323.915 185.276 323.719 185.357 323.49 185.357C323.26 185.357 323.061 185.276 322.891 185.114C322.721 184.952 322.636 184.756 322.636 184.527C322.636 184.298 322.721 184.114 322.891 183.952C323.061 183.79 323.26 183.709 323.49 183.709C323.719 183.709 323.915 183.79 324.077 183.952C324.239 184.114 324.32 184.306 324.32 184.527C324.32 184.749 324.239 184.952 324.077 185.114Z" fill="black" fill-opacity="0.4"/>
<path d="M324.077 183.298C323.915 183.46 323.719 183.541 323.49 183.541C323.26 183.541 323.061 183.46 322.891 183.298C322.721 183.136 322.636 182.94 322.636 182.711C322.636 182.482 322.721 182.298 322.891 182.136C323.061 181.974 323.26 181.893 323.49 181.893C323.719 181.893 323.915 181.974 324.077 182.136C324.239 182.298 324.32 182.49 324.32 182.711C324.32 182.933 324.239 183.136 324.077 183.298Z" fill="black" fill-opacity="0.4"/>
<path d="M324.077 181.483C323.915 181.644 323.719 181.725 323.49 181.725C323.26 181.725 323.061 181.644 322.891 181.483C322.721 181.321 322.636 181.125 322.636 180.896C322.636 180.667 322.721 180.482 322.891 180.32C323.061 180.159 323.26 180.078 323.49 180.078C323.719 180.078 323.915 180.159 324.077 180.32C324.239 180.482 324.32 180.674 324.32 180.896C324.32 181.117 324.239 181.321 324.077 181.483Z" fill="black" fill-opacity="0.4"/>
<path d="M324.077 179.667C323.915 179.828 323.719 179.909 323.49 179.909C323.26 179.909 323.061 179.828 322.891 179.667C322.721 179.505 322.636 179.309 322.636 179.08C322.636 178.851 322.721 178.666 322.891 178.504C323.061 178.343 323.26 178.262 323.49 178.262C323.719 178.262 323.915 178.343 324.077 178.504C324.239 178.666 324.32 178.858 324.32 179.08C324.32 179.301 324.239 179.505 324.077 179.667Z" fill="black" fill-opacity="0.4"/>
<path d="M324.077 177.851C323.915 178.013 323.719 178.094 323.49 178.094C323.26 178.094 323.061 178.013 322.891 177.851C322.721 177.689 322.636 177.493 322.636 177.264C322.636 177.035 322.721 176.851 322.891 176.689C323.061 176.527 323.26 176.446 323.49 176.446C323.719 176.446 323.915 176.527 324.077 176.689C324.239 176.851 324.32 177.043 324.32 177.264C324.32 177.486 324.239 177.689 324.077 177.851Z" fill="black" fill-opacity="0.4"/>
<path d="M324.077 176.035C323.915 176.197 323.719 176.278 323.49 176.278C323.26 176.278 323.061 176.197 322.891 176.035C322.721 175.873 322.636 175.677 322.636 175.448C322.636 175.219 322.721 175.035 322.891 174.873C323.061 174.711 323.26 174.63 323.49 174.63C323.719 174.63 323.915 174.711 324.077 174.873C324.239 175.035 324.32 175.227 324.32 175.448C324.32 175.67 324.239 175.873 324.077 176.035Z" fill="black" fill-opacity="0.4"/>
<path d="M324.077 174.219C323.915 174.381 323.719 174.462 323.49 174.462C323.26 174.462 323.061 174.381 322.891 174.219C322.721 174.057 322.636 173.861 322.636 173.632C322.636 173.403 322.721 173.219 322.891 173.057C323.061 172.895 323.26 172.814 323.49 172.814C323.719 172.814 323.915 172.895 324.077 173.057C324.239 173.219 324.32 173.411 324.32 173.632C324.32 173.854 324.239 174.057 324.077 174.219Z" fill="black" fill-opacity="0.4"/>
<path d="M324.077 172.404C323.915 172.566 323.719 172.647 323.49 172.647C323.26 172.647 323.061 172.566 322.891 172.404C322.721 172.242 322.636 172.046 322.636 171.817C322.636 171.588 322.721 171.403 322.891 171.242C323.061 171.08 323.26 170.999 323.49 170.999C323.719 170.999 323.915 171.08 324.077 171.242C324.239 171.403 324.32 171.595 324.32 171.817C324.32 172.038 324.239 172.242 324.077 172.404Z" fill="black" fill-opacity="0.4"/>
<path d="M324.077 170.588C323.915 170.75 323.719 170.83 323.49 170.83C323.26 170.83 323.061 170.75 322.891 170.588C322.721 170.426 322.636 170.23 322.636 170.001C322.636 169.772 322.721 169.587 322.891 169.426C323.061 169.264 323.26 169.183 323.49 169.183C323.719 169.183 323.915 169.264 324.077 169.426C324.239 169.587 324.32 169.779 324.32 170.001C324.32 170.222 324.239 170.426 324.077 170.588Z" fill="black" fill-opacity="0.4"/>
<path d="M324.077 168.772C323.915 168.934 323.719 169.015 323.49 169.015C323.26 169.015 323.061 168.934 322.891 168.772C322.721 168.61 322.636 168.414 322.636 168.185C322.636 167.956 322.721 167.772 322.891 167.61C323.061 167.448 323.26 167.367 323.49 167.367C323.719 167.367 323.915 167.448 324.077 167.61C324.239 167.772 324.32 167.964 324.32 168.185C324.32 168.406 324.239 168.61 324.077 168.772Z" fill="black" fill-opacity="0.4"/>
<path d="M324.077 166.956C323.915 167.118 323.719 167.199 323.49 167.199C323.26 167.199 323.061 167.118 322.891 166.956C322.721 166.794 322.636 166.598 322.636 166.37C322.636 166.141 322.721 165.956 322.891 165.794C323.061 165.632 323.26 165.551 323.49 165.551C323.719 165.551 323.915 165.632 324.077 165.794C324.239 165.956 324.32 166.148 324.32 166.37C324.32 166.591 324.239 166.794 324.077 166.956Z" fill="black" fill-opacity="0.4"/>
<path d="M324.077 165.14C323.915 165.302 323.719 165.383 323.49 165.383C323.26 165.383 323.061 165.302 322.891 165.14C322.721 164.978 322.636 164.782 322.636 164.553C322.636 164.325 322.721 164.14 322.891 163.978C323.061 163.816 323.26 163.735 323.49 163.735C323.719 163.735 323.915 163.816 324.077 163.978C324.239 164.14 324.32 164.332 324.32 164.553C324.32 164.775 324.239 164.978 324.077 165.14Z" fill="black" fill-opacity="0.4"/>
<path d="M325.893 187.838C325.731 188 325.535 188.081 325.306 188.081C325.076 188.081 324.877 188 324.707 187.838C324.537 187.676 324.452 187.48 324.452 187.251C324.452 187.022 324.537 186.838 324.707 186.676C324.877 186.514 325.076 186.433 325.306 186.433C325.535 186.433 325.731 186.514 325.893 186.676C326.055 186.838 326.136 187.03 326.136 187.251C326.136 187.472 326.055 187.676 325.893 187.838Z" fill="black" fill-opacity="0.4"/>
<path d="M325.893 186.022C325.731 186.184 325.535 186.265 325.306 186.265C325.076 186.265 324.877 186.184 324.707 186.022C324.537 185.86 324.452 185.664 324.452 185.435C324.452 185.206 324.537 185.022 324.707 184.86C324.877 184.698 325.076 184.617 325.306 184.617C325.535 184.617 325.731 184.698 325.893 184.86C326.055 185.022 326.136 185.214 326.136 185.435C326.136 185.656 326.055 185.86 325.893 186.022Z" fill="black" fill-opacity="0.4"/>
<path d="M325.893 184.206C325.731 184.368 325.535 184.449 325.306 184.449C325.076 184.449 324.877 184.368 324.707 184.206C324.537 184.044 324.452 183.848 324.452 183.619C324.452 183.39 324.537 183.206 324.707 183.044C324.877 182.882 325.076 182.801 325.306 182.801C325.535 182.801 325.731 182.882 325.893 183.044C326.055 183.206 326.136 183.398 326.136 183.619C326.136 183.841 326.055 184.044 325.893 184.206Z" fill="black" fill-opacity="0.4"/>
<path d="M325.893 182.39C325.731 182.552 325.535 182.633 325.306 182.633C325.076 182.633 324.877 182.552 324.707 182.39C324.537 182.229 324.452 182.033 324.452 181.804C324.452 181.575 324.537 181.39 324.707 181.228C324.877 181.066 325.076 180.986 325.306 180.986C325.535 180.986 325.731 181.066 325.893 181.228C326.055 181.39 326.136 181.582 326.136 181.804C326.136 182.025 326.055 182.229 325.893 182.39Z" fill="black" fill-opacity="0.4"/>
<path d="M325.893 180.574C325.731 180.736 325.535 180.817 325.306 180.817C325.076 180.817 324.877 180.736 324.707 180.574C324.537 180.413 324.452 180.217 324.452 179.988C324.452 179.759 324.537 179.574 324.707 179.412C324.877 179.25 325.076 179.17 325.306 179.17C325.535 179.17 325.731 179.25 325.893 179.412C326.055 179.574 326.136 179.766 326.136 179.988C326.136 180.209 326.055 180.413 325.893 180.574Z" fill="black" fill-opacity="0.4"/>
<path d="M325.893 178.759C325.731 178.921 325.535 179.002 325.306 179.002C325.076 179.002 324.877 178.921 324.707 178.759C324.537 178.597 324.452 178.401 324.452 178.172C324.452 177.943 324.537 177.759 324.707 177.597C324.877 177.435 325.076 177.354 325.306 177.354C325.535 177.354 325.731 177.435 325.893 177.597C326.055 177.759 326.136 177.951 326.136 178.172C326.136 178.394 326.055 178.597 325.893 178.759Z" fill="black" fill-opacity="0.4"/>
<path d="M325.893 176.943C325.731 177.105 325.535 177.186 325.306 177.186C325.076 177.186 324.877 177.105 324.707 176.943C324.537 176.781 324.452 176.585 324.452 176.356C324.452 176.127 324.537 175.943 324.707 175.781C324.877 175.619 325.076 175.538 325.306 175.538C325.535 175.538 325.731 175.619 325.893 175.781C326.055 175.943 326.136 176.135 326.136 176.356C326.136 176.577 326.055 176.781 325.893 176.943Z" fill="black" fill-opacity="0.4"/>
<path d="M325.893 175.127C325.731 175.289 325.535 175.37 325.306 175.37C325.076 175.37 324.877 175.289 324.707 175.127C324.537 174.965 324.452 174.769 324.452 174.541C324.452 174.312 324.537 174.127 324.707 173.965C324.877 173.803 325.076 173.722 325.306 173.722C325.535 173.722 325.731 173.803 325.893 173.965C326.055 174.127 326.136 174.319 326.136 174.541C326.136 174.762 326.055 174.965 325.893 175.127Z" fill="black" fill-opacity="0.4"/>
<path d="M325.893 173.311C325.731 173.473 325.535 173.554 325.306 173.554C325.076 173.554 324.877 173.473 324.707 173.311C324.537 173.149 324.452 172.953 324.452 172.724C324.452 172.496 324.537 172.311 324.707 172.149C324.877 171.987 325.076 171.906 325.306 171.906C325.535 171.906 325.731 171.987 325.893 172.149C326.055 172.311 326.136 172.503 326.136 172.724C326.136 172.946 326.055 173.149 325.893 173.311Z" fill="black" fill-opacity="0.4"/>
<path d="M325.893 171.496C325.731 171.657 325.535 171.738 325.306 171.738C325.076 171.738 324.877 171.657 324.707 171.496C324.537 171.334 324.452 171.138 324.452 170.909C324.452 170.68 324.537 170.495 324.707 170.333C324.877 170.172 325.076 170.091 325.306 170.091C325.535 170.091 325.731 170.172 325.893 170.333C326.055 170.495 326.136 170.687 326.136 170.909C326.136 171.13 326.055 171.334 325.893 171.496Z" fill="black" fill-opacity="0.4"/>
<path d="M325.893 169.68C325.731 169.842 325.535 169.923 325.306 169.923C325.076 169.923 324.877 169.842 324.707 169.68C324.537 169.518 324.452 169.322 324.452 169.093C324.452 168.864 324.537 168.68 324.707 168.518C324.877 168.356 325.076 168.275 325.306 168.275C325.535 168.275 325.731 168.356 325.893 168.518C326.055 168.68 326.136 168.872 326.136 169.093C326.136 169.315 326.055 169.518 325.893 169.68Z" fill="black" fill-opacity="0.4"/>
<path d="M325.893 167.864C325.731 168.026 325.535 168.107 325.306 168.107C325.076 168.107 324.877 168.026 324.707 167.864C324.537 167.702 324.452 167.506 324.452 167.277C324.452 167.048 324.537 166.864 324.707 166.702C324.877 166.54 325.076 166.459 325.306 166.459C325.535 166.459 325.731 166.54 325.893 166.702C326.055 166.864 326.136 167.056 326.136 167.277C326.136 167.499 326.055 167.702 325.893 167.864Z" fill="black" fill-opacity="0.4"/>
<path d="M325.893 166.048C325.731 166.21 325.535 166.291 325.306 166.291C325.076 166.291 324.877 166.21 324.707 166.048C324.537 165.886 324.452 165.69 324.452 165.461C324.452 165.232 324.537 165.048 324.707 164.886C324.877 164.724 325.076 164.643 325.306 164.643C325.535 164.643 325.731 164.724 325.893 164.886C326.055 165.048 326.136 165.24 326.136 165.461C326.136 165.683 326.055 165.886 325.893 166.048Z" fill="black" fill-opacity="0.4"/>
<path d="M325.893 164.233C325.731 164.395 325.535 164.475 325.306 164.475C325.076 164.475 324.877 164.395 324.707 164.233C324.537 164.071 324.452 163.875 324.452 163.646C324.452 163.417 324.537 163.232 324.707 163.071C324.877 162.909 325.076 162.828 325.306 162.828C325.535 162.828 325.731 162.909 325.893 163.071C326.055 163.232 326.136 163.424 326.136 163.646C326.136 163.867 326.055 164.071 325.893 164.233Z" fill="black" fill-opacity="0.4"/>
<path d="M327.708 185.114C327.546 185.276 327.351 185.357 327.121 185.357C326.892 185.357 326.692 185.276 326.522 185.114C326.352 184.952 326.267 184.756 326.267 184.527C326.267 184.298 326.352 184.114 326.522 183.952C326.692 183.79 326.892 183.709 327.121 183.709C327.351 183.709 327.546 183.79 327.708 183.952C327.87 184.114 327.951 184.306 327.951 184.527C327.951 184.749 327.87 184.952 327.708 185.114Z" fill="black" fill-opacity="0.4"/>
<path d="M327.708 183.298C327.546 183.46 327.351 183.541 327.121 183.541C326.892 183.541 326.692 183.46 326.522 183.298C326.352 183.136 326.267 182.94 326.267 182.711C326.267 182.482 326.352 182.298 326.522 182.136C326.692 181.974 326.892 181.893 327.121 181.893C327.351 181.893 327.546 181.974 327.708 182.136C327.87 182.298 327.951 182.49 327.951 182.711C327.951 182.933 327.87 183.136 327.708 183.298Z" fill="black" fill-opacity="0.4"/>
<path d="M327.708 181.483C327.546 181.644 327.351 181.725 327.121 181.725C326.892 181.725 326.692 181.644 326.522 181.483C326.352 181.321 326.267 181.125 326.267 180.896C326.267 180.667 326.352 180.482 326.522 180.32C326.692 180.159 326.892 180.078 327.121 180.078C327.351 180.078 327.546 180.159 327.708 180.32C327.87 180.482 327.951 180.674 327.951 180.896C327.951 181.117 327.87 181.321 327.708 181.483Z" fill="black" fill-opacity="0.4"/>
<path d="M327.708 179.667C327.546 179.828 327.351 179.909 327.121 179.909C326.892 179.909 326.692 179.828 326.522 179.667C326.352 179.505 326.267 179.309 326.267 179.08C326.267 178.851 326.352 178.666 326.522 178.504C326.692 178.343 326.892 178.262 327.121 178.262C327.351 178.262 327.546 178.343 327.708 178.504C327.87 178.666 327.951 178.858 327.951 179.08C327.951 179.301 327.87 179.505 327.708 179.667Z" fill="black" fill-opacity="0.4"/>
<path d="M327.708 177.851C327.546 178.013 327.351 178.094 327.121 178.094C326.892 178.094 326.692 178.013 326.522 177.851C326.352 177.689 326.267 177.493 326.267 177.264C326.267 177.035 326.352 176.851 326.522 176.689C326.692 176.527 326.892 176.446 327.121 176.446C327.351 176.446 327.546 176.527 327.708 176.689C327.87 176.851 327.951 177.043 327.951 177.264C327.951 177.486 327.87 177.689 327.708 177.851Z" fill="black" fill-opacity="0.4"/>
<path d="M327.708 176.035C327.546 176.197 327.351 176.278 327.121 176.278C326.892 176.278 326.692 176.197 326.522 176.035C326.352 175.873 326.267 175.677 326.267 175.448C326.267 175.219 326.352 175.035 326.522 174.873C326.692 174.711 326.892 174.63 327.121 174.63C327.351 174.63 327.546 174.711 327.708 174.873C327.87 175.035 327.951 175.227 327.951 175.448C327.951 175.67 327.87 175.873 327.708 176.035Z" fill="black" fill-opacity="0.4"/>
<path d="M327.708 174.219C327.546 174.381 327.351 174.462 327.121 174.462C326.892 174.462 326.692 174.381 326.522 174.219C326.352 174.057 326.267 173.861 326.267 173.632C326.267 173.403 326.352 173.219 326.522 173.057C326.692 172.895 326.892 172.814 327.121 172.814C327.351 172.814 327.546 172.895 327.708 173.057C327.87 173.219 327.951 173.411 327.951 173.632C327.951 173.854 327.87 174.057 327.708 174.219Z" fill="black" fill-opacity="0.4"/>
<path d="M327.708 172.404C327.546 172.566 327.351 172.647 327.121 172.647C326.892 172.647 326.692 172.566 326.522 172.404C326.352 172.242 326.267 172.046 326.267 171.817C326.267 171.588 326.352 171.403 326.522 171.242C326.692 171.08 326.892 170.999 327.121 170.999C327.351 170.999 327.546 171.08 327.708 171.242C327.87 171.403 327.951 171.595 327.951 171.817C327.951 172.038 327.87 172.242 327.708 172.404Z" fill="black" fill-opacity="0.4"/>
<path d="M327.708 170.588C327.546 170.75 327.351 170.83 327.121 170.83C326.892 170.83 326.692 170.75 326.522 170.588C326.352 170.426 326.267 170.23 326.267 170.001C326.267 169.772 326.352 169.587 326.522 169.426C326.692 169.264 326.892 169.183 327.121 169.183C327.351 169.183 327.546 169.264 327.708 169.426C327.87 169.587 327.951 169.779 327.951 170.001C327.951 170.222 327.87 170.426 327.708 170.588Z" fill="black" fill-opacity="0.4"/>
<path d="M327.708 168.772C327.546 168.934 327.351 169.015 327.121 169.015C326.892 169.015 326.692 168.934 326.522 168.772C326.352 168.61 326.267 168.414 326.267 168.185C326.267 167.956 326.352 167.772 326.522 167.61C326.692 167.448 326.892 167.367 327.121 167.367C327.351 167.367 327.546 167.448 327.708 167.61C327.87 167.772 327.951 167.964 327.951 168.185C327.951 168.406 327.87 168.61 327.708 168.772Z" fill="black" fill-opacity="0.4"/>
<path d="M327.708 166.956C327.546 167.118 327.351 167.199 327.121 167.199C326.892 167.199 326.692 167.118 326.522 166.956C326.352 166.794 326.267 166.598 326.267 166.37C326.267 166.141 326.352 165.956 326.522 165.794C326.692 165.632 326.892 165.551 327.121 165.551C327.351 165.551 327.546 165.632 327.708 165.794C327.87 165.956 327.951 166.148 327.951 166.37C327.951 166.591 327.87 166.794 327.708 166.956Z" fill="black" fill-opacity="0.4"/>
<path d="M327.708 163.324C327.546 163.486 327.351 163.567 327.121 163.567C326.892 163.567 326.692 163.486 326.522 163.324C326.352 163.162 326.267 162.966 326.267 162.737C326.267 162.509 326.352 162.324 326.522 162.162C326.692 162 326.892 161.919 327.121 161.919C327.351 161.919 327.546 162 327.708 162.162C327.87 162.324 327.951 162.516 327.951 162.737C327.951 162.959 327.87 163.162 327.708 163.324Z" fill="black" fill-opacity="0.4"/>
<path d="M329.524 184.206C329.362 184.368 329.167 184.449 328.937 184.449C328.708 184.449 328.508 184.368 328.338 184.206C328.168 184.044 328.083 183.848 328.083 183.619C328.083 183.39 328.168 183.206 328.338 183.044C328.508 182.882 328.708 182.801 328.937 182.801C329.167 182.801 329.362 182.882 329.524 183.044C329.686 183.206 329.767 183.398 329.767 183.619C329.767 183.841 329.686 184.044 329.524 184.206Z" fill="black" fill-opacity="0.4"/>
<path d="M329.524 182.39C329.362 182.552 329.167 182.633 328.937 182.633C328.708 182.633 328.508 182.552 328.338 182.39C328.168 182.229 328.083 182.033 328.083 181.804C328.083 181.575 328.168 181.39 328.338 181.228C328.508 181.066 328.708 180.986 328.937 180.986C329.167 180.986 329.362 181.066 329.524 181.228C329.686 181.39 329.767 181.582 329.767 181.804C329.767 182.025 329.686 182.229 329.524 182.39Z" fill="black" fill-opacity="0.4"/>
<path d="M329.524 180.574C329.362 180.736 329.167 180.817 328.937 180.817C328.708 180.817 328.508 180.736 328.338 180.574C328.168 180.413 328.083 180.217 328.083 179.988C328.083 179.759 328.168 179.574 328.338 179.412C328.508 179.25 328.708 179.17 328.937 179.17C329.167 179.17 329.362 179.25 329.524 179.412C329.686 179.574 329.767 179.766 329.767 179.988C329.767 180.209 329.686 180.413 329.524 180.574Z" fill="black" fill-opacity="0.4"/>
<path d="M329.524 178.759C329.362 178.921 329.167 179.002 328.937 179.002C328.708 179.002 328.508 178.921 328.338 178.759C328.168 178.597 328.083 178.401 328.083 178.172C328.083 177.943 328.168 177.759 328.338 177.597C328.508 177.435 328.708 177.354 328.937 177.354C329.167 177.354 329.362 177.435 329.524 177.597C329.686 177.759 329.767 177.951 329.767 178.172C329.767 178.394 329.686 178.597 329.524 178.759Z" fill="black" fill-opacity="0.4"/>
<path d="M329.524 176.943C329.362 177.105 329.167 177.186 328.937 177.186C328.708 177.186 328.508 177.105 328.338 176.943C328.168 176.781 328.083 176.585 328.083 176.356C328.083 176.127 328.168 175.943 328.338 175.781C328.508 175.619 328.708 175.538 328.937 175.538C329.167 175.538 329.362 175.619 329.524 175.781C329.686 175.943 329.767 176.135 329.767 176.356C329.767 176.577 329.686 176.781 329.524 176.943Z" fill="black" fill-opacity="0.4"/>
<path d="M329.524 175.127C329.362 175.289 329.167 175.37 328.937 175.37C328.708 175.37 328.508 175.289 328.338 175.127C328.168 174.965 328.083 174.769 328.083 174.541C328.083 174.312 328.168 174.127 328.338 173.965C328.508 173.803 328.708 173.722 328.937 173.722C329.167 173.722 329.362 173.803 329.524 173.965C329.686 174.127 329.767 174.319 329.767 174.541C329.767 174.762 329.686 174.965 329.524 175.127Z" fill="black" fill-opacity="0.4"/>
<path d="M329.524 173.311C329.362 173.473 329.167 173.554 328.937 173.554C328.708 173.554 328.508 173.473 328.338 173.311C328.168 173.149 328.083 172.953 328.083 172.724C328.083 172.496 328.168 172.311 328.338 172.149C328.508 171.987 328.708 171.906 328.937 171.906C329.167 171.906 329.362 171.987 329.524 172.149C329.686 172.311 329.767 172.503 329.767 172.724C329.767 172.946 329.686 173.149 329.524 173.311Z" fill="black" fill-opacity="0.4"/>
<path d="M329.524 162.417C329.362 162.579 329.167 162.659 328.937 162.659C328.708 162.659 328.508 162.579 328.338 162.417C328.168 162.255 328.083 162.059 328.083 161.83C328.083 161.601 328.168 161.416 328.338 161.255C328.508 161.093 328.708 161.012 328.937 161.012C329.167 161.012 329.362 161.093 329.524 161.255C329.686 161.416 329.767 161.608 329.767 161.83C329.767 162.051 329.686 162.255 329.524 162.417Z" fill="black" fill-opacity="0.4"/>
<path d="M331.34 186.93C331.178 187.092 330.983 187.173 330.753 187.173C330.524 187.173 330.324 187.092 330.154 186.93C329.984 186.768 329.899 186.572 329.899 186.343C329.899 186.114 329.984 185.93 330.154 185.768C330.324 185.606 330.524 185.525 330.753 185.525C330.983 185.525 331.178 185.606 331.34 185.768C331.502 185.93 331.583 186.122 331.583 186.343C331.583 186.565 331.502 186.768 331.34 186.93Z" fill="black" fill-opacity="0.4"/>
<path d="M331.34 185.114C331.178 185.276 330.983 185.357 330.753 185.357C330.524 185.357 330.324 185.276 330.154 185.114C329.984 184.952 329.899 184.756 329.899 184.527C329.899 184.298 329.984 184.114 330.154 183.952C330.324 183.79 330.524 183.709 330.753 183.709C330.983 183.709 331.178 183.79 331.34 183.952C331.502 184.114 331.583 184.306 331.583 184.527C331.583 184.749 331.502 184.952 331.34 185.114Z" fill="black" fill-opacity="0.4"/>
<path d="M331.34 183.298C331.178 183.46 330.983 183.541 330.753 183.541C330.524 183.541 330.324 183.46 330.154 183.298C329.984 183.136 329.899 182.94 329.899 182.711C329.899 182.482 329.984 182.298 330.154 182.136C330.324 181.974 330.524 181.893 330.753 181.893C330.983 181.893 331.178 181.974 331.34 182.136C331.502 182.298 331.583 182.49 331.583 182.711C331.583 182.933 331.502 183.136 331.34 183.298Z" fill="black" fill-opacity="0.4"/>
<path d="M331.34 181.483C331.178 181.644 330.983 181.725 330.753 181.725C330.524 181.725 330.324 181.644 330.154 181.483C329.984 181.321 329.899 181.125 329.899 180.896C329.899 180.667 329.984 180.482 330.154 180.32C330.324 180.159 330.524 180.078 330.753 180.078C330.983 180.078 331.178 180.159 331.34 180.32C331.502 180.482 331.583 180.674 331.583 180.896C331.583 181.117 331.502 181.321 331.34 181.483Z" fill="black" fill-opacity="0.4"/>
<path d="M331.34 179.667C331.178 179.828 330.983 179.909 330.753 179.909C330.524 179.909 330.324 179.828 330.154 179.667C329.984 179.505 329.899 179.309 329.899 179.08C329.899 178.851 329.984 178.666 330.154 178.504C330.324 178.343 330.524 178.262 330.753 178.262C330.983 178.262 331.178 178.343 331.34 178.504C331.502 178.666 331.583 178.858 331.583 179.08C331.583 179.301 331.502 179.505 331.34 179.667Z" fill="black" fill-opacity="0.4"/>
<path d="M331.34 177.851C331.178 178.013 330.983 178.094 330.753 178.094C330.524 178.094 330.324 178.013 330.154 177.851C329.984 177.689 329.899 177.493 329.899 177.264C329.899 177.035 329.984 176.851 330.154 176.689C330.324 176.527 330.524 176.446 330.753 176.446C330.983 176.446 331.178 176.527 331.34 176.689C331.502 176.851 331.583 177.043 331.583 177.264C331.583 177.486 331.502 177.689 331.34 177.851Z" fill="black" fill-opacity="0.4"/>
<path d="M331.34 176.035C331.178 176.197 330.983 176.278 330.753 176.278C330.524 176.278 330.324 176.197 330.154 176.035C329.984 175.873 329.899 175.677 329.899 175.448C329.899 175.219 329.984 175.035 330.154 174.873C330.324 174.711 330.524 174.63 330.753 174.63C330.983 174.63 331.178 174.711 331.34 174.873C331.502 175.035 331.583 175.227 331.583 175.448C331.583 175.67 331.502 175.873 331.34 176.035Z" fill="black" fill-opacity="0.4"/>
<path d="M333.156 187.838C332.994 188 332.798 188.081 332.569 188.081C332.339 188.081 332.14 188 331.97 187.838C331.8 187.676 331.715 187.48 331.715 187.251C331.715 187.022 331.8 186.838 331.97 186.676C332.14 186.514 332.339 186.433 332.569 186.433C332.798 186.433 332.994 186.514 333.156 186.676C333.318 186.838 333.398 187.03 333.398 187.251C333.398 187.472 333.318 187.676 333.156 187.838Z" fill="black" fill-opacity="0.4"/>
<path d="M333.156 186.022C332.994 186.184 332.798 186.265 332.569 186.265C332.339 186.265 332.14 186.184 331.97 186.022C331.8 185.86 331.715 185.664 331.715 185.435C331.715 185.206 331.8 185.022 331.97 184.86C332.14 184.698 332.339 184.617 332.569 184.617C332.798 184.617 332.994 184.698 333.156 184.86C333.318 185.022 333.398 185.214 333.398 185.435C333.398 185.656 333.318 185.86 333.156 186.022Z" fill="black" fill-opacity="0.4"/>
<path d="M333.156 184.206C332.994 184.368 332.798 184.449 332.569 184.449C332.339 184.449 332.14 184.368 331.97 184.206C331.8 184.044 331.715 183.848 331.715 183.619C331.715 183.39 331.8 183.206 331.97 183.044C332.14 182.882 332.339 182.801 332.569 182.801C332.798 182.801 332.994 182.882 333.156 183.044C333.318 183.206 333.398 183.398 333.398 183.619C333.398 183.841 333.318 184.044 333.156 184.206Z" fill="black" fill-opacity="0.4"/>
<path d="M333.156 182.39C332.994 182.552 332.798 182.633 332.569 182.633C332.339 182.633 332.14 182.552 331.97 182.39C331.8 182.229 331.715 182.033 331.715 181.804C331.715 181.575 331.8 181.39 331.97 181.228C332.14 181.066 332.339 180.986 332.569 180.986C332.798 180.986 332.994 181.066 333.156 181.228C333.318 181.39 333.398 181.582 333.398 181.804C333.398 182.025 333.318 182.229 333.156 182.39Z" fill="black" fill-opacity="0.4"/>
<path d="M333.156 180.574C332.994 180.736 332.798 180.817 332.569 180.817C332.339 180.817 332.14 180.736 331.97 180.574C331.8 180.413 331.715 180.217 331.715 179.988C331.715 179.759 331.8 179.574 331.97 179.412C332.14 179.25 332.339 179.17 332.569 179.17C332.798 179.17 332.994 179.25 333.156 179.412C333.318 179.574 333.398 179.766 333.398 179.988C333.398 180.209 333.318 180.413 333.156 180.574Z" fill="black" fill-opacity="0.4"/>
<path d="M333.156 178.759C332.994 178.921 332.798 179.002 332.569 179.002C332.339 179.002 332.14 178.921 331.97 178.759C331.8 178.597 331.715 178.401 331.715 178.172C331.715 177.943 331.8 177.759 331.97 177.597C332.14 177.435 332.339 177.354 332.569 177.354C332.798 177.354 332.994 177.435 333.156 177.597C333.318 177.759 333.398 177.951 333.398 178.172C333.398 178.394 333.318 178.597 333.156 178.759Z" fill="black" fill-opacity="0.4"/>
<path d="M334.972 186.93C334.81 187.092 334.614 187.173 334.385 187.173C334.155 187.173 333.956 187.092 333.786 186.93C333.616 186.768 333.531 186.572 333.531 186.343C333.531 186.114 333.616 185.93 333.786 185.768C333.956 185.606 334.155 185.525 334.385 185.525C334.614 185.525 334.81 185.606 334.972 185.768C335.134 185.93 335.214 186.122 335.214 186.343C335.214 186.565 335.134 186.768 334.972 186.93Z" fill="black" fill-opacity="0.4"/>
<path d="M334.972 185.114C334.81 185.276 334.614 185.357 334.385 185.357C334.155 185.357 333.956 185.276 333.786 185.114C333.616 184.952 333.531 184.756 333.531 184.527C333.531 184.298 333.616 184.114 333.786 183.952C333.956 183.79 334.155 183.709 334.385 183.709C334.614 183.709 334.81 183.79 334.972 183.952C335.134 184.114 335.214 184.306 335.214 184.527C335.214 184.749 335.134 184.952 334.972 185.114Z" fill="black" fill-opacity="0.4"/>
<path d="M334.972 183.298C334.81 183.46 334.614 183.541 334.385 183.541C334.155 183.541 333.956 183.46 333.786 183.298C333.616 183.136 333.531 182.94 333.531 182.711C333.531 182.482 333.616 182.298 333.786 182.136C333.956 181.974 334.155 181.893 334.385 181.893C334.614 181.893 334.81 181.974 334.972 182.136C335.134 182.298 335.214 182.49 335.214 182.711C335.214 182.933 335.134 183.136 334.972 183.298Z" fill="black" fill-opacity="0.4"/>
<path d="M334.972 181.483C334.81 181.644 334.614 181.725 334.385 181.725C334.155 181.725 333.956 181.644 333.786 181.483C333.616 181.321 333.531 181.125 333.531 180.896C333.531 180.667 333.616 180.482 333.786 180.32C333.956 180.159 334.155 180.078 334.385 180.078C334.614 180.078 334.81 180.159 334.972 180.32C335.134 180.482 335.214 180.674 335.214 180.896C335.214 181.117 335.134 181.321 334.972 181.483Z" fill="black" fill-opacity="0.4"/>
<path d="M336.788 186.022C336.626 186.184 336.43 186.265 336.201 186.265C335.971 186.265 335.772 186.184 335.602 186.022C335.432 185.86 335.347 185.664 335.347 185.435C335.347 185.206 335.432 185.022 335.602 184.86C335.772 184.698 335.971 184.617 336.201 184.617C336.43 184.617 336.626 184.698 336.788 184.86C336.95 185.022 337.03 185.214 337.03 185.435C337.03 185.656 336.95 185.86 336.788 186.022Z" fill="black" fill-opacity="0.4"/>
<path d="M336.788 184.206C336.626 184.368 336.43 184.449 336.201 184.449C335.971 184.449 335.772 184.368 335.602 184.206C335.432 184.044 335.347 183.848 335.347 183.619C335.347 183.39 335.432 183.206 335.602 183.044C335.772 182.882 335.971 182.801 336.201 182.801C336.43 182.801 336.626 182.882 336.788 183.044C336.95 183.206 337.03 183.398 337.03 183.619C337.03 183.841 336.95 184.044 336.788 184.206Z" fill="black" fill-opacity="0.4"/>
</g>
</g>
<defs>
<clipPath id="clip0_1779_63203">
<rect width="646" height="350" fill="white" transform="translate(0.476562)"/>
</clipPath>
<clipPath id="clip1_1779_63203">
<rect width="646" height="350" fill="white" transform="translate(0.476562)"/>
</clipPath>
</defs>
</svg>
