<svg width="1820" height="236" viewBox="0 0 1820 236" fill="none" xmlns="http://www.w3.org/2000/svg">
<path d="M580.256 5.05714V53.9429C580.256 56.9771 582.279 59 585.313 59H683.427C686.462 59 688.485 61.0229 688.485 64.0571V169.583C688.485 173.629 685.787 175.314 682.416 172.617L445.054 2.02286C443.031 0.337143 441.345 0 438.985 0H270.741C267.707 0 265.684 2.02286 265.684 5.05714V53.9429C265.684 56.9771 267.707 59 270.741 59H368.855C371.89 59 373.913 61.0229 373.913 64.0571V169.583C373.913 173.629 371.215 175.314 367.844 172.954L109.915 2.02286C107.892 0.674286 106.206 0 103.846 0H5.05743C2.02297 0 0 2.02286 0 5.05714V53.9429C0 56.9771 2.02297 59 5.05743 59H86.3134C88.6736 59 90.3594 59.6743 92.3824 61.0229L352.334 233.977C354.357 235.326 356.043 236 358.403 236H427.858C430.893 236 432.916 233.977 432.916 230.943V73.16C432.916 69.1143 435.613 67.4286 438.985 70.1257L666.569 233.977C668.592 235.663 670.278 236 672.638 236H742.431C745.465 236 747.488 233.977 747.488 230.943V5.05714C747.488 2.02286 745.465 0 742.431 0H585.313C582.279 0 580.256 2.02286 580.256 5.05714ZM909.663 59H1207.71C1220.19 59 1226.6 63.72 1226.6 73.16C1226.6 83.2743 1220.19 88.3314 1207.71 88.3314H909.663C906.628 88.3314 904.605 86.3086 904.605 83.2743V64.0571C904.605 61.0229 906.628 59 909.663 59ZM1207.71 0H781.878C778.844 0 776.821 2.02286 776.821 5.05714V53.9429C776.821 56.9771 778.844 59 781.878 59H840.545C843.579 59 845.602 61.0229 845.602 64.0571V171.943C845.602 174.977 843.579 177 840.545 177H781.878C778.844 177 776.821 179.023 776.821 182.057V230.943C776.821 233.977 778.844 236 781.878 236H987.884C990.919 236 992.942 233.977 992.942 230.943V182.057C992.942 179.023 990.919 177 987.884 177H909.663C906.628 177 904.605 174.977 904.605 171.943V152.389C904.605 149.354 906.628 147.331 909.663 147.331H1207.71C1258.96 147.331 1285.6 122.046 1285.6 73.16C1285.6 24.9486 1258.96 0 1207.71 0ZM1319.99 0C1316.95 0 1314.93 2.02286 1314.93 5.05714V171.943C1314.93 174.977 1312.91 177 1309.87 177H1231.65C1228.62 177 1226.6 179.023 1226.6 182.057V230.943C1226.6 233.977 1228.62 236 1231.65 236H1431.25C1434.29 236 1436.31 233.977 1436.31 230.943V182.057C1436.31 179.023 1434.29 177 1431.25 177H1382.36C1379.33 177 1377.31 174.977 1377.31 171.943V69.4514C1377.31 65.7429 1379.67 63.72 1383.38 65.7429L1588.71 170.931C1593.09 173.291 1592.42 177 1587.36 177H1527.01C1523.97 177 1521.95 179.023 1521.95 182.057V230.943C1521.95 233.977 1523.97 236 1527.01 236H1814.94C1817.98 236 1820 233.977 1820 230.943V182.057C1820 179.023 1817.98 177 1814.94 177H1733.69C1730.65 177 1727.95 176.326 1725.26 174.977L1388.77 2.02286C1386.07 0.674286 1383.38 0 1380.34 0H1319.99Z" fill="white"/>
</svg>
